<svg xmlns="http://www.w3.org/2000/svg" width="170mm" height="70mm" viewBox="0 0 481.89 198.425">
  <defs>
    <style>
      .Surface-underlying {
        fill: #e66526;
        opacity: 0.15;
      }

      .Solid-Black-Thick-Line, .Solid-gray-line {
        fill: none;
        stroke-linecap: round;
        stroke-linejoin: round;
      }

      .Solid-gray-line {
        stroke: #b2b2b2;
        stroke-width: 0.25px;
      }

      .Solid-Black-Thick-Line {
        stroke: #1d1d1b;
      }

      .Surface-visible {
        fill: #0460aa;
        opacity: 0.5;
      }
    </style>
  </defs>
  <title>Results-PiecewiseEvolution-Negative</title>
  <g id="PiecewiseResults-Negative">
    <g id="Negative-SW_copia" data-name="Negative-SW copia">
      <g id="Negative-SW::Hidden::Curves::Surface_Mesh_copia" data-name="Negative-SW::Hidden::Curves::Surface/Mesh copia">
        <polyline class="Surface-underlying" points="57.794 67.057 57.792 67.059 56.762 65.938 52.691 61.066 48.885 56.047 45.339 50.878 42.061 45.57 39.062 40.147 36.355 34.635 33.937 29.033 38.96 28.201 43.742 27.673 48.238 27.453 52.428 27.542 56.269 27.94 59.742 28.644 62.813 29.646 65.467 30.943 67.678 32.52 69.433 34.37 70.718 36.476 71.948 39.901 73.365 43.306 74.974 46.692 76.771 50.042 76.773 50.045 78.569 53.034 79.262 54.072 79.97 55.132 82.4 58.417 85.018 61.627 87.819 64.745 90.798 67.762 93.96 70.677 97.296 73.472 97.296 73.472 100.796 76.134 104.452 78.652 107.931 80.812 111.945 83.046 116.154 85.132 120.485 87.023 124.935 88.715 129.486 90.194 134.122 91.451 138.826 92.474 143.323 93.216 147.735 93.715 152.29 93.994 157.165 94.031 157.169 94.032 157.165 94.031 161.874 93.808 166.554 93.326 171.106 92.597 175.739 91.578 180.209 90.313 180.212 90.312 183.53 89.158 187.368 87.559 187.368 87.558 191.389 85.584 195.249 83.373 198.929 80.931 198.637 81.125 200.925 79.37 202.411 78.262 200.861 79.45 200.925 79.37 202.411 78.262 204.166 77.532 206.165 77.181 208.372 77.202 210.758 77.583 213.282 78.306 215.916 79.349 218.618 80.686 221.365 82.29 224.118 84.128 226.858 86.175 229.552 88.397 224.72 92.119 219.649 95.554 214.358 98.695 208.865 101.537 203.191 104.072 202.577 104.305 197.356 106.292 191.378 108.193 185.174 109.791 179.062 111.013 172.756 111.925 166.385 112.504 159.754 112.752 153.52 112.662 147.058 112.244 140.608 111.5 134.192 110.434 127.819 109.049 121.507 107.351 115.28 105.35 109.162 103.055 103.154 100.469 97.274 97.601 91.544 94.465 85.987 91.077 80.601 87.437 75.399 83.557 70.403 79.454 65.632 75.149 61.081 70.639 57.792 67.059"/>
        <polyline class="Solid-gray-line" points="202.577 104.305 197.356 106.292 191.378 108.193 185.174 109.791 179.062 111.013 172.756 111.925 166.385 112.504 159.754 112.752 153.52 112.662 147.058 112.244 140.608 111.5 134.192 110.434 127.819 109.049 121.507 107.351 115.28 105.35 109.162 103.055 103.154 100.469 97.274 97.601 91.544 94.465 85.987 91.077 80.601 87.437 75.399 83.557 70.403 79.454 65.632 75.149 61.081 70.639 57.792 67.059"/>
        <line class="Solid-gray-line" x1="57.794" y1="67.057" x2="57.792" y2="67.059"/>
      </g>
      <g id="Negative-SW::Visible::Curves::Surface_Mesh_copia" data-name="Negative-SW::Visible::Curves::Surface/Mesh copia">
        <line class="Solid-Black-Thick-Line" x1="42.061" y1="45.57" x2="39.062" y2="40.147"/>
        <line class="Solid-Black-Thick-Line" x1="13.305" y1="117.215" x2="9.444" y2="112.211"/>
        <line class="Solid-Black-Thick-Line" x1="39.062" y1="40.147" x2="36.355" y2="34.635"/>
        <line class="Solid-Black-Thick-Line" x1="79.262" y1="54.072" x2="78.569" y2="53.034"/>
        <line class="Solid-Black-Thick-Line" x1="9.444" y1="112.211" x2="5.909" y2="107.064"/>
        <line class="Solid-Black-Thick-Line" x1="71.948" y1="39.901" x2="70.718" y2="36.476"/>
        <polyline class="Solid-Black-Thick-Line" points="70.718 36.476 71.525 38.824 71.525 38.826"/>
        <line class="Solid-Black-Thick-Line" x1="5.909" y1="107.064" x2="2.699" y2="101.773"/>
        <line class="Solid-Black-Thick-Line" x1="17.475" y1="122.053" x2="13.305" y2="117.215"/>
        <line class="Solid-Black-Thick-Line" x1="38.96" y1="28.201" x2="43.742" y2="27.673"/>
        <polyline class="Solid-Black-Thick-Line" points="76.771 50.042 74.974 46.692 73.365 43.306 71.948 39.901"/>
        <line class="Solid-Black-Thick-Line" x1="71.846" y1="41.395" x2="71.679" y2="44.172"/>
        <line class="Solid-Black-Thick-Line" x1="71.679" y1="44.172" x2="71.027" y2="47.133"/>
        <line class="Solid-Black-Thick-Line" x1="71.027" y1="47.133" x2="69.893" y2="50.255"/>
        <line class="Solid-Black-Thick-Line" x1="69.893" y1="50.255" x2="68.286" y2="53.517"/>
        <line class="Solid-Black-Thick-Line" x1="68.286" y1="53.517" x2="66.219" y2="56.893"/>
        <line class="Solid-Black-Thick-Line" x1="57.794" y1="67.057" x2="57.418" y2="67.458"/>
        <line class="Solid-Black-Thick-Line" x1="76.773" y1="50.045" x2="78.569" y2="53.034"/>
        <line class="Solid-Black-Thick-Line" x1="57.792" y1="67.059" x2="56.762" y2="65.938"/>
        <line class="Solid-Black-Thick-Line" x1="183.53" y1="89.158" x2="180.212" y2="90.312"/>
        <line class="Solid-Black-Thick-Line" x1="48.885" y1="56.047" x2="45.339" y2="50.878"/>
        <line class="Solid-Black-Thick-Line" x1="202.575" y1="104.306" x2="203.524" y2="106.329"/>
        <line class="Solid-Black-Thick-Line" x1="26.677" y1="131.156" x2="21.936" y2="126.703"/>
        <line class="Solid-Black-Thick-Line" x1="8.174" y1="99.547" x2="2.699" y2="101.773"/>
        <line class="Solid-Black-Thick-Line" x1="31.701" y1="135.415" x2="26.677" y2="131.156"/>
        <line class="Solid-Black-Thick-Line" x1="13.998" y1="96.936" x2="8.174" y2="99.547"/>
        <polyline class="Solid-Black-Thick-Line" points="82.4 58.417 79.97 55.132 79.262 54.072"/>
        <line class="Solid-Black-Thick-Line" x1="19.577" y1="94.197" x2="13.998" y2="96.936"/>
        <line class="Solid-Black-Thick-Line" x1="56.762" y1="65.938" x2="52.691" y2="61.066"/>
        <line class="Solid-Black-Thick-Line" x1="25.065" y1="91.266" x2="19.577" y2="94.197"/>
        <line class="Solid-Black-Thick-Line" x1="42.509" y1="143.275" x2="36.986" y2="139.46"/>
        <line class="Solid-Black-Thick-Line" x1="30.406" y1="88.172" x2="25.065" y2="91.266"/>
        <line class="Solid-Black-Thick-Line" x1="54.233" y1="150.185" x2="48.257" y2="146.849"/>
        <line class="Solid-Black-Thick-Line" x1="35.575" y1="84.931" x2="30.406" y2="88.172"/>
        <line class="Solid-Black-Thick-Line" x1="60.412" y1="153.269" x2="54.233" y2="150.185"/>
        <line class="Solid-Black-Thick-Line" x1="40.518" y1="81.575" x2="35.575" y2="84.931"/>
        <polyline class="Solid-Black-Thick-Line" points="97.296 73.472 93.96 70.677 90.798 67.762 87.819 64.745 85.018 61.627 82.4 58.417"/>
        <line class="Solid-Black-Thick-Line" x1="45.213" y1="78.119" x2="40.518" y2="81.575"/>
        <line class="Solid-Black-Thick-Line" x1="73.286" y1="158.631" x2="66.768" y2="156.086"/>
        <line class="Solid-Black-Thick-Line" x1="49.612" y1="74.601" x2="45.213" y2="78.119"/>
        <line class="Solid-Black-Thick-Line" x1="93.708" y1="164.59" x2="86.782" y2="162.892"/>
        <line class="Solid-Black-Thick-Line" x1="53.694" y1="71.035" x2="49.612" y2="74.601"/>
        <line class="Solid-Black-Thick-Line" x1="107.829" y1="167.097" x2="100.725" y2="165.992"/>
        <line class="Solid-Black-Thick-Line" x1="57.418" y1="67.458" x2="53.694" y2="71.035"/>
        <line class="Solid-Black-Thick-Line" x1="129.421" y1="168.592" x2="122.202" y2="168.401"/>
        <line class="Solid-Black-Thick-Line" x1="60.766" y1="63.889" x2="57.794" y2="67.057"/>
        <line class="Solid-Black-Thick-Line" x1="150.799" y1="167.351" x2="143.865" y2="168.053"/>
        <line class="Solid-Black-Thick-Line" x1="63.705" y1="60.36" x2="60.766" y2="63.889"/>
        <polyline class="Solid-Black-Thick-Line" points="143.323 93.216 147.735 93.715 152.29 93.994 157.165 94.031 157.169 94.032"/>
        <line class="Solid-Black-Thick-Line" x1="66.219" y1="56.893" x2="63.705" y2="60.36"/>
        <polyline class="Solid-Black-Thick-Line" points="97.296 73.472 97.296 73.472 100.796 76.134 104.452 78.652 107.931 80.812"/>
        <line class="Solid-Black-Thick-Line" x1="71.525" y1="38.824" x2="71.846" y2="41.395"/>
        <polyline class="Solid-Black-Thick-Line" points="143.323 93.216 138.826 92.474 134.122 91.451 129.486 90.194 124.935 88.715 120.485 87.023 116.154 85.132 111.945 83.046 107.931 80.812"/>
        <line class="Solid-Black-Thick-Line" x1="69.433" y1="34.37" x2="70.718" y2="36.476"/>
        <line class="Solid-Black-Thick-Line" x1="165.188" y1="164.944" x2="158.149" y2="166.285"/>
        <line class="Solid-Black-Thick-Line" x1="67.678" y1="32.52" x2="69.433" y2="34.37"/>
        <line class="Solid-Black-Thick-Line" x1="65.467" y1="30.943" x2="67.678" y2="32.52"/>
        <line class="Solid-Black-Thick-Line" x1="62.813" y1="29.646" x2="65.467" y2="30.943"/>
        <line class="Solid-Black-Thick-Line" x1="59.742" y1="28.644" x2="62.813" y2="29.646"/>
        <line class="Solid-Black-Thick-Line" x1="56.269" y1="27.94" x2="59.742" y2="28.644"/>
        <line class="Solid-Black-Thick-Line" x1="52.428" y1="27.542" x2="56.269" y2="27.94"/>
        <line class="Solid-Black-Thick-Line" x1="48.238" y1="27.453" x2="52.428" y2="27.542"/>
        <line class="Solid-Black-Thick-Line" x1="43.742" y1="27.673" x2="48.238" y2="27.453"/>
        <line class="Solid-Black-Thick-Line" x1="33.937" y1="29.033" x2="38.96" y2="28.201"/>
        <line class="Solid-Black-Thick-Line" x1="36.355" y1="34.635" x2="33.937" y2="29.033"/>
        <line class="Solid-Black-Thick-Line" x1="45.339" y1="50.878" x2="42.061" y2="45.57"/>
        <line class="Solid-Black-Thick-Line" x1="21.936" y1="126.703" x2="17.475" y2="122.053"/>
        <line class="Solid-Black-Thick-Line" x1="52.691" y1="61.066" x2="48.885" y2="56.047"/>
        <line class="Solid-Black-Thick-Line" x1="36.986" y1="139.46" x2="31.701" y2="135.415"/>
        <line class="Solid-Black-Thick-Line" x1="48.257" y1="146.849" x2="42.509" y2="143.275"/>
        <line class="Solid-Black-Thick-Line" x1="66.768" y1="156.086" x2="60.412" y2="153.269"/>
        <line class="Solid-Black-Thick-Line" x1="79.966" y1="160.902" x2="73.286" y2="158.631"/>
        <line class="Solid-Black-Thick-Line" x1="86.782" y1="162.892" x2="79.966" y2="160.902"/>
        <line class="Solid-Black-Thick-Line" x1="100.725" y1="165.992" x2="93.708" y2="164.59"/>
        <line class="Solid-Black-Thick-Line" x1="114.998" y1="167.902" x2="107.829" y2="167.097"/>
        <line class="Solid-Black-Thick-Line" x1="122.202" y1="168.401" x2="114.998" y2="167.902"/>
        <line class="Solid-Black-Thick-Line" x1="185.646" y1="159.134" x2="178.848" y2="161.398"/>
        <line class="Solid-Black-Thick-Line" x1="136.65" y1="168.476" x2="129.421" y2="168.592"/>
        <polyline class="Solid-Black-Thick-Line" points="180.209 90.313 175.739 91.578 171.106 92.597 166.554 93.326 161.874 93.808 157.165 94.031"/>
        <line class="Solid-Black-Thick-Line" x1="143.865" y1="168.053" x2="136.65" y2="168.476"/>
        <line class="Solid-Black-Thick-Line" x1="198.547" y1="153.824" x2="192.181" y2="156.618"/>
        <line class="Solid-Black-Thick-Line" x1="158.149" y1="166.285" x2="150.799" y2="167.351"/>
        <line class="Solid-Black-Thick-Line" x1="204.726" y1="150.759" x2="198.547" y2="153.824"/>
        <line class="Solid-Black-Thick-Line" x1="172.134" y1="163.302" x2="165.188" y2="164.944"/>
        <polyline class="Solid-Black-Thick-Line" points="183.53 89.157 187.368 87.559 187.368 87.558"/>
        <line class="Solid-Black-Thick-Line" x1="178.848" y1="161.398" x2="172.134" y2="163.302"/>
        <line class="Solid-Black-Thick-Line" x1="210.7" y1="147.431" x2="204.726" y2="150.759"/>
        <line class="Solid-Black-Thick-Line" x1="192.181" y1="156.618" x2="185.646" y2="159.134"/>
        <line class="Solid-Black-Thick-Line" x1="203.191" y1="104.072" x2="202.577" y2="104.305"/>
        <line class="Solid-Black-Thick-Line" x1="208.865" y1="101.537" x2="203.191" y2="104.072"/>
        <line class="Solid-Black-Thick-Line" x1="214.358" y1="98.695" x2="208.865" y2="101.537"/>
        <line class="Solid-Black-Thick-Line" x1="224.72" y1="92.119" x2="219.649" y2="95.554"/>
        <line class="Solid-Black-Thick-Line" x1="224.718" y1="133.833" x2="227.189" y2="135.955"/>
        <line class="Solid-Black-Thick-Line" x1="222.056" y1="131.351" x2="224.718" y2="133.833"/>
        <line class="Solid-Black-Thick-Line" x1="219.477" y1="128.743" x2="222.056" y2="131.351"/>
        <line class="Solid-Black-Thick-Line" x1="216.914" y1="125.941" x2="219.477" y2="128.743"/>
        <line class="Solid-Black-Thick-Line" x1="214.4" y1="122.968" x2="216.914" y2="125.941"/>
        <line class="Solid-Black-Thick-Line" x1="211.955" y1="119.837" x2="214.4" y2="122.968"/>
        <line class="Solid-Black-Thick-Line" x1="207.409" y1="113.217" x2="209.617" y2="116.58"/>
        <line class="Solid-Black-Thick-Line" x1="216.447" y1="143.849" x2="210.7" y2="147.431"/>
        <line class="Solid-Black-Thick-Line" x1="205.37" y1="109.791" x2="207.409" y2="113.217"/>
        <line class="Solid-Black-Thick-Line" x1="203.524" y1="106.329" x2="205.37" y2="109.791"/>
        <line class="Solid-Black-Thick-Line" x1="201.907" y1="102.881" x2="202.575" y2="104.306"/>
        <line class="Solid-Black-Thick-Line" x1="200.544" y1="99.482" x2="201.907" y2="102.881"/>
        <line class="Solid-Black-Thick-Line" x1="199.464" y1="96.184" x2="200.544" y2="99.482"/>
        <line class="Solid-Black-Thick-Line" x1="198.685" y1="93.026" x2="199.464" y2="96.184"/>
        <line class="Solid-Black-Thick-Line" x1="200.925" y1="79.37" x2="200.861" y2="79.45"/>
        <line class="Solid-Black-Thick-Line" x1="204.166" y1="77.532" x2="202.411" y2="78.262"/>
        <line class="Solid-Black-Thick-Line" x1="206.165" y1="77.181" x2="204.166" y2="77.532"/>
        <line class="Solid-Black-Thick-Line" x1="208.372" y1="77.202" x2="206.165" y2="77.181"/>
        <line class="Solid-Black-Thick-Line" x1="210.758" y1="77.583" x2="208.372" y2="77.202"/>
        <line class="Solid-Black-Thick-Line" x1="213.282" y1="78.306" x2="210.758" y2="77.583"/>
        <line class="Solid-Black-Thick-Line" x1="226.858" y1="86.175" x2="224.118" y2="84.128"/>
        <line class="Solid-Black-Thick-Line" x1="218.618" y1="80.686" x2="215.916" y2="79.349"/>
        <line class="Solid-Black-Thick-Line" x1="215.916" y1="79.349" x2="213.282" y2="78.306"/>
        <line class="Solid-Black-Thick-Line" x1="221.365" y1="82.29" x2="218.618" y2="80.686"/>
        <polyline class="Solid-Black-Thick-Line" points="198.637 81.125 200.925 79.37 202.411 78.262 200.861 79.45"/>
        <line class="Solid-Black-Thick-Line" x1="200.861" y1="79.45" x2="199.735" y2="80.848"/>
        <line class="Solid-Black-Thick-Line" x1="199.735" y1="80.848" x2="198.86" y2="82.682"/>
        <line class="Solid-Black-Thick-Line" x1="198.86" y1="82.682" x2="198.313" y2="84.848"/>
        <line class="Solid-Black-Thick-Line" x1="198.313" y1="84.848" x2="198.102" y2="87.317"/>
        <line class="Solid-Black-Thick-Line" x1="198.102" y1="87.317" x2="198.228" y2="90.057"/>
        <line class="Solid-Black-Thick-Line" x1="198.228" y1="90.057" x2="198.685" y2="93.026"/>
        <line class="Solid-Black-Thick-Line" x1="224.118" y1="84.128" x2="221.365" y2="82.29"/>
        <line class="Solid-Black-Thick-Line" x1="209.617" y1="116.58" x2="211.955" y2="119.837"/>
        <line class="Solid-Black-Thick-Line" x1="229.552" y1="88.397" x2="224.72" y2="92.119"/>
        <polyline class="Solid-Black-Thick-Line" points="198.929 80.931 195.249 83.373 191.389 85.584 187.368 87.559"/>
        <line class="Solid-Black-Thick-Line" x1="229.552" y1="88.397" x2="226.858" y2="86.175"/>
        <line class="Solid-Black-Thick-Line" x1="221.948" y1="140.021" x2="216.447" y2="143.849"/>
        <line class="Solid-Black-Thick-Line" x1="227.189" y1="135.955" x2="221.948" y2="140.021"/>
        <line class="Solid-Black-Thick-Line" x1="219.649" y1="95.554" x2="214.358" y2="98.695"/>
        <polyline class="Surface-visible" points="70.772 36.532 71.578 38.881 71.579 38.882 71.578 38.881 71.899 41.452 71.733 44.228 71.08 47.189 69.947 50.312 68.34 53.574 66.273 56.949 63.758 60.417 60.819 63.945 57.848 67.114 57.472 67.515 53.748 71.091 49.666 74.657 45.267 78.176 40.572 81.631 35.628 84.987 30.46 88.229 25.119 91.322 19.631 94.254 14.052 96.993 8.227 99.603 2.753 101.829 5.962 107.121 9.497 112.267 13.359 117.271 17.529 122.109 21.99 126.759 26.731 131.212 31.754 135.471 37.039 139.516 42.563 143.331 48.311 146.905 54.286 150.241 60.465 153.325 66.822 156.143 73.34 158.687 80.019 160.959 86.835 162.948 93.762 164.646 100.778 166.048 107.883 167.154 115.051 167.958 122.255 168.457 129.475 168.648 136.704 168.532 143.918 168.109 150.852 167.407 158.202 166.341 165.242 165 172.187 163.358 178.902 161.454 185.699 159.19 192.234 156.675 198.601 153.881 204.78 150.815 210.753 147.487 216.5 143.905 222.002 140.077 227.242 136.011 224.771 133.889 222.11 131.407 219.53 128.8 216.967 125.997 214.453 123.024 212.009 119.893 209.671 116.636 207.463 113.273 205.423 109.847 203.577 106.385 202.629 104.362 201.961 102.938 200.598 99.538 199.517 96.24 198.739 93.082 198.281 90.114 198.155 87.374 198.366 84.904 198.913 82.738 199.789 80.905 200.915 79.506 200.979 79.427 195.303 83.429 191.443 85.64 187.422 87.615 187.421 87.615 183.584 89.214 180.266 90.368 180.263 90.369 175.792 91.634 171.16 92.653 166.607 93.382 161.927 93.864 157.218 94.087 157.223 94.088 157.218 94.087 152.344 94.05 147.789 93.771 143.377 93.272 138.88 92.531 134.175 91.507 129.54 90.251 124.988 88.771 120.539 87.08 116.208 85.188 111.998 83.102 107.985 80.868 104.506 78.708 100.85 76.19 97.35 73.528 97.35 73.528 94.014 70.733 90.852 67.819 87.872 64.802 85.072 61.683 82.453 58.474 80.024 55.188 79.649 54.628 79.315 54.128 78.622 53.09 76.827 50.101 76.825 50.098 75.027 46.748 73.419 43.362 72.002 39.958 70.772 36.532 69.487 34.426"/>
      </g>
    </g>
    <g id="Negative-NE_copia" data-name="Negative-NE copia">
      <g id="Negative-NE::Hidden::Curves::Surface_Mesh_copia" data-name="Negative-NE::Hidden::Curves::Surface/Mesh copia">
        <polyline class="Surface-underlying" points="404.832 72.354 405.418 71.596 406.826 69.78 408.434 67.44 408.313 67.637 409.717 64.967 409.718 64.963 410.937 62.259 413.004 58.859 415.518 55.756 418.458 52.976 421.805 50.536 425.529 48.46 429.611 46.758 434.01 45.446 438.705 44.532 443.648 44.025 448.817 43.927 454.158 44.24 459.646 44.962 465.225 46.085 471.05 47.661 476.524 49.509 473.314 54.784 469.78 59.915 465.918 64.903 461.748 69.724 457.287 74.357 452.546 78.794 447.522 83.036 442.238 87.064 436.714 90.862 430.966 94.42 424.991 97.74 418.812 100.807 414.42 102.743 412.455 103.609 405.937 106.137 399.258 108.394 392.441 110.368 385.515 112.051 378.498 113.439 371.394 114.531 364.225 115.322 357.021 115.808 349.802 115.987 342.573 115.86 335.359 115.425 328.424 114.714 321.075 113.638 314.035 112.288 307.089 110.637 300.375 108.726 293.577 106.456 287.042 103.935 280.676 101.136 277.255 99.437 274.497 98.067 268.524 94.735 262.777 91.151 257.275 87.322 252.034 83.255 254.505 81.342 257.167 79.477 259.746 77.873 262.31 76.489 264.824 75.357 267.268 74.497 269.606 73.936 271.814 73.693 273.854 73.788 275.699 74.236 277.316 75.043 281.043 77.923 284.981 80.616 289.113 83.115 293.42 85.415 297.593 87.374 301.591 89.013 306.436 90.725 306.441 90.726 306.436 90.725 311.463 92.228 316.41 93.451 321.504 94.459 326.639 95.229 331.964 95.775 336.951 96.057 342.098 96.119 347.21 95.951 352.266 95.557 357.259 94.942 357.26 94.942 362.173 94.11 362.175 94.11 365.834 93.318 365.836 93.318 370.362 92.121 370.363 92.121 370.362 92.121 374.768 90.737 379.043 89.173 383.17 87.441 387.135 85.552 386.961 85.649 387.133 85.554 387.135 85.552 389.445 84.313 392.448 82.506 392.452 82.504 392.448 82.506 395.768 80.276 398.901 77.933 398.903 77.931 400.062 76.967 402.262 74.932 404.734 72.384 404.736 72.382 405.418 71.596 409.257 66.096 409.308 66.013 409.295 66.059 409.357 65.957 409.33 65.934 409.802 64.854 410.561 63.12 410.937 62.259"/>
        <line class="Solid-gray-line" x1="274.497" y1="98.067" x2="277.255" y2="99.437"/>
        <polyline class="Solid-gray-line" points="414.42 102.743 412.455 103.609 405.937 106.137 399.258 108.394 392.441 110.368 385.515 112.051 378.498 113.439 371.394 114.531 364.225 115.322 357.021 115.808 349.802 115.987 342.573 115.86 335.359 115.425 328.424 114.714 321.075 113.638 314.035 112.288 307.089 110.637 300.375 108.726 293.577 106.456 287.042 103.935 280.676 101.136 277.255 99.437"/>
      </g>
      <g id="Negative-NE::Visible::Curves::Surface_Mesh_copia" data-name="Negative-NE::Visible::Curves::Surface/Mesh copia">
        <polyline class="Surface-visible" points="405.418 71.596 409.802 64.854 408.196 69.854 407.544 73.99 407.378 78.314 407.699 82.79 408.505 87.389 409.79 92.07 411.546 96.809 413.756 101.558 414.42 102.743 416.41 106.294 419.481 110.97 422.954 115.564 426.795 120.027 430.985 124.341 435.481 128.459 440.263 132.364 445.286 136.017 442.868 139.52 440.161 142.892 437.162 146.134 433.884 149.229 430.338 152.163 426.532 154.931 422.461 157.531 418.142 159.953 413.592 162.183 408.82 164.216 403.824 166.051 398.622 167.679 393.236 169.092 387.679 170.284 381.95 171.254 376.069 171.997 370.062 172.507 363.943 172.782 357.716 172.82 351.404 172.619 345.031 172.179 338.616 171.498 332.166 170.576 325.703 169.416 319.469 168.071 312.839 166.391 306.467 164.531 300.161 162.445 294.049 160.179 287.845 157.62 281.867 154.894 276.032 151.968 270.359 148.852 264.865 145.555 259.574 142.087 254.504 138.456 249.671 134.672 252.366 132.494 255.105 130.068 257.858 127.41 260.605 124.529 263.307 121.451 265.942 118.194 268.465 114.795 270.851 111.28 273.058 107.698 275.057 104.082 276.812 100.486 277.254 99.435 278.298 96.951 279.488 93.53 280.364 90.266 280.911 87.207 281.122 84.393 280.995 81.859 280.538 79.638 279.76 77.751 278.679 76.217 277.316 75.043 275.699 74.236 277.316 75.043 281.043 77.923 284.981 80.616 289.113 83.115 293.42 85.415 297.593 87.374 301.591 89.013 306.436 90.725 306.441 90.726 306.436 90.725 311.463 92.228 316.41 93.451 321.504 94.459 326.639 95.229 331.964 95.775 336.951 96.057 342.098 96.119 347.21 95.951 352.266 95.557 357.259 94.942 357.26 94.942 362.173 94.11 362.175 94.11 365.834 93.318 365.836 93.318 370.362 92.121 370.363 92.121 370.362 92.121 374.768 90.737 379.043 89.173 383.17 87.441 387.135 85.552 386.961 85.649 387.133 85.554 387.135 85.552 389.445 84.313 392.448 82.506 392.452 82.504 392.448 82.506 395.768 80.276 398.901 77.933 398.903 77.931 400.062 76.967 402.262 74.932 404.734 72.384 404.736 72.382 405.418 71.596"/>
        <line class="Solid-Black-Thick-Line" x1="454.158" y1="44.24" x2="459.646" y2="44.962"/>
        <line class="Solid-Black-Thick-Line" x1="443.648" y1="44.025" x2="448.817" y2="43.927"/>
        <line class="Solid-Black-Thick-Line" x1="459.646" y1="44.962" x2="465.225" y2="46.085"/>
        <line class="Solid-Black-Thick-Line" x1="438.705" y1="44.532" x2="443.648" y2="44.025"/>
        <line class="Solid-Black-Thick-Line" x1="465.225" y1="46.085" x2="471.05" y2="47.661"/>
        <line class="Solid-Black-Thick-Line" x1="434.01" y1="45.446" x2="438.705" y2="44.532"/>
        <line class="Solid-Black-Thick-Line" x1="471.05" y1="47.661" x2="476.524" y2="49.509"/>
        <line class="Solid-Black-Thick-Line" x1="277.254" y1="99.435" x2="278.298" y2="96.951"/>
        <line class="Solid-Black-Thick-Line" x1="440.161" y1="142.892" x2="442.868" y2="139.52"/>
        <line class="Solid-Black-Thick-Line" x1="429.611" y1="46.758" x2="434.01" y2="45.446"/>
        <line class="Solid-Black-Thick-Line" x1="465.918" y1="64.903" x2="469.78" y2="59.915"/>
        <line class="Solid-Black-Thick-Line" x1="425.529" y1="48.46" x2="429.611" y2="46.758"/>
        <polyline class="Solid-Black-Thick-Line" points="362.175 94.11 362.173 94.11 357.26 94.942"/>
        <line class="Solid-Black-Thick-Line" x1="421.805" y1="50.536" x2="425.529" y2="48.46"/>
        <line class="Solid-Black-Thick-Line" x1="387.133" y1="85.554" x2="386.961" y2="85.649"/>
        <line class="Solid-Black-Thick-Line" x1="418.458" y1="52.976" x2="421.805" y2="50.536"/>
        <polyline class="Solid-Black-Thick-Line" points="389.445 84.313 392.448 82.506 392.452 82.504"/>
        <line class="Solid-Black-Thick-Line" x1="415.518" y1="55.756" x2="418.458" y2="52.976"/>
        <line class="Solid-Black-Thick-Line" x1="414.42" y1="102.743" x2="418.812" y2="100.807"/>
        <line class="Solid-Black-Thick-Line" x1="413.004" y1="58.859" x2="415.518" y2="55.756"/>
        <line class="Solid-Black-Thick-Line" x1="400.062" y1="76.967" x2="398.903" y2="77.931"/>
        <line class="Solid-Black-Thick-Line" x1="408.313" y1="67.637" x2="408.434" y2="67.44"/>
        <line class="Solid-Black-Thick-Line" x1="414.42" y1="102.743" x2="413.756" y2="101.558"/>
        <line class="Solid-Black-Thick-Line" x1="407.699" y1="82.79" x2="407.378" y2="78.314"/>
        <line class="Solid-Black-Thick-Line" x1="437.162" y1="146.134" x2="440.161" y2="142.892"/>
        <line class="Solid-Black-Thick-Line" x1="411.546" y1="96.809" x2="409.79" y2="92.07"/>
        <line class="Solid-Black-Thick-Line" x1="461.748" y1="69.724" x2="465.918" y2="64.903"/>
        <line class="Solid-Black-Thick-Line" x1="409.257" y1="66.096" x2="409.308" y2="66.013"/>
        <line class="Solid-Black-Thick-Line" x1="413.756" y1="101.558" x2="411.546" y2="96.809"/>
        <polyline class="Solid-Black-Thick-Line" points="405.418 71.596 406.826 69.78 408.434 67.44"/>
        <line class="Solid-Black-Thick-Line" x1="416.41" y1="106.294" x2="414.42" y2="102.743"/>
        <line class="Solid-Black-Thick-Line" x1="404.832" y1="72.354" x2="405.418" y2="71.596"/>
        <line class="Solid-Black-Thick-Line" x1="430.338" y1="152.163" x2="433.884" y2="149.229"/>
        <line class="Solid-Black-Thick-Line" x1="419.481" y1="110.97" x2="416.41" y2="106.294"/>
        <line class="Solid-Black-Thick-Line" x1="452.546" y1="78.794" x2="457.287" y2="74.357"/>
        <line class="Solid-Black-Thick-Line" x1="259.746" y1="77.873" x2="257.167" y2="79.477"/>
        <line class="Solid-Black-Thick-Line" x1="422.954" y1="115.564" x2="419.481" y2="110.97"/>
        <line class="Solid-Black-Thick-Line" x1="426.795" y1="120.027" x2="422.954" y2="115.564"/>
        <line class="Solid-Black-Thick-Line" x1="262.31" y1="76.489" x2="259.746" y2="77.873"/>
        <line class="Solid-Black-Thick-Line" x1="430.985" y1="124.341" x2="426.795" y2="120.027"/>
        <line class="Solid-Black-Thick-Line" x1="405.418" y1="71.596" x2="404.736" y2="72.382"/>
        <line class="Solid-Black-Thick-Line" x1="264.824" y1="75.357" x2="262.31" y2="76.489"/>
        <line class="Solid-Black-Thick-Line" x1="435.481" y1="128.459" x2="430.985" y2="124.341"/>
        <line class="Solid-Black-Thick-Line" x1="267.268" y1="74.497" x2="264.824" y2="75.357"/>
        <line class="Solid-Black-Thick-Line" x1="445.286" y1="136.017" x2="440.263" y2="132.364"/>
        <line class="Solid-Black-Thick-Line" x1="442.868" y1="139.52" x2="445.286" y2="136.017"/>
        <polyline class="Solid-Black-Thick-Line" points="365.836 93.318 370.362 92.121 370.363 92.121"/>
        <line class="Solid-Black-Thick-Line" x1="433.884" y1="149.229" x2="437.162" y2="146.134"/>
        <line class="Solid-Black-Thick-Line" x1="447.522" y1="83.036" x2="452.546" y2="78.794"/>
        <line class="Solid-Black-Thick-Line" x1="457.287" y1="74.357" x2="461.748" y2="69.724"/>
        <line class="Solid-Black-Thick-Line" x1="422.461" y1="157.531" x2="426.532" y2="154.931"/>
        <line class="Solid-Black-Thick-Line" x1="426.532" y1="154.931" x2="430.338" y2="152.163"/>
        <polyline class="Solid-Black-Thick-Line" points="400.062 76.967 402.262 74.932 404.734 72.384"/>
        <line class="Solid-Black-Thick-Line" x1="442.238" y1="87.064" x2="447.522" y2="83.036"/>
        <line class="Solid-Black-Thick-Line" x1="418.142" y1="159.953" x2="422.461" y2="157.531"/>
        <line class="Solid-Black-Thick-Line" x1="408.313" y1="67.637" x2="409.717" y2="64.967"/>
        <line class="Solid-Black-Thick-Line" x1="436.714" y1="90.862" x2="442.238" y2="87.064"/>
        <line class="Solid-Black-Thick-Line" x1="413.592" y1="162.183" x2="418.142" y2="159.953"/>
        <line class="Solid-Black-Thick-Line" x1="408.82" y1="164.216" x2="413.592" y2="162.183"/>
        <line class="Solid-Black-Thick-Line" x1="430.966" y1="94.42" x2="436.714" y2="90.862"/>
        <line class="Solid-Black-Thick-Line" x1="424.991" y1="97.74" x2="430.966" y2="94.42"/>
        <line class="Solid-Black-Thick-Line" x1="403.824" y1="166.051" x2="408.82" y2="164.216"/>
        <polyline class="Solid-Black-Thick-Line" points="392.448 82.506 395.768 80.276 398.901 77.933"/>
        <line class="Solid-Black-Thick-Line" x1="469.78" y1="59.915" x2="473.314" y2="54.784"/>
        <line class="Solid-Black-Thick-Line" x1="418.812" y1="100.807" x2="424.991" y2="97.74"/>
        <line class="Solid-Black-Thick-Line" x1="393.236" y1="169.092" x2="398.622" y2="167.679"/>
        <line class="Solid-Black-Thick-Line" x1="398.622" y1="167.679" x2="403.824" y2="166.051"/>
        <line class="Solid-Black-Thick-Line" x1="409.33" y1="65.934" x2="409.802" y2="64.854"/>
        <polyline class="Solid-Black-Thick-Line" points="389.445 84.313 387.135 85.552 387.133 85.554"/>
        <line class="Solid-Black-Thick-Line" x1="387.679" y1="170.284" x2="393.236" y2="169.092"/>
        <line class="Solid-Black-Thick-Line" x1="381.95" y1="171.254" x2="387.679" y2="170.284"/>
        <line class="Solid-Black-Thick-Line" x1="410.937" y1="62.259" x2="409.718" y2="64.963"/>
        <polyline class="Solid-Black-Thick-Line" points="370.362 92.121 374.768 90.737 379.043 89.173 383.17 87.441 387.135 85.552"/>
        <line class="Solid-Black-Thick-Line" x1="376.069" y1="171.997" x2="381.95" y2="171.254"/>
        <line class="Solid-Black-Thick-Line" x1="363.943" y1="172.782" x2="370.062" y2="172.507"/>
        <line class="Solid-Black-Thick-Line" x1="271.814" y1="73.693" x2="269.606" y2="73.936"/>
        <line class="Solid-Black-Thick-Line" x1="370.062" y1="172.507" x2="376.069" y2="171.997"/>
        <line class="Solid-Black-Thick-Line" x1="473.314" y1="54.784" x2="476.524" y2="49.509"/>
        <line class="Solid-Black-Thick-Line" x1="362.175" y1="94.11" x2="365.834" y2="93.318"/>
        <line class="Solid-Black-Thick-Line" x1="357.716" y1="172.82" x2="363.943" y2="172.782"/>
        <line class="Solid-Black-Thick-Line" x1="345.031" y1="172.179" x2="351.404" y2="172.619"/>
        <line class="Solid-Black-Thick-Line" x1="440.263" y1="132.364" x2="435.481" y2="128.459"/>
        <line class="Solid-Black-Thick-Line" x1="325.703" y1="169.416" x2="332.166" y2="170.576"/>
        <line class="Solid-Black-Thick-Line" x1="351.404" y1="172.619" x2="357.716" y2="172.82"/>
        <line class="Solid-Black-Thick-Line" x1="306.467" y1="164.531" x2="312.839" y2="166.391"/>
        <line class="Solid-Black-Thick-Line" x1="409.79" y1="92.07" x2="408.505" y2="87.389"/>
        <line class="Solid-Black-Thick-Line" x1="294.049" y1="160.179" x2="300.161" y2="162.445"/>
        <line class="Solid-Black-Thick-Line" x1="408.505" y1="87.389" x2="407.699" y2="82.79"/>
        <polyline class="Solid-Black-Thick-Line" points="306.436 90.725 311.463 92.228 316.41 93.451 321.504 94.459 326.639 95.229 331.964 95.775 336.951 96.057 342.098 96.119 347.21 95.951 352.266 95.557 357.259 94.942"/>
        <line class="Solid-Black-Thick-Line" x1="407.378" y1="78.314" x2="407.544" y2="73.99"/>
        <line class="Solid-Black-Thick-Line" x1="249.671" y1="134.672" x2="252.366" y2="132.494"/>
        <line class="Solid-Black-Thick-Line" x1="338.616" y1="171.498" x2="345.031" y2="172.179"/>
        <line class="Solid-Black-Thick-Line" x1="249.671" y1="134.672" x2="254.504" y2="138.456"/>
        <line class="Solid-Black-Thick-Line" x1="409.357" y1="65.957" x2="409.295" y2="66.059"/>
        <line class="Solid-Black-Thick-Line" x1="407.544" y1="73.99" x2="408.196" y2="69.854"/>
        <line class="Solid-Black-Thick-Line" x1="276.032" y1="151.968" x2="281.867" y2="154.894"/>
        <line class="Solid-Black-Thick-Line" x1="273.854" y1="73.788" x2="271.814" y2="73.693"/>
        <line class="Solid-Black-Thick-Line" x1="332.166" y1="170.576" x2="338.616" y2="171.498"/>
        <line class="Solid-Black-Thick-Line" x1="408.196" y1="69.854" x2="409.33" y2="65.934"/>
        <line class="Solid-Black-Thick-Line" x1="319.469" y1="168.071" x2="325.703" y2="169.416"/>
        <line class="Solid-Black-Thick-Line" x1="410.561" y1="63.12" x2="410.937" y2="62.259"/>
        <polyline class="Solid-Black-Thick-Line" points="306.441 90.726 306.436 90.725 301.591 89.013 297.593 87.374"/>
        <line class="Solid-Black-Thick-Line" x1="278.679" y1="76.217" x2="277.316" y2="75.043"/>
        <line class="Solid-Black-Thick-Line" x1="410.937" y1="62.259" x2="413.004" y2="58.859"/>
        <line class="Solid-Black-Thick-Line" x1="293.42" y1="85.415" x2="297.593" y2="87.374"/>
        <line class="Solid-Black-Thick-Line" x1="312.839" y1="166.391" x2="319.469" y2="168.071"/>
        <line class="Solid-Black-Thick-Line" x1="268.524" y1="94.735" x2="274.497" y2="98.067"/>
        <line class="Solid-Black-Thick-Line" x1="260.605" y1="124.529" x2="263.307" y2="121.451"/>
        <line class="Solid-Black-Thick-Line" x1="262.777" y1="91.151" x2="268.524" y2="94.735"/>
        <line class="Solid-Black-Thick-Line" x1="300.161" y1="162.445" x2="306.467" y2="164.531"/>
        <line class="Solid-Black-Thick-Line" x1="259.574" y1="142.087" x2="264.865" y2="145.555"/>
        <line class="Solid-Black-Thick-Line" x1="257.858" y1="127.41" x2="260.605" y2="124.529"/>
        <line class="Solid-Black-Thick-Line" x1="257.275" y1="87.322" x2="262.777" y2="91.151"/>
        <line class="Solid-Black-Thick-Line" x1="287.845" y1="157.62" x2="294.049" y2="160.179"/>
        <line class="Solid-Black-Thick-Line" x1="269.606" y1="73.936" x2="267.268" y2="74.497"/>
        <line class="Solid-Black-Thick-Line" x1="280.911" y1="87.207" x2="281.122" y2="84.393"/>
        <line class="Solid-Black-Thick-Line" x1="281.867" y1="154.894" x2="287.845" y2="157.62"/>
        <line class="Solid-Black-Thick-Line" x1="275.699" y1="74.236" x2="273.854" y2="73.788"/>
        <line class="Solid-Black-Thick-Line" x1="255.105" y1="130.068" x2="257.858" y2="127.41"/>
        <polyline class="Solid-Black-Thick-Line" points="275.699 74.236 277.316 75.043 281.043 77.923 284.981 80.616 289.113 83.115 293.42 85.415"/>
        <line class="Solid-Black-Thick-Line" x1="274.497" y1="98.067" x2="277.255" y2="99.437"/>
        <line class="Solid-Black-Thick-Line" x1="279.76" y1="77.751" x2="278.679" y2="76.217"/>
        <line class="Solid-Black-Thick-Line" x1="280.538" y1="79.638" x2="279.76" y2="77.751"/>
        <line class="Solid-Black-Thick-Line" x1="280.995" y1="81.859" x2="280.538" y2="79.638"/>
        <line class="Solid-Black-Thick-Line" x1="279.488" y1="93.53" x2="280.364" y2="90.266"/>
        <line class="Solid-Black-Thick-Line" x1="278.298" y1="96.951" x2="279.488" y2="93.53"/>
        <line class="Solid-Black-Thick-Line" x1="276.812" y1="100.486" x2="277.254" y2="99.435"/>
        <line class="Solid-Black-Thick-Line" x1="270.359" y1="148.852" x2="276.032" y2="151.968"/>
        <line class="Solid-Black-Thick-Line" x1="281.122" y1="84.393" x2="280.995" y2="81.859"/>
        <line class="Solid-Black-Thick-Line" x1="280.364" y1="90.266" x2="280.911" y2="87.207"/>
        <line class="Solid-Black-Thick-Line" x1="263.307" y1="121.451" x2="265.942" y2="118.194"/>
        <line class="Solid-Black-Thick-Line" x1="264.865" y1="145.555" x2="270.359" y2="148.852"/>
        <line class="Solid-Black-Thick-Line" x1="252.366" y1="132.494" x2="255.105" y2="130.068"/>
        <line class="Solid-Black-Thick-Line" x1="254.504" y1="138.456" x2="259.574" y2="142.087"/>
        <line class="Solid-Black-Thick-Line" x1="265.942" y1="118.194" x2="268.465" y2="114.795"/>
        <line class="Solid-Black-Thick-Line" x1="252.034" y1="83.255" x2="257.275" y2="87.322"/>
        <line class="Solid-Black-Thick-Line" x1="268.465" y1="114.795" x2="270.851" y2="111.28"/>
        <line class="Solid-Black-Thick-Line" x1="275.057" y1="104.082" x2="276.812" y2="100.486"/>
        <line class="Solid-Black-Thick-Line" x1="254.505" y1="81.342" x2="252.034" y2="83.255"/>
        <line class="Solid-Black-Thick-Line" x1="273.058" y1="107.698" x2="275.057" y2="104.082"/>
        <line class="Solid-Black-Thick-Line" x1="257.167" y1="79.477" x2="254.505" y2="81.342"/>
        <line class="Solid-Black-Thick-Line" x1="270.851" y1="111.28" x2="273.058" y2="107.698"/>
        <line class="Solid-Black-Thick-Line" x1="448.817" y1="43.927" x2="454.158" y2="44.24"/>
        <polyline class="Solid-Black-Thick-Line" points="274.497 98.067 268.524 94.735 262.777 91.151 257.275 87.322 252.034 83.255 254.505 81.342 257.167 79.477 259.746 77.873 262.31 76.489 264.824 75.357 267.268 74.497 269.606 73.936 271.814 73.693 273.854 73.788 275.699 74.236 277.316 75.043 281.043 77.923 284.981 80.616 289.113 83.115 293.42 85.415 297.593 87.374 301.591 89.013 306.436 90.725 306.441 90.726 306.436 90.725 311.463 92.228 316.41 93.451 321.504 94.459 326.639 95.229 331.964 95.775 336.951 96.057 342.098 96.119 347.21 95.951 352.266 95.557 357.259 94.942 357.26 94.942 362.173 94.11 362.175 94.11 365.834 93.318 365.836 93.318 370.362 92.121 370.363 92.121 370.362 92.121 374.768 90.737 379.043 89.173 383.17 87.441 387.135 85.552 386.961 85.649 387.133 85.554 387.135 85.552 389.445 84.313 392.448 82.506 392.452 82.504 392.448 82.506 395.768 80.276 398.901 77.933 398.903 77.931 400.062 76.967 402.262 74.932 404.734 72.384 404.736 72.382 405.418 71.596 409.257 66.096 409.308 66.013 409.295 66.059 409.357 65.957 409.33 65.934 409.802 64.854 410.561 63.12 410.937 62.259"/>
        <polyline class="Solid-Black-Thick-Line" points="404.832 72.354 405.418 71.596 406.826 69.78 408.434 67.44 408.313 67.637 409.717 64.967 409.718 64.963 410.937 62.259 413.004 58.859 415.518 55.756 418.458 52.976 421.805 50.536 425.529 48.46 429.611 46.758 434.01 45.446 438.705 44.532 443.648 44.025 448.817 43.927 454.158 44.24 459.646 44.962 465.225 46.085 471.05 47.661 476.524 49.509 473.314 54.784 469.78 59.915 465.918 64.903 461.748 69.724 457.287 74.357 452.546 78.794 447.522 83.036 442.238 87.064 436.714 90.862 430.966 94.42 424.991 97.74 418.812 100.807 414.42 102.743"/>
      </g>
    </g>
  </g>
</svg>
