<svg xmlns="http://www.w3.org/2000/svg" xmlns:xlink="http://www.w3.org/1999/xlink" width="170.07mm" height="70mm" viewBox="0 0 482.087 198.425">
  <defs>
    <style>
      .cls-1 {
        fill: #fff;
        stroke: #2a4d9c;
        stroke-miterlimit: 10;
      }

      .cls-2 {
        fill: #3f82c4;
      }

      .cls-3, .cls-5, .cls-6, .cls-7 {
        fill: #1d1d1b;
      }

      .cls-4, .cls-8, .cls-9 {
        fill: #b2b2b2;
      }

      .cls-5, .cls-6, .cls-8 {
        font-size: 12px;
      }

      .cls-5, .cls-7, .cls-9 {
        font-family: TimesNewRomanPS-ItalicMT, Times New Roman;
        font-style: italic;
      }

      .cls-6, .cls-8 {
        font-family: TimesNewRomanPS-BoldMT, Times New Roman;
        font-weight: 700;
      }

      .cls-7, .cls-9 {
        font-size: 9px;
      }
    </style>
    <symbol id="Blue_Point" data-name="Blue Point" viewBox="0 0 5.201 5.201">
      <circle class="cls-1" cx="2.601" cy="2.601" r="2.101"/>
    </symbol>
  </defs>
  <title>Diagram-ParallelTransportMethod</title>
  <g id="Diagram_Parallel_Transport" data-name="Diagram Parallel Transport">
    <g id="PerpGs_copia" data-name="PerpGs copia">
      <g>
        <path class="cls-2" d="M86.44,182.2c-4.013-10.444-7.827-20.959-11.656-31.469l-5.612-15.811-5.526-15.841L41.511,55.725l.094-.033,22.8,63.121,5.7,15.778L75.726,150.4c3.659,10.571,7.334,21.135,10.808,31.77Z"/>
        <path class="cls-2" d="M172.275,168.217c-2.2-11.65-4.2-23.335-6.208-35.017l-2.877-17.545L160.4,98.094,149.22,27.858l.1-.016,11.873,70.123,2.975,17.529,2.887,17.544c1.832,11.712,3.681,23.42,5.32,35.163Z"/>
        <path class="cls-2" d="M215.05,163.688c-1.074-11.84-1.936-23.694-2.816-35.547l-1.178-17.788-1.088-17.795-4.384-71.177.1-.007,5.082,71.131,1.278,17.782,1.188,17.788c.7,11.865,1.414,23.729,1.918,35.607Z"/>
        <path class="cls-2" d="M256.109,161.183c.139-11.734.491-23.461.825-35.189l.642-17.585.733-17.583,2.9-70.332.1,0-2.2,70.358-.542,17.589-.633,17.587c-.516,11.721-1.014,23.442-1.725,35.156Z"/>
        <path class="cls-2" d="M299.814,163.678c1.3-11.561,2.81-23.093,4.3-34.627l2.379-17.283,2.468-17.27,9.844-69.085.1.013-9.15,69.181-2.28,17.3-2.37,17.284c-1.672,11.509-3.328,23.022-5.194,34.5Z"/>
        <path class="cls-2" d="M342.207,171.174c2.374-11.356,4.955-22.664,7.519-33.975l3.984-16.935,4.071-16.914,16.254-67.664.1.023-15.574,67.824-3.886,16.957L350.7,137.427c-2.741,11.27-5.465,22.544-8.395,33.769Z"/>
        <path class="cls-2" d="M385.658,177.42c3.228-10.637,6.658-21.207,10.07-31.783l5.254-15.819,5.339-15.791,21.326-63.173.1.031L407.08,114.279l-5.159,15.85-5.243,15.823c-3.586,10.518-7.154,21.043-10.925,31.5Z"/>
        <path class="cls-2" d="M130.382,177.449c-3.261-11.43-6.316-22.912-9.389-34.391l-4.472-17.253-4.385-17.275L94.567,39.435l.1-.025,18.246,68.919,4.569,17.228,4.482,17.25c2.9,11.524,5.81,23.044,8.518,34.616Z"/>
      </g>
    </g>
    <g id="MainG_copia" data-name="MainG copia">
      <path class="cls-3" d="M74.873,149.492a526.29,526.29,0,0,1,87.744-23.083,462.521,462.521,0,0,1,180.505,4.323,527.819,527.819,0,0,1,86.521,27.2,527.432,527.432,0,0,0-86.653-26.593,486.881,486.881,0,0,0-89.924-10.786,478.019,478.019,0,0,0-90.306,6.7,525.476,525.476,0,0,0-87.688,22.8Z"/>
    </g>
    <g id="Arrows_copia" data-name="Arrows copia">
      <g>
        <path class="cls-3" d="M74.754,149.9,61.006,112.143a.546.546,0,1,1,1.026-.373l0,.008,13.156,37.966a.232.232,0,0,1-.437.155Z"/>
        <polygon class="cls-3" points="65.641 115.691 65.002 116.218 61.548 112.037 61.506 117.46 60.678 117.454 60.737 109.756 65.641 115.691"/>
      </g>
      <g>
        <path class="cls-4" d="M119.423,136.218l-.343-.94a.239.239,0,0,1,.45-.163l0,0,.327.945a.231.231,0,0,1-.436.155Z"/>
        <path class="cls-4" d="M118.738,134.339l-.342-.94a.255.255,0,1,1,.479-.175l0,0,.327.945a.247.247,0,0,1-.466.166Z"/>
        <path class="cls-4" d="M118.054,132.459l-.342-.939a.271.271,0,0,1,.509-.186v0l.327.945a.263.263,0,0,1-.5.176Z"/>
        <path class="cls-4" d="M117.37,130.58l-.343-.94a.287.287,0,0,1,.539-.2v.005l.328.945a.278.278,0,0,1-.525.186Z"/>
        <path class="cls-4" d="M116.685,128.7l-.342-.94a.3.3,0,0,1,.568-.207v0l.328.945a.294.294,0,0,1-.555.2Z"/>
        <path class="cls-4" d="M116,126.821l-.342-.939a.318.318,0,1,1,.6-.218v0l.328.945a.31.31,0,0,1-.584.207Z"/>
        <path class="cls-4" d="M115.316,124.942l-.342-.94a.334.334,0,0,1,.627-.228l0,0,.327.945a.326.326,0,0,1-.614.218Z"/>
        <path class="cls-4" d="M114.632,123.063l-.342-.94a.349.349,0,0,1,.656-.239l0,0,.327.945a.341.341,0,0,1-.643.229Z"/>
        <path class="cls-4" d="M113.948,121.183l-.342-.939a.365.365,0,1,1,.685-.25l0,0,.327.945a.357.357,0,0,1-.672.239Z"/>
        <path class="cls-4" d="M113.263,119.3l-.342-.94a.38.38,0,0,1,.715-.26l0,.006.328.945a.373.373,0,0,1-.7.249Z"/>
        <path class="cls-4" d="M112.579,117.425l-.342-.94a.4.4,0,1,1,.744-.271l0,.006.328.945a.388.388,0,0,1-.732.26Z"/>
        <path class="cls-4" d="M111.9,115.545l-.342-.939a.411.411,0,1,1,.773-.282l0,.006.328.945a.4.4,0,0,1-.761.27Z"/>
        <path class="cls-4" d="M111.21,113.666l-.342-.94a.427.427,0,0,1,.8-.292l0,.006.327.945a.42.42,0,0,1-.791.281Z"/>
        <path class="cls-4" d="M110.526,111.787l-.342-.94a.443.443,0,1,1,.832-.3l0,.006.327.945a.435.435,0,0,1-.82.292Z"/>
        <path class="cls-4" d="M109.842,109.907l-.342-.939a.459.459,0,1,1,.862-.314l0,.007.327.944a.451.451,0,0,1-.849.3Z"/>
        <path class="cls-4" d="M109.157,108.028l-.342-.94a.475.475,0,1,1,.892-.324l0,.007.328.945a.467.467,0,0,1-.88.312Z"/>
        <path class="cls-4" d="M108.473,106.149l-.342-.94a.49.49,0,1,1,.921-.335l0,.007.328.945a.482.482,0,0,1-.909.323Z"/>
        <path class="cls-4" d="M107.789,104.269l-.342-.939a.506.506,0,1,1,.95-.346l0,.007.328.945a.5.5,0,0,1-.938.333Z"/>
        <path class="cls-4" d="M107.1,102.39l-.342-.94a.521.521,0,1,1,.98-.356l0,.007.327.945a.514.514,0,0,1-.968.344Z"/>
        <path class="cls-4" d="M106.42,100.511l-.342-.94a.537.537,0,0,1,1.009-.368l0,.008.327.945a.529.529,0,0,1-1,.355Z"/>
        <path class="cls-4" d="M105.736,98.631l-.062-.168a.546.546,0,0,1,1.027-.374l0,.008.058.169a.545.545,0,0,1-1.026.365Z"/>
        <polygon class="cls-4" points="110.31 102.011 109.671 102.539 106.216 98.356 106.174 103.781 105.347 103.775 105.405 96.075 110.31 102.011"/>
      </g>
      <g>
        <path class="cls-3" d="M119.464,136.1l-10.4-38.813A.546.546,0,1,1,110.12,97l0,.008,9.789,38.97a.232.232,0,0,1-.448.117Z"/>
        <polygon class="cls-3" points="113.373 101.222 112.69 101.692 109.614 97.224 109.099 102.624 108.275 102.545 109.006 94.881 113.373 101.222"/>
      </g>
      <g>
        <path class="cls-4" d="M165.239,126.432l-.259-.966a.24.24,0,0,1,.463-.124v0l.243.97a.231.231,0,0,1-.448.116Z"/>
        <path class="cls-4" d="M164.721,124.5l-.258-.966a.255.255,0,1,1,.492-.132v0l.244.97a.247.247,0,0,1-.479.124Z"/>
        <path class="cls-4" d="M164.2,122.568l-.259-.966a.271.271,0,0,1,.523-.14v0l.244.97a.263.263,0,0,1-.509.132Z"/>
        <path class="cls-4" d="M163.686,120.636l-.259-.966a.287.287,0,1,1,.554-.148v0l.243.97a.278.278,0,0,1-.539.14Z"/>
        <path class="cls-4" d="M163.169,118.7l-.259-.966a.3.3,0,1,1,.583-.156l0,.005.243.969a.294.294,0,0,1-.569.148Z"/>
        <path class="cls-4" d="M162.651,116.772l-.259-.966a.318.318,0,1,1,.614-.164v.005l.244.97a.31.31,0,0,1-.6.155Z"/>
        <path class="cls-4" d="M162.133,114.84l-.258-.966a.333.333,0,1,1,.644-.172v0l.244.97a.326.326,0,0,1-.631.163Z"/>
        <path class="cls-4" d="M161.616,112.909l-.259-.966a.349.349,0,1,1,.674-.181l0,0,.243.97a.341.341,0,0,1-.66.172Z"/>
        <path class="cls-4" d="M161.1,110.977l-.259-.966a.365.365,0,1,1,.705-.189v0l.244.97a.357.357,0,0,1-.691.18Z"/>
        <path class="cls-4" d="M160.581,109.045l-.259-.966a.38.38,0,1,1,.735-.2v.006l.244.97a.372.372,0,0,1-.721.187Z"/>
        <path class="cls-4" d="M160.063,107.113l-.259-.966a.4.4,0,1,1,.765-.205l0,.006.243.97a.388.388,0,0,1-.751.195Z"/>
        <path class="cls-4" d="M159.545,105.181l-.258-.966a.412.412,0,0,1,.795-.213v.006l.244.97a.4.4,0,0,1-.782.2Z"/>
        <path class="cls-4" d="M159.028,103.249l-.259-.966a.428.428,0,0,1,.826-.221v.006l.244.97a.419.419,0,0,1-.812.211Z"/>
        <path class="cls-4" d="M158.51,101.317l-.259-.966a.443.443,0,1,1,.856-.229l0,.007.244.969a.436.436,0,0,1-.843.219Z"/>
        <path class="cls-4" d="M157.993,99.385l-.259-.966a.459.459,0,1,1,.886-.237l0,.007.243.97a.45.45,0,0,1-.872.226Z"/>
        <path class="cls-4" d="M157.475,97.453l-.259-.966a.474.474,0,1,1,.916-.245l0,.007.244.97a.466.466,0,0,1-.9.234Z"/>
        <path class="cls-4" d="M156.957,95.521l-.258-.966a.49.49,0,1,1,.946-.253l0,.007.244.97a.482.482,0,0,1-.934.242Z"/>
        <path class="cls-4" d="M156.44,93.589l-.259-.966a.506.506,0,1,1,.977-.261l0,.007.243.97a.5.5,0,0,1-.963.25Z"/>
        <path class="cls-4" d="M155.922,91.657l-.259-.966a.521.521,0,0,1,1.007-.269l0,.008.244.969a.513.513,0,0,1-.994.258Z"/>
        <path class="cls-4" d="M155.4,89.725l-.258-.965a.537.537,0,1,1,1.037-.278l0,.008.244.97a.529.529,0,0,1-1.025.265Z"/>
        <path class="cls-4" d="M154.887,87.794l-.047-.174a.547.547,0,0,1,1.056-.282l0,.008.043.174a.545.545,0,0,1-1.054.274Z"/>
        <polygon class="cls-4" points="159.149 91.56 158.466 92.03 155.389 87.561 154.874 92.962 154.05 92.883 154.781 85.218 159.149 91.56"/>
      </g>
      <g>
        <path class="cls-3" d="M165.235,126.411,158.4,86.805a.546.546,0,0,1,1.077-.186v.009l6.214,39.708a.232.232,0,0,1-.457.075Z"/>
        <polygon class="cls-3" points="162.332 91.118 161.61 91.524 158.952 86.796 157.949 92.126 157.136 91.973 158.559 84.408 162.332 91.118"/>
      </g>
      <g>
        <path class="cls-4" d="M211.74,120.907l-.17-.986a.239.239,0,0,1,.472-.081v0l.154.989a.232.232,0,0,1-.457.075Z"/>
        <path class="cls-4" d="M211.4,118.936l-.17-.986a.255.255,0,1,1,.5-.086v0l.155.988a.247.247,0,0,1-.488.08Z"/>
        <path class="cls-4" d="M211.06,116.965l-.17-.986a.271.271,0,0,1,.534-.092v0l.155.988a.263.263,0,0,1-.519.086Z"/>
        <path class="cls-4" d="M210.72,114.994l-.17-.986a.286.286,0,1,1,.564-.1v0l.155.988a.279.279,0,0,1-.55.09Z"/>
        <path class="cls-4" d="M210.38,113.023l-.17-.985a.3.3,0,1,1,.595-.1v0l.154.988a.294.294,0,0,1-.58.1Z"/>
        <path class="cls-4" d="M210.04,111.052l-.17-.985a.318.318,0,1,1,.626-.108v0l.154.988a.31.31,0,0,1-.611.1Z"/>
        <path class="cls-4" d="M209.7,109.081l-.171-.985a.334.334,0,1,1,.658-.114v0l.155.988a.325.325,0,0,1-.642.106Z"/>
        <path class="cls-4" d="M209.359,107.11l-.17-.985a.349.349,0,1,1,.688-.119v0l.155.988a.342.342,0,0,1-.674.111Z"/>
        <path class="cls-4" d="M209.019,105.139l-.17-.985a.365.365,0,1,1,.719-.124v0l.155.988a.357.357,0,0,1-.7.116Z"/>
        <path class="cls-4" d="M208.679,103.168l-.17-.985a.381.381,0,1,1,.75-.129v0l.154.988a.372.372,0,0,1-.735.121Z"/>
        <path class="cls-4" d="M208.339,101.2l-.17-.985a.4.4,0,0,1,.781-.135v.006l.154.988a.388.388,0,0,1-.766.126Z"/>
        <path class="cls-4" d="M208,99.226l-.17-.985a.411.411,0,1,1,.811-.14v.006l.155.988a.4.4,0,0,1-.8.131Z"/>
        <path class="cls-4" d="M207.659,97.255l-.17-.985a.427.427,0,1,1,.842-.145v.006l.155.988a.42.42,0,0,1-.828.136Z"/>
        <path class="cls-4" d="M207.319,95.285l-.17-.986a.443.443,0,1,1,.873-.15v.006l.155.988a.435.435,0,0,1-.859.142Z"/>
        <path class="cls-4" d="M206.979,93.314l-.17-.986a.459.459,0,1,1,.9-.156v.007l.154.988a.451.451,0,0,1-.889.147Z"/>
        <path class="cls-4" d="M206.639,91.343l-.17-.986a.474.474,0,1,1,.934-.161l0,.007.154.988a.466.466,0,0,1-.92.152Z"/>
        <path class="cls-4" d="M206.3,89.372l-.17-.986a.49.49,0,1,1,.965-.166v.007l.155.988a.482.482,0,0,1-.951.157Z"/>
        <path class="cls-4" d="M205.958,87.4l-.17-.986a.506.506,0,1,1,1-.171v.007l.155.988a.5.5,0,0,1-.983.162Z"/>
        <path class="cls-4" d="M205.618,85.43l-.17-.986a.522.522,0,0,1,1.028-.177v.008l.155.988a.514.514,0,0,1-1.014.167Z"/>
        <path class="cls-4" d="M205.278,83.459l-.17-.986a.537.537,0,0,1,1.058-.182l0,.008.154.988a.529.529,0,0,1-1.044.172Z"/>
        <path class="cls-4" d="M204.938,81.488l-.032-.187a.546.546,0,1,1,1.076-.186l0,.009.029.187a.545.545,0,0,1-1.075.177Z"/>
        <polygon class="cls-4" points="208.839 85.615 208.116 86.021 205.458 81.292 204.455 86.624 203.641 86.471 205.065 78.903 208.839 85.615"/>
      </g>
      <g>
        <path class="cls-3" d="M212.027,120.972l-2.983-40.095a.547.547,0,0,1,1.09-.081V80.8l2.355,40.137a.232.232,0,0,1-.462.031Z"/>
        <polygon class="cls-3" points="212.542 85.549 211.784 85.884 209.595 80.921 208.082 86.13 207.287 85.899 209.434 78.506 212.542 85.549"/>
      </g>
      <g>
        <path class="cls-4" d="M257.339,120.453l-.074-1a.24.24,0,1,1,.478-.036v0l.058,1a.232.232,0,0,1-.462.031Z"/>
        <path class="cls-4" d="M257.191,118.458l-.074-1a.255.255,0,1,1,.508-.038v0l.058,1a.247.247,0,0,1-.493.032Z"/>
        <path class="cls-4" d="M257.042,116.464l-.074-1a.271.271,0,1,1,.54-.041v0l.058,1a.263.263,0,0,1-.525.035Z"/>
        <path class="cls-4" d="M256.894,114.469l-.074-1a.286.286,0,1,1,.571-.042v0l.059,1a.279.279,0,0,1-.556.037Z"/>
        <path class="cls-4" d="M256.746,112.475l-.074-1a.3.3,0,1,1,.6-.045v0l.059,1a.294.294,0,0,1-.587.039Z"/>
        <path class="cls-4" d="M256.6,110.48l-.074-1a.318.318,0,0,1,.634-.047v0l.059,1a.31.31,0,0,1-.619.041Z"/>
        <path class="cls-4" d="M256.449,108.486l-.074-1a.333.333,0,1,1,.665-.049v.005l.059,1a.326.326,0,0,1-.65.044Z"/>
        <path class="cls-4" d="M256.3,106.491l-.074-1a.349.349,0,1,1,.7-.052v.005l.059,1a.341.341,0,0,1-.681.045Z"/>
        <path class="cls-4" d="M256.152,104.5l-.074-1a.365.365,0,0,1,.727-.054v.006l.058,1a.357.357,0,0,1-.712.048Z"/>
        <path class="cls-4" d="M256,102.5l-.074-1a.38.38,0,1,1,.758-.057v.006l.058,1a.372.372,0,0,1-.743.049Z"/>
        <path class="cls-4" d="M255.856,100.507l-.075-1a.4.4,0,1,1,.79-.058v.006l.058,1a.388.388,0,0,1-.774.051Z"/>
        <path class="cls-4" d="M255.707,98.513l-.074-1a.412.412,0,1,1,.821-.061v.006l.059,1a.4.4,0,0,1-.806.054Z"/>
        <path class="cls-4" d="M255.559,96.518l-.074-1a.427.427,0,1,1,.852-.063v.006l.059,1a.419.419,0,0,1-.837.055Z"/>
        <path class="cls-4" d="M255.411,94.524l-.075-1a.443.443,0,0,1,.884-.066v.007l.059,1a.435.435,0,0,1-.868.058Z"/>
        <path class="cls-4" d="M255.262,92.529l-.074-1a.459.459,0,0,1,.915-.068v.007l.059,1a.451.451,0,0,1-.9.06Z"/>
        <path class="cls-4" d="M255.114,90.535l-.074-1a.474.474,0,1,1,.946-.07v.007l.059,1a.467.467,0,0,1-.931.062Z"/>
        <path class="cls-4" d="M254.966,88.54l-.075-1a.49.49,0,0,1,.977-.073v.008l.058,1a.482.482,0,0,1-.961.064Z"/>
        <path class="cls-4" d="M254.817,86.546l-.074-1a.505.505,0,0,1,1.008-.075v.008l.058,1a.5.5,0,0,1-.993.066Z"/>
        <path class="cls-4" d="M254.669,84.551l-.074-1a.521.521,0,1,1,1.039-.078v.009l.058,1a.513.513,0,0,1-1.024.068Z"/>
        <path class="cls-4" d="M254.521,82.556l-.075-1a.537.537,0,0,1,1.071-.079v.008l.058,1a.529.529,0,0,1-1.055.07Z"/>
        <path class="cls-4" d="M254.372,80.562l-.015-.2a.546.546,0,0,1,1.089-.081v.008l.012.2a.545.545,0,0,1-1.087.072Z"/>
        <polygon class="cls-4" points="257.855 85.033 257.097 85.367 254.907 80.403 253.394 85.613 252.599 85.383 254.747 77.988 257.855 85.033"/>
      </g>
      <g>
        <path class="cls-3" d="M257.412,120.207l1.142-40.175a.546.546,0,1,1,1.092.031v.008l-1.77,40.152a.232.232,0,0,1-.463-.016Z"/>
        <polygon class="cls-3" points="261.554 85.038 260.766 85.293 259.097 80.132 257.058 85.158 256.291 84.847 259.184 77.713 261.554 85.038"/>
      </g>
      <g>
        <path class="cls-4" d="M304.679,124.684l.028-1a.24.24,0,1,1,.479.014v0l-.044,1a.232.232,0,0,1-.463-.016Z"/>
        <path class="cls-4" d="M304.736,122.684l.028-1a.255.255,0,1,1,.51.014v0l-.044,1a.247.247,0,0,1-.494-.018Z"/>
        <path class="cls-4" d="M304.792,120.685l.029-1a.271.271,0,0,1,.541.015v0l-.044,1a.263.263,0,0,1-.526-.019Z"/>
        <path class="cls-4" d="M304.849,118.686l.029-1a.286.286,0,1,1,.572.016v0l-.044,1a.279.279,0,0,1-.557-.02Z"/>
        <path class="cls-4" d="M304.906,116.687l.028-1a.3.3,0,0,1,.6.017v.005l-.044,1a.294.294,0,0,1-.588-.021Z"/>
        <path class="cls-4" d="M304.963,114.687l.028-1a.318.318,0,1,1,.635.018v0l-.044,1a.31.31,0,0,1-.619-.023Z"/>
        <path class="cls-4" d="M305.02,112.688l.028-1a.333.333,0,0,1,.666.019v.006l-.044,1a.325.325,0,0,1-.65-.024Z"/>
        <path class="cls-4" d="M305.076,110.689l.029-1a.349.349,0,1,1,.7.02v0l-.044,1a.341.341,0,0,1-.682-.025Z"/>
        <path class="cls-4" d="M305.133,108.69l.029-1a.365.365,0,0,1,.729.021v0l-.044,1a.357.357,0,0,1-.713-.025Z"/>
        <path class="cls-4" d="M305.19,106.69l.028-1a.381.381,0,0,1,.761.021v.006l-.045,1a.372.372,0,0,1-.744-.027Z"/>
        <path class="cls-4" d="M305.247,104.691l.028-1a.4.4,0,0,1,.792.022v.006l-.044,1a.388.388,0,0,1-.776-.028Z"/>
        <path class="cls-4" d="M305.3,102.692l.028-1a.412.412,0,1,1,.823.024v.006l-.044,1a.4.4,0,0,1-.807-.029Z"/>
        <path class="cls-4" d="M305.36,100.693l.029-1a.427.427,0,0,1,.854.024v.007l-.044,1a.42.42,0,0,1-.839-.03Z"/>
        <path class="cls-4" d="M305.417,98.693l.029-1a.443.443,0,0,1,.885.025v.007l-.044,1a.435.435,0,0,1-.87-.032Z"/>
        <path class="cls-4" d="M305.474,96.694l.028-1a.459.459,0,0,1,.917.026v.008l-.044,1a.451.451,0,0,1-.9-.033Z"/>
        <path class="cls-4" d="M305.531,94.7l.028-1a.474.474,0,0,1,.948.027v.008l-.044,1a.466.466,0,0,1-.932-.034Z"/>
        <path class="cls-4" d="M305.588,92.7l.028-1a.49.49,0,1,1,.979.028v.007l-.044,1a.482.482,0,0,1-.963-.034Z"/>
        <path class="cls-4" d="M305.644,90.7l.029-1a.506.506,0,0,1,1.011.028v.008l-.044,1a.5.5,0,0,1-1-.036Z"/>
        <path class="cls-4" d="M305.7,88.7l.029-1a.521.521,0,0,1,1.042.03v.008l-.044,1A.513.513,0,0,1,305.7,88.7Z"/>
        <path class="cls-4" d="M305.758,86.7l.028-1a.537.537,0,0,1,1.074.031v.008l-.044,1a.529.529,0,0,1-1.057-.038Z"/>
        <path class="cls-4" d="M305.815,84.7l0-.19a.546.546,0,0,1,1.092.031v.009l-.008.189a.545.545,0,0,1-1.089-.039Z"/>
        <polygon class="cls-4" points="308.821 89.517 308.033 89.772 306.363 84.61 304.324 89.637 303.557 89.326 306.451 82.19 308.821 89.517"/>
      </g>
      <g>
        <path class="cls-3" d="M305.043,124.281,310.2,84.424a.546.546,0,1,1,1.083.14v.008L305.5,124.344a.232.232,0,0,1-.459-.063Z"/>
        <polygon class="cls-3" points="312.684 89.705 311.875 89.88 310.731 84.578 308.199 89.375 307.467 88.989 311.06 82.18 312.684 89.705"/>
      </g>
      <g>
        <path class="cls-4" d="M351,132.721l.128-.992a.24.24,0,0,1,.475.062v0l-.144.989a.232.232,0,0,1-.459-.063Z"/>
        <path class="cls-4" d="M351.256,130.738l.129-.992a.255.255,0,0,1,.506.065v0l-.144.99a.247.247,0,0,1-.49-.067Z"/>
        <path class="cls-4" d="M351.513,128.754l.128-.992a.271.271,0,0,1,.538.07v0l-.144.99a.263.263,0,0,1-.521-.072Z"/>
        <path class="cls-4" d="M351.77,126.771l.128-.992a.286.286,0,1,1,.568.073v0l-.144.989a.279.279,0,0,1-.552-.075Z"/>
        <path class="cls-4" d="M352.026,124.787l.129-.992a.3.3,0,0,1,.6.078v0l-.144.989a.294.294,0,0,1-.583-.08Z"/>
        <path class="cls-4" d="M352.283,122.8l.128-.992a.318.318,0,0,1,.631.081v0l-.144.99a.31.31,0,0,1-.614-.084Z"/>
        <path class="cls-4" d="M352.54,120.82l.128-.992a.333.333,0,1,1,.661.086v0l-.144.99a.326.326,0,0,1-.645-.089Z"/>
        <path class="cls-4" d="M352.8,118.837l.128-.992a.349.349,0,1,1,.692.089v.006l-.143.989a.341.341,0,0,1-.676-.092Z"/>
        <path class="cls-4" d="M353.053,116.853l.129-.992a.365.365,0,1,1,.723.094v0l-.144.99a.357.357,0,0,1-.707-.1Z"/>
        <path class="cls-4" d="M353.31,114.869l.128-.991a.381.381,0,0,1,.755.1v.006l-.144.99a.373.373,0,0,1-.738-.1Z"/>
        <path class="cls-4" d="M353.567,112.886l.128-.992a.4.4,0,1,1,.785.1V112l-.144.99a.388.388,0,0,1-.769-.106Z"/>
        <path class="cls-4" d="M353.823,110.9l.129-.991a.411.411,0,1,1,.816.105v.007l-.144.989a.4.4,0,0,1-.8-.11Z"/>
        <path class="cls-4" d="M354.08,108.919l.128-.992a.428.428,0,0,1,.848.11v.006l-.144.99a.419.419,0,0,1-.831-.114Z"/>
        <path class="cls-4" d="M354.337,106.935l.128-.991a.443.443,0,1,1,.879.113v.007l-.144.99a.435.435,0,0,1-.862-.119Z"/>
        <path class="cls-4" d="M354.593,104.952l.129-.992a.458.458,0,1,1,.909.118v.007l-.144.99a.451.451,0,0,1-.893-.123Z"/>
        <path class="cls-4" d="M354.85,102.968l.128-.991a.474.474,0,1,1,.941.121v.008l-.144.989a.466.466,0,0,1-.924-.127Z"/>
        <path class="cls-4" d="M355.107,100.985l.128-.992a.49.49,0,0,1,.972.126v.007l-.144.99a.482.482,0,0,1-.955-.131Z"/>
        <path class="cls-4" d="M355.363,99l.129-.991a.505.505,0,1,1,1,.129v.008l-.143.99a.5.5,0,0,1-.987-.136Z"/>
        <path class="cls-4" d="M355.62,97.018l.128-.992a.521.521,0,1,1,1.034.134v.008l-.144.989a.513.513,0,0,1-1.017-.139Z"/>
        <path class="cls-4" d="M355.877,95.034l.128-.992a.537.537,0,0,1,1.065.138v.009l-.144.989a.529.529,0,0,1-1.048-.144Z"/>
        <path class="cls-4" d="M356.133,93.051l.024-.186a.547.547,0,0,1,1.084.14v.009l-.027.185a.545.545,0,0,1-1.08-.148Z"/>
        <polygon class="cls-4" points="358.642 98.148 357.832 98.322 356.687 93.019 354.155 97.817 353.423 97.431 357.017 90.621 358.642 98.148"/>
      </g>
      <g>
        <path class="cls-3" d="M351.031,132.821l8.892-39.229a.546.546,0,1,1,1.065.242l0,.008-9.5,39.084a.231.231,0,0,1-.45-.1Z"/>
        <polygon class="cls-3" points="361.899 99.084 361.076 99.181 360.436 93.796 357.465 98.333 356.772 97.88 360.989 91.439 361.899 99.084"/>
      </g>
      <g>
        <path class="cls-4" d="M395.829,145.418l.222-.975a.239.239,0,1,1,.467.106v0l-.237.972a.23.23,0,0,1-.279.17A.233.233,0,0,1,395.829,145.418Z"/>
        <path class="cls-4" d="M396.272,143.468l.221-.976a.255.255,0,0,1,.5.113v0l-.236.972a.247.247,0,0,1-.481-.113Z"/>
        <path class="cls-4" d="M396.714,141.517l.221-.975a.271.271,0,0,1,.528.119v0l-.236.971a.263.263,0,0,1-.512-.12Z"/>
        <path class="cls-4" d="M397.156,139.566l.221-.975a.287.287,0,0,1,.559.127v0l-.237.972a.278.278,0,0,1-.542-.128Z"/>
        <path class="cls-4" d="M397.6,137.616l.221-.975a.3.3,0,1,1,.589.133v0l-.236.971a.294.294,0,0,1-.573-.134Z"/>
        <path class="cls-4" d="M398.04,135.665l.221-.975a.318.318,0,1,1,.62.14v0l-.236.972a.31.31,0,0,1-.6-.142Z"/>
        <path class="cls-4" d="M398.482,133.715l.222-.976a.333.333,0,0,1,.65.148l0,0-.236.972a.326.326,0,0,1-.634-.149Z"/>
        <path class="cls-4" d="M398.925,131.764l.221-.975a.349.349,0,0,1,.68.154v0l-.236.972a.341.341,0,0,1-.664-.156Z"/>
        <path class="cls-4" d="M399.367,129.814l.221-.976a.365.365,0,0,1,.711.161v.006l-.237.972a.356.356,0,0,1-.694-.163Z"/>
        <path class="cls-4" d="M399.809,127.863l.221-.975a.38.38,0,1,1,.742.168l0,.006-.236.971a.372.372,0,0,1-.725-.17Z"/>
        <path class="cls-4" d="M400.251,125.912l.221-.975a.4.4,0,0,1,.772.175v.006l-.236.972a.388.388,0,0,1-.756-.178Z"/>
        <path class="cls-4" d="M400.693,123.962l.221-.975a.412.412,0,1,1,.8.181l0,.007-.236.971a.4.4,0,0,1-.786-.184Z"/>
        <path class="cls-4" d="M401.135,122.011l.221-.975a.428.428,0,0,1,.834.189l0,.006-.236.972a.42.42,0,0,1-.817-.192Z"/>
        <path class="cls-4" d="M401.577,120.061l.222-.976a.442.442,0,1,1,.863.2v.007l-.237.972a.435.435,0,0,1-.847-.2Z"/>
        <path class="cls-4" d="M402.02,118.11l.221-.975a.458.458,0,1,1,.894.2l0,.006-.236.972a.45.45,0,0,1-.877-.206Z"/>
        <path class="cls-4" d="M402.462,116.16l.221-.976a.474.474,0,0,1,.925.21l0,.007-.236.972a.466.466,0,0,1-.908-.213Z"/>
        <path class="cls-4" d="M402.9,114.209l.221-.975a.49.49,0,1,1,.955.216v.008l-.237.971a.482.482,0,0,1-.938-.22Z"/>
        <path class="cls-4" d="M403.346,112.258l.221-.975a.506.506,0,0,1,.986.224l0,.007-.236.972a.5.5,0,0,1-.969-.228Z"/>
        <path class="cls-4" d="M403.788,110.308l.221-.975a.521.521,0,0,1,1.017.23l0,.008-.237.971a.513.513,0,0,1-1-.234Z"/>
        <path class="cls-4" d="M404.23,108.357l.222-.975a.536.536,0,1,1,1.046.237l0,.008-.236.972a.529.529,0,0,1-1.03-.242Z"/>
        <path class="cls-4" d="M404.673,106.407l.049-.217a.546.546,0,1,1,1.065.242l0,.008-.052.216a.544.544,0,0,1-1.06-.249Z"/>
        <polygon class="cls-4" points="406.698 111.684 405.875 111.781 405.235 106.394 402.263 110.933 401.57 110.479 405.789 104.037 406.698 111.684"/>
      </g>
      <g>
        <path class="cls-3" d="M396.043,145.54,408.4,107.3a.546.546,0,0,1,1.039.336l0,.008-12.953,38.047a.232.232,0,0,1-.44-.146Z"/>
        <polygon class="cls-3" points="409.877 112.942 409.048 112.965 408.893 107.544 405.527 111.797 404.878 111.284 409.655 105.247 409.877 112.942"/>
      </g>
      <use width="5.201" height="5.201" transform="translate(393.871 143.084)" xlink:href="#Blue_Point"/>
      <use width="5.201" height="5.201" transform="translate(349.045 130.366)" xlink:href="#Blue_Point"/>
      <use width="5.201" height="5.201" transform="translate(302.838 121.705)" xlink:href="#Blue_Point"/>
      <use width="5.201" height="5.201" transform="translate(255.04 117.688)" xlink:href="#Blue_Point"/>
      <use width="5.201" height="5.201" transform="translate(209.65 118.252)" xlink:href="#Blue_Point"/>
      <use width="5.201" height="5.201" transform="translate(162.863 123.773)" xlink:href="#Blue_Point"/>
      <use width="5.201" height="5.201" transform="translate(117.014 133.153)" xlink:href="#Blue_Point"/>
      <use width="5.201" height="5.201" transform="translate(72.372 147.221)" xlink:href="#Blue_Point"/>
    </g>
    <g id="Text_copia" data-name="Text copia">
      <text class="cls-5" transform="translate(232.425 128.474)">g</text>
      <text class="cls-6" transform="translate(62.014 109.137)">v</text>
      <text class="cls-7" transform="translate(68.014 112.134) scale(0.583)">0</text>
      <text class="cls-6" transform="translate(111.134 94.26)">v</text>
      <text class="cls-7" transform="translate(117.134 97.257) scale(0.583)">1</text>
      <text class="cls-6" transform="translate(161.25 84.564)">v</text>
      <text class="cls-7" transform="translate(167.25 87.561) scale(0.583)">2</text>
      <text class="cls-6" transform="translate(211.962 79.988)">v</text>
      <text class="cls-7" transform="translate(217.962 82.985) scale(0.583)">3</text>
      <text class="cls-6" transform="translate(314.857 85.937)">v</text>
      <text class="cls-7" transform="translate(320.857 88.934) scale(0.583)">5</text>
      <text class="cls-6" transform="translate(364.857 94.552)">v</text>
      <text class="cls-7" transform="translate(370.857 97.549) scale(0.583)">6</text>
      <text class="cls-6" transform="translate(263.25 81.235)">v</text>
      <text class="cls-7" transform="translate(269.25 84.232) scale(0.583)">4</text>
      <text class="cls-8" transform="translate(95.789 105.796)">v</text>
      <text class="cls-9" transform="translate(101.789 108.793) scale(0.583)">0</text>
      <text class="cls-8" transform="translate(145.183 95.334)">v</text>
      <text class="cls-9" transform="translate(151.183 98.331) scale(0.583)">1</text>
      <text class="cls-8" transform="translate(195.192 90.123)">v</text>
      <text class="cls-9" transform="translate(201.192 93.121) scale(0.583)">2</text>
      <text class="cls-8" transform="translate(243.685 88.063)">v</text>
      <text class="cls-9" transform="translate(249.685 91.06) scale(0.583)">3</text>
      <text class="cls-8" transform="translate(344.023 100.552)">v</text>
      <text class="cls-9" transform="translate(350.023 103.549) scale(0.583)">5</text>
      <text class="cls-8" transform="translate(392.299 113.127)">v</text>
      <text class="cls-9" transform="translate(398.299 116.124) scale(0.583)">6</text>
      <text class="cls-8" transform="translate(295.241 91.936)">v</text>
      <text class="cls-9" transform="translate(301.241 94.934) scale(0.583)">4</text>
      <text class="cls-6" transform="translate(412.5 111.687)">v</text>
      <text class="cls-7" transform="translate(418.5 114.684) scale(0.583)">7</text>
      <text class="cls-5" transform="translate(45 59.708)">h</text>
      <text class="cls-7" transform="translate(51 62.705) scale(0.583)">0<tspan x="4.499" y="-10.282">┴</tspan></text>
      <text class="cls-5" transform="translate(61.127 151.922)">p</text>
      <text class="cls-7" transform="translate(67.127 154.919) scale(0.583)">0</text>
      <text class="cls-5" transform="translate(152.667 31.849)">h</text>
      <text class="cls-7" transform="translate(158.667 34.846) scale(0.583)">2<tspan x="4.499" y="-10.282">┴</tspan></text>
      <text class="cls-5" transform="translate(208.517 25.377)">h</text>
      <text class="cls-7" transform="translate(214.517 28.375) scale(0.583)">3<tspan x="4.499" y="-10.282">┴</tspan></text>
      <text class="cls-5" transform="translate(263.25 24.496)">h</text>
      <text class="cls-7" transform="translate(269.25 27.493) scale(0.583)">4<tspan x="4.499" y="-10.282">┴</tspan></text>
      <text class="cls-5" transform="translate(320.849 29.419)">h</text>
      <text class="cls-7" transform="translate(326.849 32.417) scale(0.583)">5<tspan x="4.499" y="-10.282">┴</tspan></text>
      <text class="cls-5" transform="translate(376.076 39.697)">h</text>
      <text class="cls-7" transform="translate(382.076 42.695) scale(0.583)">6<tspan x="4.499" y="-10.282">┴</tspan></text>
      <text class="cls-5" transform="translate(429.686 54.87)">h</text>
      <text class="cls-7" transform="translate(435.686 57.867) scale(0.583)">7<tspan x="4.499" y="-10.282">┴</tspan></text>
      <text class="cls-5" transform="translate(97.333 43.423)">h</text>
      <text class="cls-7" transform="translate(103.333 46.42) scale(0.583)">1<tspan x="4.499" y="-10.282">┴</tspan></text>
    </g>
  </g>
</svg>
