<svg xmlns="http://www.w3.org/2000/svg" viewBox="0 0 481.89 198.43">
  <defs>
    <style>
      .Solid-Black-Thick-Line, .Solid-gray-line {
        fill: none;
      }

      .Solid-gray-line {
        stroke: #b2b2b2;
        stroke-linecap: round;
        stroke-linejoin: round;
        stroke-width: 0.25px;
      }

      .Surface-underlying {
        fill: #e66526;
        opacity: 0.15;
      }

      .Surface-visible {
        fill: #3f82c4;
        opacity: 0.5;
      }

      .cls-1 {
        fill: #fff;
      }

      .cls-2 {
        fill: #c91517;
      }

      .Solid-Black-Thick-Line {
        stroke: #1d1d1b;
        stroke-miterlimit: 10;
        stroke-width: 0.93px;
      }
    </style>
  </defs>
  <title>ParallelTransport-Positive</title>
  <g id="Parallel_Transport_Results_-_Negative" data-name="Parallel Transport Results - Negative">
    <g id="pattern-hidden-3" data-name="pattern-hidden">
      <polyline class="Solid-gray-line" points="57.4 60.4 60.99 58.83 61.31 58.7 64.46 57.45 65.01 57.24 67.74 56.3 68.47 56.05 70.77 55.4"/>
      <polyline class="Solid-gray-line" points="47.26 45.62 47.31 45.61 47.83 45.49 51.45 44.62 51.73 44.55 55.4 43.84 55.98 43.73 59.14 43.27 59.94 43.16 62.65 42.93 63.62 42.84 65.9 42.81 66.98 42.79 68.87 42.93 69.99 43.01 71.55 43.3 72.64 43.5 73.9 43.93 74.89 44.26 75.3 44.48"/>
      <polyline class="Solid-gray-line" points="210.75 77.2 209.06 76.91 208.74 76.89 206.06 76.7 205.12 76.74 203.16 76.83 201.61 77.1 200.42 77.31 198.28 78.02 197.85 78.17 196.9 78.66"/>
      <polyline class="Solid-gray-line" points="214.06 93.8 213.28 93.16 211.46 91.67 210.43 90.92 208.81 89.72 207.5 88.88 206.12 87.97 204.93 87.31 203.41 86.47 202.49 86.05 200.71 85.23 200.09 85.01 198.05 84.3 197.74 84.22 195.55 83.71 195.46 83.69 195.44 83.69 195.15 83.66"/>
      <polyline class="Solid-gray-line" points="73.81 49.63 74.72 47.68 74.82 47.45 74.9 47.18 75.55 44.96 75.61 44.45 75.8 42.59 75.74 41.94 75.58 40.37 75.33 39.65 74.87 38.31 74.42 37.59 73.69 36.43 73.05 35.76 72.06 34.74 71.24 34.16 69.97 33.25 69.04 32.78 67.45 31.97 66.46 31.62 64.51 30.92 63.53 30.68 61.17 30.09 60.28 29.95 57.45 29.5 56.72 29.43 53.38 29.13 52.87 29.12 48.99 29 48.76 29.01 45.76 29.07"/>
      <polyline class="Solid-gray-line" points="114.5 101.48 114.93 100.36 115.68 98.38 116.03 97.46 116.75 95.51 117.46 93.58 117.7 92.91 118.33 91.14 118.52 90.59 119.05 89.04 119.19 88.6 119.6 87.31 119.72 86.96 119.99 85.98 120.07 85.69 120.2 85.04 120.25 84.81 120.25 84.49 120.25 84.36"/>
      <polyline class="Solid-gray-line" points="70.77 55.4 70.81 55.39 71.67 55.14 73.65 54.72 74.58 54.52 76.24 54.32 77.19 54.21 78.56 54.2 79.47 54.19 80.59 54.37 81.39 54.49 82.29 54.84 82.95 55.09 83.64 55.63 84.13 56.01"/>
      <polyline class="Solid-gray-line" points="75.3 44.48 75.9 44.81 76.74 45.28 77.53 45.98 78.17 46.56 78.74 47.43 79.17 48.08"/>
      <polyline class="Solid-gray-line" points="69.62 73.69 72.66 71.59 72.87 71.44 73.12 71.28 75.94 69.45 76.38 69.19 78.81 67.74 79.38 67.44 81.46 66.31 82.1 66.02 83.86 65.2 84.51 64.96 85.99 64.41 86.61 64.26 87.83 63.96 88.37 63.92 89.37 63.85 89.79 63.93 90.58 64.09 90.86 64.28 91.45 64.68"/>
      <polyline class="Solid-gray-line" points="196.9 78.66 196.45 78.89 195.65 79.28 195.49 79.36"/>
      <polyline class="Solid-gray-line" points="195.15 83.66 193.23 83.45 192.88 83.41 191.11 83.48 190.42 83.51 189.1 83.79 188.08 84.01 187.2 84.37 185.89 84.92"/>
      <polyline class="Solid-gray-line" points="97.98 94.07 98.54 93.25 99.93 91.18 101.42 89.01 101.74 88.54 103.2 86.45 103.4 86.16 104.79 84.24 104.9 84.08 106.17 82.39 106.22 82.31 107.33 80.92 107.35 80.89 108.25 79.85 108.26 79.84 108.94 79.18 108.95 79.17 109.38 78.9 109.41 78.89"/>
      <polyline class="Solid-gray-line" points="148.76 108.93 148.58 106.81 148.5 105.78 148.27 103.79 148.16 102.83 147.87 100.98 147.74 100.13 147.39 98.42 147.24 97.69 147.06 97.05 146.66 95.58 146.48 95.09 146.01 93.8 145.84 93.48 145.28 92.4 145.14 92.23 144.47 91.41 144.38 91.34 143.6 90.84 143.57 90.84 143.18 90.79 142.98 90.76"/>
      <polyline class="Solid-gray-line" points="198.85 101.44 198.44 100.94 196.78 98.92 196.24 98.33 194.64 96.58 193.94 95.9 192.47 94.46 191.58 93.7 190.25 92.58 189.16 91.79 188.03 90.98 186.7 90.22 185.81 89.7 185.06 89.38 183.61 88.76 183.11 88.63 181.46 88.19 181.22 88.18 179.56 88.04 179.4 88.03 179.38 88.02 177.65 88.21 177.35 88.24"/>
      <polyline class="Solid-gray-line" points="182.68 106.49 182.65 106.44 181.19 103.68 181.11 103.54 179.63 101.04 179.48 100.82 178.01 98.63 177.77 98.32 176.34 96.47 175.99 96.08 174.64 94.61 174.14 94.16 172.9 93.06 171.84 92.34 171.16 91.88 170.25 91.47 169.42 91.08 168.7 90.93 167.69 90.7 167.19 90.72 166.01 90.75"/>
      <polyline class="Solid-gray-line" points="83.38 85.02 85.89 82.43 85.94 82.38 86.82 81.49 88.34 79.97 88.43 79.89 90.58 77.84 90.76 77.68 92.64 76.01 92.87 75.82 94.47 74.5 94.73 74.32 96.09 73.34 96.34 73.19 97.46 72.53 97.67 72.45 98.58 72.1 98.72 72.09 99.41 72.04 99.5 72.09 99.97 72.38"/>
      <polyline class="Solid-gray-line" points="165.51 108.99 164.71 106.19 164.65 105.97 163.76 103.3 163.71 103.13 162.74 100.62 162.71 100.53 161.66 98.21 161.65 98.19 161.47 97.86 160.55 96.15 159.47 94.57 159.38 94.44 158.33 93.27 158.17 93.1 157.17 92.34 156.91 92.15 155.99 91.77 155.62 91.62 154.8 91.57 154.3 91.54"/>
      <polyline class="Solid-gray-line" points="131.47 106.42 131.69 104.81 131.91 103.24 132.08 101.79 132.26 100.28 132.38 98.99 132.51 97.56 132.59 96.23 132.66 95.13 132.68 93.99 132.7 93.03 132.66 92.1 132.62 91.27 132.52 90.57 132.43 89.89 132.28 89.43 132.11 88.91 131.93 88.68 131.66 88.35"/>
      <polyline class="Solid-gray-line" points="403.67 80.05 405.23 78.69 405.69 78.4 408.07 76.85 409.43 76.2 410.32 75.78"/>
      <polyline class="Solid-gray-line" points="407.86 75.83 408.97 74.53 409.58 73.97 410.97 72.7"/>
      <polyline class="Solid-gray-line" points="397.63 84.52 398.91 83.77 400.26 82.97 402.48 82.08 403.14 81.82 405.6 81.21 406.24 81.05 406.41 81.02 409.51 80.64 409.91 80.63"/>
      <polyline class="Solid-gray-line" points="381.74 92.26 382.59 92.02 384.02 91.62 385.62 91.47 386.44 91.39 388.83 91.56 388.97 91.57 389.47 91.68 391.57 92.13 392.14 92.32 394.27 93.06 395.55 93.66 397.04 94.35 399.05 95.51 399.87 95.99 400.41 96.35 402.75 97.95 402.85 98.03 403.42 98.46 405.28 99.9 405.63 100.17 407.77 102.02 408.61 102.74 410.21 104.25 411.41 105.39"/>
      <polyline class="Solid-gray-line" points="306.42 87.24 306.24 87.24 306.21 87.23 306.02 87.41 305.84 87.55 305.78 87.63 305.33 88.19 304.95 88.78 304.7 89.16 304.36 89.74 303.96 90.43 303.69 90.93 303.14 91.98 302.96 92.34 302.24 93.79 302.17 93.95 301.58 95.22 301.33 95.75 301.3 95.82 300.48 97.7 300.34 98.03 299.59 99.87 299.33 100.5 298.72 102.09 298.39 102.96"/>
      <polyline class="Solid-gray-line" points="327.27 94.86 327.63 95.24 327.64 95.25 327.65 95.27 327.68 95.35 327.92 95.98 328.06 96.74 328.12 97.06 328.2 97.85 328.26 98.48 328.3 99.2 328.35 100.2 328.36 100.78 328.39 102.22 328.39 102.57 328.39 104.48 328.39 104.58 328.38 105.31 328.37 106.75 328.36 106.94 328.33 109.13 328.32 109.68 328.29 111.57 328.27 112.41"/>
      <polyline class="Solid-gray-line" points="338.65 96.83 338.89 96.93 339.44 97.17 339.83 97.57 340.17 97.9 340.37 98.23 340.85 99 340.94 99.22 341.48 100.45 341.49 100.48 341.54 100.61 341.99 101.96 342.07 102.2 342.48 103.65 342.64 104.23 342.95 105.56 343.18 106.54 343.41 107.67 343.7 109.08 343.86 109.98 344.22 111.92 344.31 112.47 344.69 114.76"/>
      <polyline class="Solid-gray-line" points="316.4 91.63 316.4 91.83 316.4 91.99 316.35 92.27 316.27 92.71 316.22 92.97 316.05 93.78 316.01 93.91 315.82 94.72 315.74 95.08 315.73 95.14 315.42 96.49 315.35 96.78 315.05 98.11 314.91 98.69 314.64 99.92 314.44 100.85 314.21 101.92 313.93 103.21 313.75 104.12 313.39 105.85 313.27 106.48 312.88 108.47"/>
      <polyline class="Solid-gray-line" points="350.26 97.49 351.41 97.77 351.45 97.78 351.58 97.86 352.6 98.43 352.84 98.65 353.74 99.47 354.34 100.21 354.88 100.87 355.3 101.52 356 102.61 356.26 103.08 357.11 104.65 357.21 104.88 357.9 106.33 358.16 106.88 358.2 106.97 359.08 109.07 359.27 109.52 360.02 111.48 360.36 112.38 360.93 113.99 361.37 115.25"/>
      <polyline class="Solid-gray-line" points="409.59 73.81 410.92 71.64 411.01 71.48"/>
      <polyline class="Solid-gray-line" points="391.56 88.11 392.25 87.88 394.05 87.25 394.59 87.15 396.81 86.75 398.21 86.71 399.74 86.66 402.06 86.89 402.81 86.96 405.64 87.57 405.99 87.64 406.08 87.67 409.27 88.65 410.2 89.03 410.81 89.28"/>
      <polyline class="Solid-gray-line" points="361.96 96.81 362.65 96.87 363.58 96.96 364.73 97.35 365.23 97.52 366.82 98.43 366.9 98.47 367.2 98.71 368.56 99.77 369.75 100.92 370.25 101.41 371.17 102.48 371.94 103.36 372.62 104.26 373.64 105.62 374.07 106.27 375.34 108.15 375.54 108.48 376.84 110.61 377.04 110.95 377.08 111 378.43 113.41 378.68 113.85"/>
      <polyline class="Solid-gray-line" points="372.61 94.99 372.94 94.92 373.2 94.86 374.14 94.87 375.21 94.85 375.5 94.9 377.28 95.23 378.15 95.54 379.42 96 380.87 96.77 381.62 97.16 383.65 98.54 383.86 98.68 383.99 98.79 384.72 99.39 385.88 100.33 386.11 100.51 387.79 102.09 388.38 102.64 389.72 104.05 390.65 105.04 391.7 106.25 393.02 107.79 393.68 108.63 395.22 110.59"/>
      <polyline class="Solid-gray-line" points="297.53 81.85 297.52 81.85 297.35 81.83 297.04 81.79 296.6 81.97 296.35 82.06 296.15 82.2 295.94 82.34"/>
      <polyline class="Solid-gray-line" points="410.81 89.28 412.63 90.01 414.41 90.89 416.06 91.7 417.14 92.31 419.54 93.69 420.11 94.06 423.17 96.04 423.19 96.06 423.3 96.13 426.05 98.11 426.55 98.47"/>
      <polyline class="Solid-gray-line" points="411.59 70.54 412.81 69.01 413.98 67.54 414.97 66.57 416.77 64.8 417.39 64.32 419.94 62.34 420.06 62.26 420.73 61.85 422.96 60.47 423.42 60.18 426.08 58.88 427.23 58.32 429.41 57.49 431.35 56.76 432.96 56.31 435.76 55.52 436.72 55.34 440.43 54.61 440.68 54.58 442.05 54.42 444.77 54.08 445.3 54.02 448.98 53.81 450.34 53.73 453.34 53.76 455.56 53.77 457.83 53.92 460.91 54.12 462.48 54.31 466.54 54.8 467.27 54.92 471.88 55.72"/>
      <polyline class="Solid-gray-line" points="410.32 75.78 411.2 75.37 413.63 74.57 414.6 74.25 418.21 73.51 418.23 73.51 418.29 73.5 421.36 73.19 422.05 73.11 424.63 73.09 426.06 73.08 428.04 73.23 430.25 73.39 431.59 73.6 434.58 74.05 435.25 74.2 438.96 75.03 439.03 75.04 439.04 75.04 442.79 76.11 443.54 76.33 446.7 77.42 448.26 77.97 450.57 78.9 452.72 79.78"/>
      <polyline class="Solid-gray-line" points="409.91 80.63 410.64 80.63 412.97 80.61 415.14 80.81 416.6 80.95 419.85 81.56 420.37 81.66 422.4 82.22 424.23 82.71 427.19 83.73 428.17 84.07 430.53 85.05 432.18 85.74 433.98 86.61 436.37 87.77 437.47 88.37 440.33 89.94"/>
      <polyline class="Solid-gray-line" points="410.97 72.7 411.66 72.07 411.85 71.94 412.8 71.27 414.35 70.17 414.68 69.93 417.04 68.64 418 68.11 419.93 67.32 421.63 66.62 423.03 66.21 425.54 65.48 426.33 65.33 429.71 64.69 429.82 64.67 430.4 64.62 433.43 64.29 434.06 64.23 437.18 64.14 438.62 64.1 441.07 64.21 443.35 64.31 445.11 64.5 448.23 64.84 449.26 65.01 453.22 65.69 453.53 65.76 455.27 66.16 457.92 66.76 458.43 66.88 462.13 67.92 463.34 68.27"/>
      <polyline class="Solid-gray-line" points="295.94 82.34 295.49 82.65 295.41 82.71 295.01 83.06 294.48 83.52 294.36 83.64 293.37 84.66 292.6 85.56 292.15 86.07 291.5 86.92 290.87 87.73 290.35 88.46 289.54 89.61 289.16 90.19 288.17 91.68 287.93 92.08 286.75 94 286.65 94.17 285.67 95.89 285.44 96.28 285.42 96.31"/>
    </g>
    <g id="surf-backborder-3" data-name="surf-backborder">
      <polyline class="Solid-gray-line" points="184.58 85.61 188.39 83.74 192.04 81.64 195.53 79.33 199.1 76.62 200.76 75.93 202.65 75.6 204.74 75.62 207 75.98 209.39 76.67 211.88 77.65 214.44 78.92 217.04 80.44 219.65 82.18 222.24 84.11 224.79 86.22 220.22 89.74 215.42 92.99 210.41 95.97 205.21 98.66 199.84 101.06 199.26 101.28 194.31 103.16 188.65 104.96 182.78 106.47 176.99 107.63 171.02 108.49 164.99 109.04 158.71 109.28 152.81 109.19 146.69 108.8 140.59 108.09 134.51 107.08 128.48 105.77 122.5 104.16 116.61 102.27 110.82 100.09 105.13 97.65 99.56 94.93 94.14 91.96 88.88 88.76 83.78 85.31 78.85 81.64 74.12 77.75 69.61 73.68 65.3 69.41 62.19 66.02 61.21 64.96 57.36 60.34 53.75 55.59 50.4 50.7 47.29 45.67 44.45 40.54 41.89 35.32 39.6 30.02 44.36 29.23 48.88 28.73 53.14 28.52 57.11 28.61 60.74 28.98 64.03 29.65 66.94 30.6 69.45 31.82 71.54 33.32 73.21 35.07 74.42 37.06 75.59 40.31 76.93 43.53 78.45 46.73 80.15 49.91 80.15 49.91 81.85 52.74 83.18 54.73 85.48 57.84 87.96 60.88 90.61 63.83 93.43 66.68 96.43 69.44 99.58 72.09 99.58 72.09 102.9 74.61 106.36 76.99 109.65 79.04 113.45 81.15 117.44 83.13 121.54 84.92 125.75 86.52 130.06 87.92 134.45 89.11 138.9 90.08 143.16 90.78 147.34 91.25 151.65 91.52 156.26 91.55 156.27 91.55 156.26 91.55 160.72 91.34 165.15 90.89 169.46 90.19 173.85 89.23 178.08 88.03 178.08 88.03 181.22 86.94 184.86 85.42 184.86 85.42"/>
      <polyline class="Solid-gray-line" points="319.33 92.67 319.33 92.66 314.98 91.13 311.4 89.66 307.65 87.9 303.79 85.84 300.08 83.59 296.55 81.18 293.21 78.6 291.76 77.87 290.1 77.47 288.27 77.39 286.29 77.6 284.19 78.11 282 78.88 279.75 79.89 277.45 81.14 275.13 82.57 272.75 84.25 270.53 85.96 275.23 89.61 280.17 93.05 285.32 96.26 290.68 99.25 293.15 100.48 296.22 102 301.93 104.51 307.8 106.77 313.89 108.81 319.92 110.52 326.14 112 332.46 113.22 339.05 114.18 345.27 114.82 351.74 115.21 358.23 115.32 364.7 115.16 371.17 114.73 377.6 114.02 383.97 113.04 390.26 111.79 396.48 110.28 402.59 108.51 408.58 106.49 414.43 104.22 416.19 103.44 420.13 101.71 425.67 98.95 431.03 95.98 436.19 92.79 441.14 89.38 445.88 85.77 450.39 81.96 454.64 77.98 458.64 73.83 462.38 69.5 465.85 65.03 469.02 60.42 471.9 55.69 466.99 54.03 461.76 52.62 456.76 51.61 451.83 50.97 447.04 50.69 442.41 50.77 437.97 51.23 433.76 52.05 429.82 53.23 426.15 54.75 422.81 56.61 419.81 58.8 417.18 61.3 414.92 64.08 413.06 67.13 411.97 69.56 411.97 69.56 410.71 71.95 410.82 71.78 409.38 73.88 408.12 75.5 407.5 76.21 407.5 76.21 405.28 78.5 403.31 80.32 402.27 81.19 402.27 81.19 399.46 83.29 396.48 85.29 396.48 85.29 396.48 85.29 393.79 86.91 391.71 88.02 391.71 88.02 391.71 88.02 388.16 89.72 384.46 91.27 380.62 92.67 376.67 93.92 376.67 93.92 376.67 93.92 372.61 94.99 372.61 94.99 369.33 95.7 369.32 95.7 364.92 96.44 364.92 96.45 360.44 97 355.9 97.35 351.32 97.5 346.7 97.45 342.23 97.19 337.45 96.7 332.84 96.01 328.27 95.11 323.84 94.01 319.33 92.66"/>
    </g>
    <g id="surf-back-3" data-name="surf-back">
      <polyline class="Surface-underlying" points="184.58 85.61 188.39 83.74 192.04 81.64 195.53 79.33 199.1 76.62 200.76 75.93 202.65 75.6 204.74 75.62 207 75.98 209.39 76.67 211.88 77.65 214.44 78.92 217.04 80.44 219.65 82.18 222.24 84.11 224.79 86.22 220.22 89.74 215.42 92.99 210.41 95.97 205.21 98.66 199.84 101.06 199.26 101.28 194.31 103.16 188.65 104.96 182.78 106.47 176.99 107.63 171.02 108.49 164.99 109.04 158.71 109.28 152.81 109.19 146.69 108.8 140.59 108.09 134.51 107.08 128.48 105.77 122.5 104.16 116.61 102.27 110.82 100.09 105.13 97.65 99.56 94.93 94.14 91.96 88.88 88.76 83.78 85.31 78.85 81.64 74.12 77.75 69.61 73.68 65.3 69.41 62.19 66.02 61.21 64.96 57.36 60.34 53.75 55.59 50.4 50.7 47.29 45.67 44.45 40.54 41.89 35.32 39.6 30.02 44.36 29.23 48.88 28.73 53.14 28.52 57.11 28.61 60.74 28.98 64.03 29.65 66.94 30.6 69.45 31.82 71.54 33.32 73.21 35.07 74.42 37.06 75.59 40.31 76.93 43.53 78.45 46.73 80.15 49.91 80.15 49.91 81.85 52.74 83.18 54.73 85.48 57.84 87.96 60.88 90.61 63.83 93.43 66.68 96.43 69.44 99.58 72.09 99.58 72.09 102.9 74.61 106.36 76.99 109.65 79.04 113.45 81.15 117.44 83.13 121.54 84.92 125.75 86.52 130.06 87.92 134.45 89.11 138.9 90.08 143.16 90.78 147.34 91.25 151.65 91.52 156.26 91.55 156.27 91.55 156.26 91.55 160.72 91.34 165.15 90.89 169.46 90.19 173.85 89.23 178.08 88.03 178.08 88.03 181.22 86.94 184.86 85.42 184.86 85.42"/>
      <polyline class="Surface-underlying" points="319.33 92.67 319.33 92.66 314.98 91.13 311.4 89.66 307.65 87.9 303.79 85.84 300.08 83.59 296.55 81.18 293.21 78.6 291.76 77.87 290.1 77.47 288.27 77.39 286.29 77.6 284.19 78.11 282 78.88 279.75 79.89 277.45 81.14 275.13 82.57 272.75 84.25 270.53 85.96 275.23 89.61 280.17 93.05 285.32 96.26 290.68 99.25 293.15 100.48 296.22 102 301.93 104.51 307.8 106.77 313.89 108.81 319.92 110.52 326.14 112 332.46 113.22 339.05 114.18 345.27 114.82 351.74 115.21 358.23 115.32 364.7 115.16 371.17 114.73 377.6 114.02 383.97 113.04 390.26 111.79 396.48 110.28 402.59 108.51 408.58 106.49 414.43 104.22 416.19 103.44 420.13 101.71 425.67 98.95 431.03 95.98 436.19 92.79 441.14 89.38 445.88 85.77 450.39 81.96 454.64 77.98 458.64 73.83 462.38 69.5 465.85 65.03 469.02 60.42 471.9 55.69 466.99 54.03 461.76 52.62 456.76 51.61 451.83 50.97 447.04 50.69 442.41 50.77 437.97 51.23 433.76 52.05 429.82 53.23 426.15 54.75 422.81 56.61 419.81 58.8 417.18 61.3 414.92 64.08 413.06 67.13 411.97 69.56 411.97 69.56 410.71 71.95 410.82 71.78 409.38 73.88 408.12 75.5 407.5 76.21 407.5 76.21 405.28 78.5 403.31 80.32 402.27 81.19 402.27 81.19 399.46 83.29 396.48 85.29 396.48 85.29 396.48 85.29 393.79 86.91 391.71 88.02 391.71 88.02 391.71 88.02 388.16 89.72 384.46 91.27 380.62 92.67 376.67 93.92 376.67 93.92 376.67 93.92 372.61 94.99 372.61 94.99 369.33 95.7 369.32 95.7 364.92 96.44 364.92 96.45 360.44 97 355.9 97.35 351.32 97.5 346.7 97.45 342.23 97.19 337.45 96.7 332.84 96.01 328.27 95.11 323.84 94.01 319.33 92.66"/>
    </g>
    <g id="surf-front-3" data-name="surf-front">
      <polyline class="Surface-visible" points="73.21 35.07 74.42 37.06 75.19 39.29 75.19 39.29 75.19 39.29 75.49 41.72 75.33 44.35 74.71 47.15 73.64 50.11 72.12 53.2 70.16 56.39 67.78 59.68 65 63.02 62.19 66.02 61.83 66.39 58.3 69.78 54.44 73.16 50.28 76.49 45.83 79.76 41.15 82.94 36.26 86.01 31.2 88.94 26.01 91.71 20.72 94.3 15.21 96.78 10.03 98.88 13.07 103.89 16.41 108.76 20.07 113.5 24.02 118.08 28.24 122.48 32.73 126.7 37.48 130.73 42.49 134.56 47.72 138.17 53.16 141.56 58.81 144.72 64.66 147.63 70.68 150.3 76.85 152.71 83.18 154.86 89.63 156.75 96.19 158.35 102.83 159.68 109.56 160.73 116.34 161.49 123.16 161.96 130 162.14 136.84 162.03 143.67 161.63 150.24 160.97 157.19 159.96 163.86 158.69 170.44 157.13 176.79 155.33 183.23 153.19 189.41 150.81 195.44 148.16 201.29 145.26 206.95 142.11 212.39 138.72 217.59 135.09 222.56 131.24 220.22 129.23 217.7 126.88 215.26 124.42 212.83 121.76 210.45 118.95 208.13 115.98 205.92 112.9 203.83 109.72 201.9 106.47 200.15 103.2 199.25 101.28 198.62 99.93 197.33 96.71 196.31 93.59 195.57 90.6 195.14 87.79 195.02 85.2 195.22 82.86 195.74 80.81 196.56 79.07 197.63 77.75 197.69 77.67 197.63 77.75 199.1 76.62 197.69 77.67 195.53 79.33 195.8 79.15 192.32 81.46 188.66 83.56 184.86 85.42 184.86 85.42 181.22 86.94 178.08 88.03 178.08 88.03 173.85 89.23 169.46 90.19 165.15 90.89 160.72 91.34 156.26 91.55 156.27 91.55 156.26 91.55 151.65 91.52 147.34 91.25 143.16 90.78 138.9 90.08 134.45 89.11 130.06 87.92 125.75 86.52 121.54 84.92 117.44 83.13 113.45 81.15 109.65 79.04 106.36 76.99 102.9 74.61 99.58 72.09 99.58 72.09 96.43 69.44 93.43 66.68 90.61 63.83 87.96 60.88 85.48 57.84 83.18 54.73 81.85 52.74 80.15 49.91 80.15 49.91 78.45 46.73 76.93 43.53 75.59 40.31 74.42 37.06"/>
      <polyline class="Surface-visible" points="293.21 78.6 294.43 79.65 295.4 81.03 296.1 82.72 296.51 84.71 296.62 86.98 296.43 89.51 295.94 92.25 295.16 95.18 294.09 98.25 293.15 100.48 292.76 101.42 291.18 104.64 289.39 107.89 287.41 111.1 285.27 114.25 283 117.3 280.64 120.22 278.22 122.98 275.75 125.57 273.29 127.95 270.83 130.13 268.41 132.08 272.75 135.48 277.29 138.73 282.04 141.84 286.97 144.8 292.06 147.6 297.29 150.22 302.65 152.67 308.22 154.96 313.7 157 319.36 158.87 325.07 160.53 331.02 162.04 336.61 163.25 342.41 164.29 348.19 165.12 353.95 165.73 359.66 166.12 365.33 166.3 370.91 166.27 376.4 166.02 381.79 165.56 387.06 164.9 392.2 164.03 397.19 162.96 402.02 161.69 406.69 160.23 411.17 158.58 415.45 156.76 419.53 154.76 423.4 152.59 427.05 150.25 430.47 147.77 433.65 145.14 436.59 142.36 439.28 139.46 441.71 136.43 443.88 133.29 439.37 130.01 435.08 126.51 431.05 122.82 427.29 118.95 423.84 114.94 420.73 110.82 417.97 106.63 416.19 103.44 415.59 102.38 413.61 98.12 412.04 93.87 410.88 89.67 410.16 85.55 409.87 81.53 410.02 77.65 410.61 73.94 411.97 69.56 410.71 71.95 410.82 71.78 409.38 73.88 408.12 75.5 407.5 76.21 407.5 76.21 405.28 78.5 403.31 80.32 402.27 81.19 402.27 81.19 399.46 83.29 396.48 85.29 396.48 85.29 396.48 85.29 393.79 86.91 391.71 88.02 391.71 88.02 391.56 88.11 391.71 88.02 388.16 89.72 384.46 91.27 380.62 92.67 376.67 93.92 376.67 93.92 376.67 93.92 372.61 94.99 372.61 94.99 369.33 95.7 369.32 95.7 364.92 96.44 364.92 96.45 360.44 97 355.9 97.35 351.32 97.5 346.7 97.45 342.23 97.19 337.45 96.7 332.84 96.01 328.27 95.11 323.84 94.01 319.33 92.66 319.33 92.67 319.33 92.66 314.98 91.13 311.4 89.66 307.65 87.9 303.79 85.84 300.08 83.59 296.55 81.18 293.21 78.6 291.76 77.87"/>
    </g>
    <g id="pattern-visible-3" data-name="pattern-visible">
      <path class="cls-1" d="M84.13,56l.8,1.2h0l.4,1.49v1.82l-.42,2v0l-.83,2.3v0l-1.22,2.51h0l-1.66,2.69h0A82.13,82.13,0,0,1,68.46,84.3,125.68,125.68,0,0,1,53.34,95.89c-1.34.85-2.64,1.76-4,2.56l-4.09,2.43L41,103.14c-1.39.76-2.85,1.41-4.27,2.11a129.67,129.67,0,0,1-17.7,6.94,152.54,152.54,0,0,0,17.48-7.39A145.44,145.44,0,0,0,53,95.3,141.25,141.25,0,0,0,68,83.79c1.18-1.06,2.35-2.09,3.46-3.23l1.7-1.66c.55-.56,1.08-1.15,1.62-1.72a67.91,67.91,0,0,0,6-7.29h0l1.7-2.66h0l1.3-2.47v0l.9-2.28h0l.48-2v0l.06-1.79v0l-.35-1.51h0Z"/>
      <path class="cls-1" d="M79.17,48.08l.59,1.76h0l.14,2v0L79.59,54v0l-.75,2.39v0L77.63,59v0L76,61.72v0l-2.08,2.79h0A77.11,77.11,0,0,1,60.36,77.06c-1.25.88-2.46,1.84-3.76,2.67s-2.56,1.7-3.86,2.52l-4,2.33c-1.34.76-2.72,1.45-4.07,2.17A131.55,131.55,0,0,1,27.8,94.08a137.41,137.41,0,0,1-17.75,4.83,160.2,160.2,0,0,0,17.58-5.3,150.91,150.91,0,0,0,16.74-7.48A120.46,120.46,0,0,0,60,76.5,82.74,82.74,0,0,0,73.5,64.22h0l2.13-2.75v0l1.7-2.66v0l1.28-2.52h0L79.4,54h0l.38-2.18h0l-.08-2h0Z"/>
      <path class="cls-1" d="M91.46,64.68l.53.93h0l.18,1.28h0L92,68.52h0l-.53,1.94h0l-.89,2.21h0c-3,6.06-7.21,11.39-11.65,16.43a142.12,142.12,0,0,1-14.55,14A150.25,150.25,0,0,1,48.07,115a127.23,127.23,0,0,1-17.81,9.41l4.52-2.23,4.41-2.41c2.91-1.67,5.79-3.37,8.59-5.23a167,167,0,0,0,16.13-12A154.66,154.66,0,0,0,78.45,88.69c4.46-5,8.77-10.18,11.89-16.12h0l1-2.18h0l.6-1.92h0l.23-1.6h0L92,65.62h0Z"/>
      <path class="cls-1" d="M195.49,79.36h0L193.31,81h0l-1.92,2h0l-1.65,2.35v0c-.44.89-.92,1.78-1.41,2.65v0l-1.18,2.94v0l-.92,3.24v0l-.65,3.49v0a65.25,65.25,0,0,0-.5,13.1,112.46,112.46,0,0,0,1.47,13.06c.76,4.32,1.66,8.61,2.76,12.87s2.34,8.46,3.78,12.63c-1.58-4.11-3-8.28-4.22-12.51a128.56,128.56,0,0,1-3-12.88,101.29,101.29,0,0,1-1.54-13.14,65.49,65.49,0,0,1,.6-13.2v0l.72-3.47h0v0l1-3.22h0v0L188,87.75h0v0c.5-.86,1-1.73,1.48-2.6h0v0l1.74-2.28h0l2-1.91h0l2.23-1.52h0Z"/>
      <path class="cls-1" d="M195.06,86.1l-.49,2.19h0l-.46,3.57v0L194,95.58h0a83.18,83.18,0,0,0,1,12.12,111.23,111.23,0,0,0,2.79,11.84c1.14,3.92,2.54,7.73,4,11.52s3.19,7.48,5,11.12a97.2,97.2,0,0,1-5.51-10.93,104.67,104.67,0,0,1-4.22-11.49,89.28,89.28,0,0,1-2.79-12c-.17-1-.26-2-.4-3-.06-.51-.13-1-.18-1.53l-.09-1.53c-.16-2-.12-4.1-.13-6.13h0l.3-3.73h0l.62-3.54h0Z"/>
      <path class="cls-1" d="M185.89,84.92l-2,1.36h0c-.59.59-1.21,1.15-1.81,1.73h0l-1.63,2.11v0l-1.43,2.49v0l-1.22,2.84v0c-.32,1-.67,2.08-1,3.12v0a65.12,65.12,0,0,0-2.13,14c-.25,4.72-.23,9.47,0,14.2s.66,9.47,1.19,14.19,1.19,9.42,2,14.11c-1-4.66-1.82-9.34-2.46-14.06s-1.15-9.44-1.4-14.2a115.48,115.48,0,0,1,0-14.29,60,60,0,0,1,2.31-14.09v0c.37-1,.75-2.06,1.09-3.1v0l1.29-2.81h0v0l1.51-2.44h0v0l1.71-2h0c.62-.55,1.27-1.08,1.88-1.65h0Z"/>
      <path class="cls-1" d="M120.25,84.36l-.19,0h0l-.37.41h0a47.8,47.8,0,0,0-2.57,4.38l-2.41,4.46-4.95,8.88q-5,8.85-10.57,17.36c-3.74,5.66-7.61,11.23-11.81,16.56q-3.15,4-6.5,7.82c-2.25,2.54-4.6,5-7,7.35,2.33-2.46,4.59-5,6.74-7.59s4.29-5.23,6.32-7.93q6.14-8.09,11.64-16.61c3.73-5.65,7.26-11.42,10.69-17.25l5.12-8.77L116.94,89c.87-1.45,1.71-2.93,2.72-4.29h0l.39-.39h0Z"/>
      <path class="cls-1" d="M109.61,79l0,.53h0l-.29.94h0a81,81,0,0,1-4.64,9.21c-1.71,3-3.52,5.92-5.4,8.8-3.78,5.74-7.81,11.34-12.1,16.72a198.38,198.38,0,0,1-13.71,15.42c-2.44,2.43-5,4.8-7.52,7.08-1.29,1.13-2.64,2.2-3.95,3.31s-2.72,2.11-4.07,3.17c1.32-1.11,2.66-2.18,4-3.31s2.58-2.27,3.83-3.44c2.52-2.34,5-4.73,7.35-7.21q7.14-7.41,13.54-15.49c4.31-5.34,8.33-10.9,12.18-16.58,1.93-2.84,3.8-5.72,5.56-8.67a85.75,85.75,0,0,0,4.93-9h0l.32-.93h0Z"/>
      <path class="cls-1" d="M142.67,90.71l-1,.33h0l-1.09.79h0l-1.16,1.25h0l-1.22,1.7h0A121.31,121.31,0,0,0,130.37,111c-2.33,5.55-4.53,11.17-6.83,16.73s-4.57,11.16-7.07,16.65-5.12,10.92-8.06,16.19c2.72-5.38,5.17-10.88,7.56-16.41s4.65-11.11,6.9-16.7,4.55-11.16,6.91-16.71c1.17-2.78,2.46-5.51,3.78-8.23A64.19,64.19,0,0,1,138,94.63h0L139.31,93h0l1.2-1.2h0l1.12-.75h0Z"/>
      <path class="cls-1" d="M177.35,88.24l-1.92.68h0L173.62,90h0L172,91.58v0l-1.53,2v0c-.45.79-.94,1.55-1.41,2.32h0l-1.28,2.69v0l-1.12,3h0a86.1,86.1,0,0,0-3,14.13c-.65,4.79-1.06,9.59-1.35,14.42s-.43,9.67-.52,14.5-.12,9.68-.12,14.52c-.18-4.83-.36-9.67-.36-14.52s.05-9.69.31-14.53.63-9.7,1.33-14.49a79.05,79.05,0,0,1,3.23-14.19v0l1.2-3h0v0l1.34-2.67v0l1.47-2.28h0l1.61-1.91,0,0,1.74-1.48h0l1.85-1.05h0Z"/>
      <path class="cls-1" d="M166,90.75l-1.64.52h0c-.52.33-1,.63-1.57.94h0l-1.52,1.38h0l-1.44,1.82h0l-1.38,2.25v0l-1.3,2.64v0a91.46,91.46,0,0,0-4.71,14.93c-1.19,5.08-2.18,10.23-3.11,15.38-1.8,10.31-3.25,20.7-5.1,31,1.4-10.39,2.64-20.8,4.41-31.14.86-5.18,1.89-10.31,3.14-15.42a80.78,80.78,0,0,1,4.95-14.94v0l1.36-2.61h0l1.45-2.2h0l1.52-1.77h0l1.57-1.33h0c.53-.3,1.08-.58,1.6-.89h0Z"/>
      <path class="cls-1" d="M100,72.38l.26.72h0l0,1.11h0l-.34,1.46h0l-.66,1.82h0a58.71,58.71,0,0,1-4.89,8.9c-1.82,2.86-3.78,5.63-5.82,8.33a173.54,173.54,0,0,1-13.33,15.34A172.1,172.1,0,0,1,60.1,123.71l-4,3.1-4.13,3-4.25,2.77-4.36,2.61a151.13,151.13,0,0,0,16.41-11.87,189.45,189.45,0,0,0,14.89-13.72A183.84,183.84,0,0,0,88,94.35c2.06-2.67,4.08-5.38,5.94-8.19A66.83,66.83,0,0,0,99,77.43h0l.72-1.79h0l.39-1.45h0l.07-1.11h0Z"/>
      <path class="cls-1" d="M131.66,88.35l-.57-.1h0l-.69.35h0l-.81.81h0l-.93,1.25h0A88,88,0,0,0,124,99c-1.45,2.84-2.85,5.7-4.26,8.56-2.86,5.69-5.67,11.41-8.64,17.06s-6.06,11.22-9.38,16.67A166.75,166.75,0,0,1,91,157.07c3.7-5.2,7.07-10.6,10.28-16.1s6.28-11.08,9.21-16.73,5.84-11.33,8.73-17c1.46-2.83,2.92-5.66,4.43-8.47a73.25,73.25,0,0,1,4.94-8.19h0l1-1.21h0l.85-.78h0l.71-.33h0Z"/>
      <path class="cls-1" d="M154.3,91.54l-1.33.39h0l-1.34.85h0l-1.32,1.32h0L149,95.83h0L147.72,98h0a96.86,96.86,0,0,0-6.32,15.6c-1.77,5.34-3.3,10.76-4.87,16.16s-3.06,10.85-4.69,16.24-3.28,10.79-5.17,16.09c1.68-5.38,3.16-10.81,4.67-16.23l4.5-16.29q2.24-8.16,4.93-16.18a88.55,88.55,0,0,1,6.63-15.56h0l1.39-2.1h0L150.19,94h0l1.37-1.26h0l1.37-.81h0Z"/>
      <path class="cls-1" d="M296.58,86.2a4.92,4.92,0,0,1,.28-1.16l0,0a8.4,8.4,0,0,1,.44-1.31l0,.06a6.78,6.78,0,0,1,.3-1v.09a4.33,4.33,0,0,1,.09-.7l0,.08a4.12,4.12,0,0,1-.13-.47c.14.09.25.2.38.3l0,.08a4.6,4.6,0,0,1,.2.66h0V83a6.82,6.82,0,0,1-.14,1v0h0a8.33,8.33,0,0,1-.58,1.25v0A5.48,5.48,0,0,1,296.58,86.2Z"/>
      <path class="cls-1" d="M324.58,160.39c1.23-5,2.48-9.94,3.82-14.88s2.73-9.87,4.21-14.78,3.1-9.77,4.87-14.59l1.38-3.59c.51-1.18,1-2.36,1.52-3.54a51.43,51.43,0,0,1,3.61-6.8h0l1.29-1.74h0c.43-.45.84-.9,1.26-1.36h0l1.25-1h0l1.22-.53h0l1.2-.1-1.19.15h0l-1.2.58h0l-1.2,1h0l-1.2,1.41v0l-1.22,1.8h0a83.1,83.1,0,0,0-6.18,14c-1.75,4.81-3.27,9.69-4.81,14.57s-2.94,9.8-4.39,14.71Z"/>
      <path class="cls-1" d="M356.83,165.93a139.81,139.81,0,0,1-1.12-30.05,125.52,125.52,0,0,1,1.78-15,70.33,70.33,0,0,1,4-14.52v0l1.33-2.82h0l1.45-2.45h0l1.57-2h0l1.67-1.67h0l1.78-1.24h0l1.87-.81-1.83.89h0l-1.72,1.31h0l-1.61,1.73h0l-1.49,2.1h0l-1.39,2.48v0L362,106.58v0A78.28,78.28,0,0,0,358.17,121l-.58,3.71-.47,3.72c-.29,2.48-.55,5-.71,7.46-.35,5-.49,10-.45,15S356.27,160.94,356.83,165.93Z"/>
      <path class="cls-1" d="M340.45,163.94q.38-7.62,1.3-15.19c.6-5.05,1.38-10.07,2.31-15.07s2-10,3.38-14.88a71,71,0,0,1,5.44-14.25v0l1.39-2.31h0l1.45-1.9h0l1.5-1.49h0l1.53-1.06h0c.52-.21,1-.43,1.55-.66h0l1.58-.24-1.57.31h0q-.76.38-1.53.72h0l-1.49,1.12h0L356,100.48h0l-1.38,2v0l-1.34,2.34h0A79,79,0,0,0,348.1,119c-1.34,4.88-2.37,9.86-3.35,14.83s-1.76,10-2.5,15S340.9,158.88,340.45,163.94Z"/>
      <path class="cls-1" d="M388.56,164.64a91.15,91.15,0,0,1-5.8-13.19A94.29,94.29,0,0,1,379,137.52c-.5-2.36-.81-4.75-1.16-7.14s-.52-4.8-.57-7.2a71,71,0,0,1,.86-14.43v0h0l.82-3.74v0l1.08-3.45h0v0l1.33-3.13v0l1.56-2.79h0l1.79-2.44,0,0,2-2h0L389,89.38h0l2.44-1.23h0l.09,0-.09,0h0l-2.39,1.32h0l-2.18,1.72h0l-2,2.12h0l-1.72,2.48v0l-1.5,2.83v0l-1.26,3.16v0l-1,3.47v0l-.78,3.74v0a69.88,69.88,0,0,0-.76,14.3c.07,2.39.31,4.76.53,7.16s.63,4.74,1.11,7.09a107.82,107.82,0,0,0,3.55,13.91A103.87,103.87,0,0,0,388.56,164.64Z"/>
      <path class="cls-1" d="M436.62,142.33,433,139.56c-1.23-.92-2.34-2-3.52-2.95s-2.25-2.09-3.35-3.16l-1.64-1.61-1.53-1.71a73.66,73.66,0,0,1-5.78-7.17c-.85-1.28-1.75-2.53-2.56-3.84l-2.32-4v0l-2.14-4.39,0,0-1.73-4.41v0L407,101.86v0l-.93-4.36v0l-.49-4.3h0v0l-.06-4.18h0v0l.37-4h0v0l.81-3.87h0l1.24-3.67h0l1.65-3.46-1.52,3.52h0L407,81h0l-.69,3.89v0L406,89v0l.14,4.18v0l.56,4.29v0l1,4.36v0l1.37,4.4v0l1.77,4.41v0l2.13,4.4v0l2.28,4c.8,1.29,1.68,2.54,2.51,3.81.41.65.88,1.25,1.34,1.85l1.39,1.82c.89,1.24,1.92,2.36,2.91,3.52l1.49,1.74,1.6,1.64c1.07,1.09,2.11,2.2,3.25,3.21s2.22,2.12,3.4,3.08Z"/>
      <path class="cls-1" d="M411.46,71l-.89,3.2h0l-.6,4v0l-.18,4.07v0l.27,4.16v0l.71,4.22v0l1.13,4.25v0L413.46,99v0l2,4.24,0,0,2.38,4.21v0l2.77,4.13,0,0,3.15,4h0l3.28,3.68c1.14,1.17,2.35,2.31,3.51,3.47s2.47,2.18,3.7,3.27l.93.81,1,.75,2,1.51-2-1.42-1-.71-1-.77c-1.27-1-2.6-2-3.83-3.14s-2.42-2.24-3.61-3.4l-3.38-3.63h0l-3.18-4v0l-2.8-4.1,0,0-2.4-4.19,0,0-2-4.25v0l-1.53-4.28v0l-1.1-4.26v0l-.62-4.24h0v0l-.16-4.15h0v0l.3-4.06h0v0l.77-3.92h0Z"/>
      <path class="cls-1" d="M415.44,156.76l-2.16-2.52c-.36-.43-.73-.84-1.08-1.27l-1-1.33c-.67-.88-1.35-1.75-2-2.65l-1.86-2.76c-.63-.91-1.21-1.87-1.77-2.82s-1.14-1.9-1.69-2.87c-1-2-2.13-3.9-3-6a86.78,86.78,0,0,1-4.63-12.5A74.41,74.41,0,0,1,393.91,109v0h0l-.14-4.3v0l.21-4.12v0l.57-3.91h0v0l.92-3.7v0l1.27-3.44v0l1.64-3.13v0l2-2.82h0l2.3-2.49h0l.21-.17-.21.18h0l-2.2,2.56h0l-1.87,2.89h0l-1.53,3.19v0l-1.2,3.46v0l-.85,3.71v0l-.49,3.93v0l-.17,4.12v0l.18,4.3v0a76.9,76.9,0,0,0,2.38,13,85.9,85.9,0,0,0,4.5,12.44c.85,2,1.93,4,2.89,6,.52,1,1.09,1.93,1.63,2.89s1.08,1.92,1.7,2.84A97.17,97.17,0,0,0,415.44,156.76Z"/>
      <path class="cls-1" d="M278.58,139.58a109.08,109.08,0,0,0,11-10.48c3.42-3.72,6.65-7.64,9.7-11.68s6-8.18,8.72-12.45,5.29-8.65,8-13h0l.29-.37h0L316,92h0c-1.25,2.2-2.38,4.48-3.63,6.69s-2.54,4.41-3.86,6.57c-2.66,4.34-5.56,8.53-8.63,12.59A136.53,136.53,0,0,1,290,129.49,86.88,86.88,0,0,1,278.58,139.58Z"/>
      <path class="cls-1" d="M308.31,155c2.29-4.6,4.44-9.27,6.58-13.93s4.24-9.35,6.29-14.06l6.29-14.07c1.07-2.34,2.21-4.64,3.39-6.93a50.82,50.82,0,0,1,4-6.61h0l1.06-1.24h0l1-.83h0c.3-.14.61-.27.9-.42h0l.83,0-.83.08h0c-.29.17-.59.31-.88.47h0l-.95.87h0l-1,1.28h0a102.92,102.92,0,0,0-7,13.69l-6.21,14.1c-2.12,4.68-4.21,9.37-6.47,14S310.81,150.51,308.31,155Z"/>
      <path class="cls-1" d="M293,148.07c3.21-4,6.18-8.16,9-12.42s5.53-8.61,8.07-13.05,5.09-8.87,7.56-13.36,4.8-9.06,7.83-13.22h0l.72-.78h0l.59-.38h0l-.58.42h0l-.68.82h0a74.28,74.28,0,0,0-3.84,6.64l-3.56,6.81c-2.42,4.51-4.88,9-7.46,13.44s-5.31,8.78-8.25,13A121.66,121.66,0,0,1,293,148.07Z"/>
      <path class="cls-1" d="M281.72,118.89c2.37-2.14,4.62-4.41,6.85-6.69s4.36-4.65,6.33-7.15,4-5,5.8-7.59a72.16,72.16,0,0,0,5-8.12h0l.45-1h0l.23-.71h0v-.36l0,.36h0l-.17.72h0l-.38,1.07h0a57.37,57.37,0,0,1-4.66,8.4,91.91,91.91,0,0,1-5.77,7.7,94.49,94.49,0,0,1-6.5,7.07A83.33,83.33,0,0,1,281.72,118.89Z"/>
      <path class="cls-1" d="M372.91,166.18a99.16,99.16,0,0,1-3.76-14.29,118.87,118.87,0,0,1-1.84-14.69,109.26,109.26,0,0,1,.08-14.81,69.27,69.27,0,0,1,2.55-14.58v0l1.14-3.3h0v0l1.33-3v0L374,98.83h0v0l1.71-2.24h0l1.88-1.83h0c.67-.47,1.35-.94,2-1.42h0l2.15-1-2.11,1.11h0c-.64.51-1.3,1-2,1.49h0l-1.8,1.9h0L374.27,99h0l-1.46,2.66v0l-1.26,3v0L370.5,108v0a72.68,72.68,0,0,0-2.39,14.5,122.34,122.34,0,0,0-.12,14.71,144,144,0,0,0,1.62,14.64A114.68,114.68,0,0,0,372.91,166.18Z"/>
      <path class="cls-1" d="M402.39,161.57a96.43,96.43,0,0,1-7.05-12,103.85,103.85,0,0,1-5.17-12.94A98.76,98.76,0,0,1,387,123.08a77.21,77.21,0,0,1-.8-13.91v0h0l.36-4.07v0l.69-3.84h0v0l1-3.58v0l1.3-3.29v0l1.61-3v0l1.9-2.61h0l2.15-2.26h0l2.41-1.89-2.34,2h0l-2.07,2.33h0l-1.81,2.67v0l-1.53,3v0l-1.24,3.32v0l-.93,3.6v0l-.62,3.85v0l-.33,4.07v0a77.39,77.39,0,0,0,.88,13.79,95.89,95.89,0,0,0,3.11,13.49,117.55,117.55,0,0,0,4.93,12.94A108.74,108.74,0,0,0,402.39,161.57Z"/>
      <path class="cls-1" d="M427,150.28c-1.38-1.3-2.79-2.56-4.13-3.9l-2-2.06c-.65-.69-1.33-1.36-1.92-2.11a87.89,87.89,0,0,1-6.88-9.07l-1.55-2.4c-.49-.81-.94-1.65-1.41-2.47s-1-1.65-1.38-2.5l-1.24-2.57c-.89-1.69-1.52-3.49-2.26-5.24s-1.22-3.61-1.83-5.4v0l-1.1-4.49v0l-.72-4.41v0l-.34-4.31v0l.06-4.17v0l.46-4v0l.85-3.78h0v0l1.24-3.57v0l1.65-3.3v0l2-3h0l1.26-1.44-1.21,1.49h0l-1.92,3.1h0l-1.53,3.36v0l-1.16,3.6v0l-.78,3.8v0l-.38,4V99.2l.37,4.31v0l.75,4.42v0l1.13,4.49v0L404,115c.3.89.55,1.8.93,2.67.72,1.73,1.34,3.53,2.2,5.2l1.21,2.56c.42.85.91,1.65,1.35,2.48s.91,1.66,1.39,2.47l1.51,2.39c1,1.63,2.09,3.14,3.19,4.69a26.68,26.68,0,0,0,1.7,2.26l1.77,2.21c1.17,1.49,2.49,2.85,3.73,4.28S425.68,148.93,427,150.28Z"/>
    </g>
    <g id="initial-curve-3" data-name="initial-curve">
      <path class="cls-2" d="M73.81,49.63a66.42,66.42,0,0,0,8.7,15.68A76,76,0,0,0,94.79,78.37a87.53,87.53,0,0,0,31.42,16.87,86.67,86.67,0,0,0,35.5,3.3,76.22,76.22,0,0,0,17.42-4.2,71.21,71.21,0,0,0,15.93-8.24,70.73,70.73,0,0,1-15.84,8.46,75.56,75.56,0,0,1-17.47,4.31,86.9,86.9,0,0,1-35.69-3.16A87.81,87.81,0,0,1,94.58,78.62,70.32,70.32,0,0,1,73.81,49.63Z"/>
      <path class="cls-2" d="M411.46,71a52.82,52.82,0,0,1-3.76,7.43,55.29,55.29,0,0,1-5,6.69,57.36,57.36,0,0,1-12.79,10.66,68.61,68.61,0,0,1-15.16,6.94A79.18,79.18,0,0,1,358.42,106a85.17,85.17,0,0,1-33-3.54A76.58,76.58,0,0,1,296.58,86.2a71,71,0,0,0,13.64,9.49,81.2,81.2,0,0,0,15.29,6.47,84.64,84.64,0,0,0,32.87,3.36,78.52,78.52,0,0,0,16.27-3.21,68.24,68.24,0,0,0,15.11-6.82A57.5,57.5,0,0,0,402.54,85a55.91,55.91,0,0,0,5.06-6.59A53.24,53.24,0,0,0,411.46,71Z"/>
    </g>
    <g id="surf-frontborder-3" data-name="surf-frontborder">
      <polyline class="Solid-Black-Thick-Line" points="73.21 35.07 74.42 37.06 75.19 39.29 75.19 39.29 75.19 39.29 75.49 41.72 75.33 44.35 74.71 47.15 73.64 50.11 72.12 53.2 70.16 56.39 67.78 59.68 65 63.02 62.19 66.02 61.83 66.39 58.3 69.78 54.44 73.16 50.28 76.49 45.83 79.76 41.15 82.94 36.26 86.01 31.2 88.94 26.01 91.71 20.72 94.3 15.21 96.78 10.03 98.88 13.07 103.89 16.41 108.76 20.07 113.5 24.02 118.08 28.24 122.48 32.73 126.7 37.48 130.73 42.49 134.56 47.72 138.17 53.16 141.56 58.81 144.72 64.66 147.63 70.68 150.3 76.85 152.71 83.18 154.86 89.63 156.75 96.19 158.35 102.83 159.68 109.56 160.73 116.34 161.49 123.16 161.96 130 162.14 136.84 162.03 143.67 161.63 150.24 160.97 157.19 159.96 163.86 158.69 170.44 157.13 176.79 155.33 183.23 153.19 189.41 150.81 195.44 148.16 201.29 145.26 206.95 142.11 212.39 138.72 217.59 135.09 222.56 131.24 220.22 129.23 217.7 126.88 215.26 124.42 212.83 121.76 210.45 118.95 208.13 115.98 205.92 112.9 203.83 109.72 201.9 106.47 200.15 103.2 199.25 101.28 198.62 99.93 197.33 96.71 196.31 93.59 195.57 90.6 195.14 87.79 195.02 85.2 195.22 82.86 195.74 80.81 196.56 79.07 197.63 77.75 197.69 77.67 197.63 77.75 199.1 76.62 197.69 77.67 195.53 79.33 195.8 79.15 192.32 81.46 188.66 83.56 184.86 85.42 184.86 85.42 181.22 86.94 178.08 88.03 178.08 88.03 173.85 89.23 169.46 90.19 165.15 90.89 160.72 91.34 156.26 91.55 156.27 91.55 156.26 91.55 151.65 91.52 147.34 91.25 143.16 90.78 138.9 90.08 134.45 89.11 130.06 87.92 125.75 86.52 121.54 84.92 117.44 83.13 113.45 81.15 109.65 79.04 106.36 76.99 102.9 74.61 99.58 72.09 99.58 72.09 96.43 69.44 93.43 66.68 90.61 63.83 87.96 60.88 85.48 57.84 83.18 54.73 81.85 52.74 80.15 49.91 80.15 49.91 78.45 46.73 76.93 43.53 75.59 40.31 74.42 37.06"/>
      <polyline class="Solid-Black-Thick-Line" points="199.1 76.62 200.76 75.93 202.65 75.6 204.74 75.62 207 75.98 209.39 76.67 211.88 77.65 214.44 78.92 217.04 80.44 219.65 82.18 222.24 84.11 224.79 86.22 220.22 89.74 215.42 92.99 210.41 95.97 205.21 98.66 199.84 101.06 199.26 101.28 199.25 101.28 200.15 103.2 201.9 106.47 203.83 109.72 205.92 112.9 208.13 115.98 210.45 118.95 212.83 121.76 215.26 124.42 217.7 126.88 220.22 129.23 222.56 131.24 217.59 135.09 212.39 138.72 206.95 142.11 201.29 145.26 195.44 148.16 189.41 150.81 183.23 153.19 176.79 155.33 170.44 157.13 163.86 158.69 157.19 159.96 150.24 160.97 143.67 161.63 136.84 162.03 130 162.14 123.16 161.96 116.34 161.49 109.56 160.73 102.83 159.68 96.19 158.35 89.63 156.75 83.18 154.86 76.85 152.71 70.68 150.3 64.66 147.63 58.81 144.72 53.16 141.56 47.72 138.17 42.49 134.56 37.48 130.73 32.73 126.7 28.24 122.48 24.02 118.08 20.07 113.5 16.41 108.76 13.07 103.89 10.03 98.88 15.21 96.78 20.72 94.3 26.01 91.71 31.2 88.94 36.26 86.01 41.15 82.94 45.83 79.76 50.28 76.49 54.44 73.16 58.3 69.78 61.83 66.39 62.19 66.02 62.19 66.02 61.21 64.96 57.36 60.34 53.75 55.59 50.4 50.7 47.29 45.67 44.45 40.54 41.89 35.32 39.6 30.02 44.36 29.23 48.88 28.73 53.14 28.52 57.11 28.61 60.74 28.98 64.03 29.65 66.94 30.6 69.45 31.82 71.54 33.32 73.21 35.07 74.42 37.06 75.59 40.31 76.93 43.53 78.45 46.73 80.15 49.91 80.15 49.91 81.85 52.74 83.18 54.73 85.48 57.84 87.96 60.88 90.61 63.83 93.43 66.68 96.43 69.44 99.58 72.09 99.58 72.09 102.9 74.61 106.36 76.99 109.65 79.04 113.45 81.15 117.44 83.13 121.54 84.92 125.75 86.52 130.06 87.92 134.45 89.11 138.9 90.08 143.16 90.78 147.34 91.25 151.65 91.52 156.26 91.55 156.27 91.55 156.26 91.55 160.72 91.34 165.15 90.89 169.46 90.19 173.85 89.23 178.08 88.03 178.08 88.03 181.22 86.94 184.86 85.42 184.86 85.42 188.66 83.56 192.32 81.46 195.8 79.15 195.53 79.33 197.69 77.67 199.1 76.62 197.63 77.75 197.69 77.67"/>
      <polyline class="Solid-Black-Thick-Line" points="416.19 102.96 420.13 101.22 425.67 98.47 431.03 95.49 436.19 92.3 441.14 88.89 445.88 85.28 450.39 81.48 454.64 77.5 458.64 73.34 462.38 69.02 465.85 64.54 469.02 59.94 471.9 55.21 466.99 53.55 461.76 52.14 456.76 51.13 451.83 50.48 447.04 50.2 442.41 50.29 437.97 50.74 433.76 51.56 429.82 52.74 426.15 54.27 422.81 56.13 419.81 58.32 417.18 60.81 414.92 63.6 413.06 66.64 411.62 69.94"/>
      <polyline class="Solid-Black-Thick-Line" points="293.15 99.99 290.68 98.76 285.32 95.78 280.17 92.56 275.23 89.13 270.53 85.48 272.75 83.76 275.13 82.09 277.45 80.65 279.75 79.41 282 78.39 284.19 77.62 286.29 77.12 288.27 76.9 290.1 76.99 291.76 77.39"/>
      <polyline class="Solid-Black-Thick-Line" points="293.21 78.24 294.43 79.3 295.4 80.67 296.1 82.36 296.51 84.36 296.62 86.63 296.43 89.15 295.94 91.9 295.16 94.83 294.09 97.89 293.15 100.12 292.76 101.06 291.18 104.29 289.39 107.53 287.41 110.75 285.27 113.9 283 116.95 280.64 119.87 278.22 122.63 275.75 125.22 273.29 127.6 270.83 129.78 268.41 131.73 272.75 135.12 277.29 138.38 282.04 141.49 286.97 144.45 292.06 147.24 297.29 149.87 302.65 152.31 308.22 154.61 313.7 156.64 319.36 158.51 325.07 160.18 331.02 161.69 336.61 162.9 342.41 163.94 348.19 164.76 353.95 165.37 359.66 165.77 365.33 165.95 370.91 165.91 376.4 165.67 381.79 165.21 387.06 164.54 392.2 163.67 397.19 162.6 402.02 161.34 406.69 159.88 411.17 158.23 415.45 156.41 419.53 154.41 423.4 152.23 427.05 149.9 430.47 147.42 433.65 144.79 436.59 142.01 439.28 139.1 441.71 136.08 443.88 132.94 439.37 129.66 435.08 126.16 431.05 122.46 427.29 118.59 423.84 114.59 420.73 110.47 417.97 106.28 416.19 103.09 415.59 102.03 413.61 97.77 412.04 93.52 410.88 89.32 410.16 85.19 409.87 81.18 410.02 77.3 410.61 73.59 411.62 70.07 411.97 69.2 410.82 71.42 409.38 73.52 408.12 75.15 407.5 75.86 407.5 75.86 405.28 78.14 403.31 79.97 402.27 80.83 402.27 80.83 399.46 82.94 396.48 84.94 396.48 84.94 396.48 84.94 393.79 86.56 391.71 87.67 391.71 87.67 391.56 87.76 391.71 87.67 388.16 89.36 384.46 90.92 380.62 92.32 376.67 93.56 376.67 93.56 376.67 93.56 372.61 94.64 372.61 94.64 369.33 95.35 369.32 95.35 364.92 96.09 364.92 96.09 360.44 96.64 355.9 97 351.32 97.15 346.7 97.09 342.23 96.84 337.45 96.35 332.84 95.66 328.27 94.75 323.84 93.66 319.33 92.31 319.33 92.31 319.33 92.31 314.98 90.77 311.4 89.3 307.65 87.55 303.79 85.48 300.08 83.24 296.55 80.83 293.21 78.24 291.76 77.52"/>
    </g>
  </g>
</svg>
