<svg id="Parallel_Transport_Results_-_Double" data-name="Parallel Transport Results - Double" xmlns="http://www.w3.org/2000/svg" viewBox="0 0 481.89 198.43">
  <defs>
    <style>
      .Solid-Black-Thick-Line, .Solid-gray-line, .cls-1 {
        fill: none;
      }

      .Solid-gray-line {
        stroke: #b2b2b2;
        stroke-linecap: round;
        stroke-linejoin: round;
        stroke-width: 0.25px;
      }

      .cls-2 {
        fill: #c1962b;
      }

      .Surface-underlying {
        fill: #e66526;
        opacity: 0.15;
      }

      .Surface-visible {
        fill: #3f82c4;
        opacity: 0.5;
      }

      .cls-3 {
        fill: #fff;
      }

      .cls-4 {
        fill: #c91517;
      }

      .Solid-Black-Thick-Line {
        stroke: #1d1d1b;
        stroke-miterlimit: 10;
        stroke-width: 0.93px;
      }
    </style>
  </defs>
  <title>ParallelTransport-Negative</title>
  <g id="pattern-hidden">
    <polyline class="Solid-gray-line" points="384.97 62.01 384.26 63.09 383.92 63.81 383.21 65.31 383 65.98 382.47 67.69 382.36 68.34 382.04 70.23 382.01 70.91 381.93 72.89 381.98 73.66 382.13 75.67 382.46 77.53 382.64 78.53 383.11 80.21 383.47 81.46 384.03 82.94 384.65 84.55 385.16 85.62 386.03 87.43 386.47 88.2 387.75 90.42"/>
    <polyline class="Solid-gray-line" points="342.68 88.14 342.68 88.14 340.07 88.84 338.61 89.17 336.88 89.68 334.39 90.3 333.79 90.49 332.49 90.84 330.79 91.28 329.96 91.46 327.86 92.03 325.3 92.58 325 92.66 324.59 92.75 322.2 93.26 320.42 93.53 319.45 93.73 318.33 93.9 316.76 94.13 315.4 94.24 314.15 94.41 312.89 94.5 311.6 94.6 310.35 94.61 309.14 94.68 308.04 94.67 306.75 94.67 305.44 94.58 304.78 94.56 304.46 94.56 303.61 94.48 302.26 94.37"/>
    <polyline class="Solid-gray-line" points="357.34 83.24 357.34 83.24 356.54 83.64 354.41 84.62 353.13 85.36 351.54 86.2 350 87.22 348.72 87.99 347.05 89.22 345.95 89.96 344.23 91.34 343.21 92.09 341.5 93.57 340.51 94.36 338.83 95.91 337.85 96.74 336.17 98.36 335.23 99.22 334.37 100.07 333.48 100.96 333.05 101.37 332.65 101.75 331.73 102.7 330.72 103.73 330.4 104.05 330.11 104.34 329.04 105.46 327.85 106.71 327.67 106.89 327.51 107.06 326.33 108.31 325.14 109.57 324.98 109.74 324.77 109.98 323.59 111.24 322.74 112.17"/>
    <polyline class="Solid-gray-line" points="315.05 90.03 315.04 90.03 315.04 90.03"/>
    <polyline class="Solid-gray-line" points="368.25 77.54 368.25 77.54 365.8 79.06 364.46 80.12 363.51 80.83 361.73 82.49 361.37 82.83 361.2 83.01 359.35 85.03 358.37 86.34 357.49 87.45 355.81 90.01 355.77 90.07 355.69 90.21 354.16 92.84 353.5 94.19 352.68 95.78 352.14 96.98 351.32 98.83 351.31 98.85 351.31 98.86 350.52 100.82 350.03 102.02 349.73 102.85 349.23 104.25 348.96 104.99 348.81 105.41 348.25 107.11 347.75 108.59 347.54 109.28 347.11 110.72 346.85 111.55 346.73 111.93"/>
    <polyline class="Solid-gray-line" points="380.42 67.72 380.06 68.1 379.5 68.9 378.58 70.19 378.39 70.55 377.74 71.78 377.36 72.48 377.24 72.78 376.39 74.97 376.05 76.26 375.69 77.64 375.35 79.95 375.27 80.47 375.18 82.38 375.12 83.45 375.19 85.84 375.21 86.55 375.43 88.52 375.57 89.76 375.87 91.37 376.2 93.17 376.48 94.29 377.02 96.39 377.28 97.22 378.1 99.76"/>
    <polyline class="Solid-gray-line" points="374.73 72.89 374.73 72.89 374.33 73.28 372.76 74.74 371.49 76.25 371.01 76.83 370.55 77.53 369.47 79.12 368.6 80.77 368.14 81.64 367.73 82.67 367.02 84.34 366.52 85.92 366.1 87.22 365.72 88.91 365.39 90.27 365.09 92.08 364.87 93.45 364.77 94.37 364.54 96.74 364.54 96.76 364.54 96.76 364.4 99.32 364.35 100.28 364.35 101.87 364.34 103.62 364.38 104.47 364.49 107.13"/>
    <polyline class="Solid-gray-line" points="154.68 63.71 155.87 63.9 158.83 64.38 159.36 64.48 159.76 64.56 163 65.25 165.9 65.86 166.58 66.03 167.68 66.28 170.29 66.97 171.85 67.37"/>
    <polyline class="Solid-gray-line" points="78.35 78.12 80.35 77 80.35 76.99 80.36 76.99 83.77 75.3 86.6 73.9 87.1 73.66 87.69 73.39 90.54 72.17 92.84 71.18 93.92 70.75 95.22 70.23 97.35 69.45 99.06 68.83 100.77 68.26 102.82 67.58 104.18 67.17 105.26 66.84 107.62 66.2 110.45 65.44 111.01 65.31 111.45 65.2 114.48 64.58 117.67 63.92 117.85 63.89 118.06 63.85 121.34 63.39 124.01 63.01 124.74 62.93 125.57 62.84 128.2 62.64 130.46 62.46 131.61 62.41 132.86 62.35 135.06 62.32 137.05 62.29 138.48 62.32 139.93 62.34 141.93 62.43 143.89 62.52 145.38 62.63 146.78 62.74 148.86 62.96 151.08 63.19 152.33 63.36 153.4 63.51 154.67 63.71 154.67 63.71"/>
    <polyline class="Solid-gray-line" points="85.52 84.28 86.35 84.03 92.24 82.39 93.27 82.1 94.33 81.83 100.31 80.34 107.28 78.78 107.38 78.75 107.44 78.74 111.97 77.88 114.69 77.37 116.5 77.07 119.33 76.6 120.99 76.34 122.02 76.19 125.49 75.74 129.34 75.25 129.91 75.19 130.77 75.1 134.35 74.78 136.65 74.57 138.74 74.44 141.81 74.24 143.1 74.17 143.95 74.13 147.5 74.06 151.19 73.97 151.82 73.98 152.77 73.99 156.17 74.06 158.31 74.1 160.48 74.21 163.87 74.39 164.77 74.45 165.32 74.48 166.87 74.63 169.13 74.85 172.2 75.15 173.44 75.32 175.67 75.61 177.79 75.92 178.94 76.08 182.19 76.67 185.49 77.26 186.57 77.5 189 78.02 191.02 78.48 191.88 78.68 195.58 79.66 198.12 80.34 200.2 80.98 204.2 82.21 204.91 82.46 208.11 83.58 209.76 84.17 210.11 84.29 214.84 86.18 215.84 86.58 220.16 88.51 221.42 89.07 224.33 90.51"/>
    <polyline class="Solid-gray-line" points="88.84 87.84 93.07 87.19 95.03 86.92 99.95 86.25 103.66 85.8 106.91 85.41 112.92 84.77 113.98 84.65 116.75 84.4 121.14 84.01 123.16 83.86 128.31 83.5 134.23 83.18 135.51 83.11 137.58 83.03 142.75 82.86 146.55 82.81 149.99 82.77 154.22 82.8 156.24 82.82 157.17 82.84 161.09 82.97 164.3 83.08 165.84 83.17 168.88 83.35 170.54 83.46 171.37 83.51 171.83 83.55 175.19 83.85 178.33 84.14 179.77 84.31 182.55 84.63 184.28 84.84 185.15 84.95 188.75 85.5 191.83 85.97 193.18 86.22 195.9 86.72 197.56 87.04 198.36 87.19 201.92 88 204.7 88.63 206.23 89.03 209.74 89.95 210.52 90.16 210.85 90.25 214.8 91.47 216.76 92.08 218.29 92.62"/>
    <polyline class="Solid-gray-line" points="34.91 68.46 35.26 68.24 38.35 66.61 38.9 66.33 41.32 65.33 42.64 64.79"/>
    <polyline class="Solid-gray-line" points="46.23 66.92 46.5 66.74 47.86 65.83 48.23 65.59 50.69 64.22 51.85 63.58 53.56 62.8 55.55 61.89 56.45 61.56 59.33 60.52 59.37 60.51 59.51 60.47 62.42 59.73 63.24 59.52 65.48 59.13 67.19 58.84 67.19 58.84"/>
    <polyline class="Solid-gray-line" points="40.42 67.31 40.88 67.02 43.05 65.72 45.62 64.45 46.71 63.91 50.3 62.51 50.48 62.44 50.54 62.42 54.39 61.33 54.39 61.33"/>
    <polyline class="Solid-gray-line" points="176.95 94.15 176.95 94.15 177.77 94.22 183.83 94.73 190.1 95.34 190.64 95.4 191.29 95.47 197.34 96.19 201.76 96.79 203.91 97.09 207.3 97.64 210.29 98.12 210.72 98.2"/>
    <polyline class="Solid-gray-line" points="58.39 68.49 59.45 67.69 60.35 67.05 60.68 66.81 63.05 65.31 64.38 64.47 65.76 63.72 68.15 62.42 68.47 62.27 69.3 61.88 71.3 61.01 72.04 60.69 74.15 59.93 75.99 59.27 76.99 58.99 79.44 58.3 79.82 58.2 79.97 58.16 82.76 57.63 84.06 57.39 85.65 57.21 88.05 56.93"/>
    <polyline class="Solid-gray-line" points="69.14 59.08 72.12 58.41 73.11 58.19 75.08 57.9 77.09 57.61 77.1 57.61"/>
    <polyline class="Solid-gray-line" points="57.75 63.76 60.58 62.35 61.49 61.9 63.43 61.1 65.29 60.33 66.28 60.01 69.11 59.09 69.13 59.08"/>
    <polyline class="Solid-gray-line" points="52.35 67.3 52.45 67.22 54.18 65.98 55.09 65.42 57.75 63.77"/>
    <polyline class="Solid-gray-line" points="89.56 56.87 91.39 56.82 92.27 56.79 92.28 56.79"/>
    <polyline class="Solid-gray-line" points="30 70.24 30.87 69.76 32.16 69.06"/>
    <polyline class="Solid-gray-line" points="74.08 75.23 74.27 75.11 74.62 74.88 74.85 74.73 77.67 73.05 79.9 71.73 80.68 71.3 81.83 70.67 83.75 69.68 84.97 69.05 86.85 68.17 89.67 66.85 89.91 66.75 90.05 66.68 93.08 65.5 95.2 64.67 96.18 64.32 97.67 63.81 99.32 63.29 100.37 62.96 102.48 62.38 105.54 61.55 105.57 61.55 105.6 61.54 108.78 60.92 110.85 60.51 111.91 60.35 113.41 60.12 115.06 59.91 116.19 59.77 118.23 59.61 120.99 59.39 121.32 59.37 121.56 59.36 124.52 59.33 127.07 59.3 127.61 59.31 128.31 59.34 130.78 59.48 132.72 59.59 133.89 59.7 135.25 59.84 137.02 60.05 138.25 60.2"/>
    <polyline class="Solid-gray-line" points="64.19 70.3 66.07 68.95 67.24 68.11 68.76 67.14 71.14 65.62 71.45 65.45 72.11 65.07 74.25 63.94 75.17 63.45 77.06 62.57 79.24 61.57 79.86 61.33 81.19 60.81 82.72 60.25 83.4 60 85.62 59.34 87.6 58.75 88.48 58.55 90.29 58.13 91.36 57.91 91.85 57.81 94.3 57.45 96.16 57.19 97.17 57.11 99.14 56.95 100.04 56.9 100.48 56.87 102.96 56.88 104.86 56.89 104.86 56.89"/>
    <polyline class="Solid-gray-line" points="81.99 81.01 85.75 79.44 86.31 79.22 86.74 79.04 90.25 77.74 93.9 76.39 94.11 76.32 94.36 76.23 98.05 75.04 101.18 74.03 101.91 73.81 102.7 73.58 105.81 72.72 108.56 71.96 109.67 71.69 110.85 71.4 113.56 70.79 116 70.23 117.41 69.96 118.89 69.67 121.29 69.25 123.47 68.87 125.13 68.63 126.89 68.38 128.98 68.12 130.86 67.89 132.82 67.71 134.94 67.52 136.65 67.4 138.15 67.29 140.5 67.21 143.13 67.11 144.32 67.09 145.33 67.07 148.21 67.12 151.6 67.18 152.03 67.2 152.38 67.21 155.97 67.47 159.22 67.7 159.83 67.76 160.68 67.85 161.12 67.91 163.79 68.24 165.88 68.5 167.76 68.79 170.73 69.26 171.76 69.44 172.37 69.55 175.9 70.29 178.7 70.87 180.05 71.2 183.03 71.92 184.3 72.25 184.85 72.39 188.77 73.53 190.85 74.13 193.38 74.96 196.74 76.05 198.21 76.58 202.53 78.14 203.36 78.47 208.22 80.4 208.95 80.72 213.81 82.83 215.21 83.5 219.33 85.45 222.54 87.11 224.79 88.27 228.31 90.23 228.69 90.45"/>
    <polyline class="Solid-gray-line" points="69.41 72.63 71.88 70.97 73.67 69.77 74.67 69.16 76.5 68.04 77.49 67.47 78.01 67.17 80.4 65.94 82.43 64.89 83.28 64.5 84.83 63.79 86.19 63.21 86.9 62.91 89.17 62.07 91.42 61.24 92.09 61.03 93.3 60.65 95.07 60.15 96 59.89 98.07 59.42 100.61 58.84 101 58.77 101.69 58.65 104.02 58.31 105.31 58.12 107 57.96 109.76 57.7 109.91 57.7 109.99 57.69 112.92 57.64 114.8 57.61 115.85 57.65 117.43 57.71 118.77 57.79 119.63 57.84"/>
    <polyline class="Solid-gray-line" points="14.62 109.73 15.05 107.41 15.53 104.86 15.82 103.72 16.73 100.13 16.74 100.08 16.79 99.92 17.95 96.54 18.27 95.59 18.95 93.97 20.09 91.24 21.62 88.16 22.15 87.1 23.81 84.29 24.48 83.19 24.74 82.84 27.08 79.56 28.29 78.1 29.89 76.19 32.17 73.85 32.9 73.1 35.31 70.98 36.1 70.31 36.36 70.12 39.5 67.86 40.42 67.31"/>
    <polyline class="Solid-gray-line" points="9.07 113.3 9.52 109.59 9.67 108.42 10.17 105.77 10.58 103.66 11.01 102.01 11.79 99.04 13.06 95.35 13.33 94.6 13.42 94.39 15.19 90.38 15.91 89.05 17.33 86.39 18.78 84.12 19.73 82.63 22.03 79.61 22.38 79.14 23.9 77.45 25.29 75.94 25.67 75.6 28.43 73.06 29.65 72.11 31.76 70.48 33.89 69.12 34.91 68.46"/>
    <polyline class="Solid-gray-line" points="45.47 96.41 48.2 92.91 49.2 91.68 51.04 89.56 53.04 87.27 54.23 86 57 83.17 58.5 81.75 61.01 79.36 61.02 79.35 61.03 79.35 63.7 77.1 65.18 75.86 66.38 74.94 68.51 73.29 69.07 72.88 69.37 72.65 69.41 72.63"/>
    <polyline class="Solid-gray-line" points="39.97 98.19 42.45 94.14 42.87 93.47 43.4 92.72 45.96 89.04 48.36 85.87 49.18 84.84 51.18 82.53 52.56 80.94 53.48 79.97 55.37 77.98 55.83 77.51 56.04 77.3 58.33 75.19 59.68 73.95 60.85 72.98 63.36 70.89 63.38 70.87 63.39 70.87 64.19 70.3"/>
    <polyline class="Solid-gray-line" points="27.22 103.16 28.35 100.12 28.99 98.4 29.68 96.78 30.96 93.81 31.11 93.51 31.49 92.75 32.75 90.34 33.21 89.45 34.3 87.61 35.66 85.31 38.28 81.41 38.29 81.39"/>
    <polyline class="Solid-gray-line" points="38.29 81.39 40.44 78.67 41.16 77.76 42.66 76.08 44.18 74.39 44.96 73.62 47.22 71.4 47.32 71.31 47.35 71.28 49.86 69.19 50.71 68.48 52.35 67.3"/>
    <polyline class="Solid-gray-line" points="33.96 100.37 34.87 98.45 36.19 95.65 36.4 95.27 36.84 94.44 38.66 91.17 40.17 88.73 41.31 86.9 42.93 84.56 43.8 83.37 44.15 82.88 45.94 80.66 47.17 79.13 48.13 78.06 50.31 75.62 50.36 75.56 50.5 75.43 52.79 73.23 53.66 72.41 55.26 71.04 57.11 69.46 57.77 68.97 58.39 68.49"/>
    <polyline class="Solid-gray-line" points="81.76 89 86.25 88.23 86.91 88.13 88.84 87.84"/>
    <polyline class="Solid-gray-line" points="228.69 90.45 230.19 91.31 232.11 92.51 235.51 94.63"/>
    <polyline class="Solid-gray-line" points="54.51 93.9 60.27 89.58 61.19 88.92 66.65 85.17 67.7 84.48 73.34 80.95 74.07 80.52 77.08 78.83 78.35 78.12"/>
    <polyline class="Solid-gray-line" points="20.84 106.25 21.06 105.42 21.65 103.18 22.01 101.88 22.14 101.42 23.18 98.4 23.74 96.78 24.47 95 25.57 92.32 26.84 89.69 27.67 88.06 28.07 87.37 30.02 84.05 31.57 81.76 32.58 80.27 35.16 76.96 35.33 76.75 35.4 76.67 38.32 73.52 39.64 72.29 41.47 70.58 44.13 68.44 44.77 67.92 46.23 66.92"/>
    <polyline class="Solid-gray-line" points="57.32 93.25 60.33 91.55 65.11 89 66.58 88.21 67.45 87.77 73.07 85 76.84 83.25 79.79 81.94 81.99 81.01"/>
    <polyline class="Solid-gray-line" points="50.15 95.06 54.13 91.1 55.03 90.24 58.42 87.18 59.92 85.82 60.35 85.46 64.88 81.78 65.82 81.06 67.11 80.08 68.73 78.91 69.86 78.09 71.69 76.85 74.08 75.23"/>
    <polyline class="Solid-gray-line" points="224.33 90.51 225.81 91.25 226.85 91.76 231.93 94.54 232.15 94.66 232.92 95.13 237.28 97.79"/>
    <polyline class="Solid-gray-line" points="218.29 92.62 219.06 92.89 222.47 94.1 223.32 94.43 226.2 95.58 227.57 96.13 227.96 96.29 231.86 98.06 233.23 98.69 236.17 100.19 238.28 101.26"/>
    <polyline class="Solid-gray-line" points="210.72 98.2 212.01 98.44 214.72 98.95 216.47 99.29 218.39 99.7 221.32 100.34 221.98 100.49 222.42 100.59 225.46 101.37 228.12 102.05 228.89 102.28 230.1 102.63 232.22 103.27 233.56 103.67 235.47 104.32 238.59 105.39 238.68 105.42 238.73 105.44"/>
    <polyline class="Solid-gray-line" points="61.76 92.25 66.63 90.44 69.09 89.59 73.02 88.22 79.48 86.09 79.57 86.06 79.69 86.03 85.52 84.28"/>
  </g>
  <g id="Initial-curve-hidden">
    <g>
      <polyline class="cls-1" points="175.91 94.08 175.28 92.23 175.03 91.5 174.5 90.08 174.09 88.97 173.69 87.96 173.1 86.48 172.2 84.37 172.06 84.05 172.05 84.04 171.83 83.55 171.46 82.75 170.95 81.7 170.81 81.44 169.77 79.43 169.3 78.61 168.53 77.25 167.69 75.9 167.22 75.15 165.95 73.3 165.85 73.16 165.5 72.71 164.38 71.3 163.99 70.86 162.82 69.57 161.84 68.6 161.19 67.97 159.5 66.54 159.48 66.52 159.41 66.47 157.61 65.25 156.71 64.74 155.65 64.14 155.65 64.14 154.67 63.71 153.6 63.23 153.58 63.23 153.55 63.22 151.31 62.53 149.66 62.2 149.66 62.2"/>
      <path class="cls-2" d="M175.91,94.08a105.86,105.86,0,0,0-6-13.87A60.46,60.46,0,0,0,166,73.78,38.4,38.4,0,0,0,161,68.12h0l-1.7-1.47h0l-1.84-1.29h0l-1.95-1.13h0l-2-1h0l-2.25-.74h0l-1.64-.37,1.66.3h0l2.29.64h0l2.08.88h0l2,1.07h0l1.89,1.25h0l1.73,1.44h0a38.48,38.48,0,0,1,5,5.68,56.34,56.34,0,0,1,3.92,6.5,63,63,0,0,1,3.13,6.91C174.38,89.26,175.15,91.67,175.91,94.08Z"/>
    </g>
  </g>
  <g id="surf-backborder">
    <polyline class="Solid-gray-line" points="81.1 57.35 85.65 57.03 88.98 56.89 88.75 56.9 88.75 56.9 88.98 56.89 90.65 56.82 95.81 56.73 101.15 56.77 106.63 56.94 112.21 57.24 117.91 57.67 123.72 58.24 129.63 58.93 135.58 59.76 138.53 60.23 141.59 60.72 141.59 60.72 141.85 60.76 142.04 60.8 147.96 61.86 153.92 63.05 159.86 64.35 165.81 65.78 171.74 67.33 177.63 69 183.45 70.77 189.19 72.65 189.19 72.65 189.19 72.65 189.73 72.82 195.5 74.85 201.15 76.97 206.66 79.18 212.01 81.47 217.19 83.83 222.19 86.27 227 88.78 231.6 91.35 232.81 92.03 231.53 91.32 231.6 91.35 232.81 92.03 233.9 92.87 234.89 93.84 235.76 94.94 236.52 96.16 237.16 97.49 237.7 98.92 238.12 100.44 238.43 102.05 238.63 103.73 238.73 105.47 238.72 107.28 238.6 109.14 238.37 111.04 238.04 112.98 237.61 114.96 237.08 116.96 231.93 114.11 226.56 111.38 220.97 108.77 215.19 106.28 209.21 103.93 206.42 102.92 206.44 102.9 206.42 102.92 203.05 101.71 196.71 99.62 190.23 97.69 183.63 95.91 176.93 94.29 170.1 92.83 163.19 91.53 156.23 90.39 149.21 89.42 142.13 88.63 135.05 88 127.98 87.55 120.91 87.27 113.84 87.16 106.83 87.23 99.91 87.47 93.05 87.89 89.19 88.23 86.25 88.48 79.57 89.25 73.04 90.17 66.65 91.27 60.37 92.53 54.25 93.96 48.34 95.54 42.64 97.27 37.11 99.16 31.78 101.21 26.7 103.38 21.89 105.69 17.31 108.13 12.97 110.71 8.91 113.41 8.41 109.23 8.26 105.1 8.47 101.04 9.04 97.09 9.96 93.28 11.23 89.63 12.84 86.17 14.76 82.93 17 79.93 19.53 77.2 22.34 74.75 25.4 72.61 28.68 70.79 31.99 69.14 35.57 67.58 38.77 66.23 42.42 64.86 46.3 63.6 47.97 63.13 49.36 62.69 53.32 61.58 57.54 60.59 61.95 59.72 63.24 59.52 63.04 59.57 60.39 60.09 57.54 60.59 63.71 59.44 64.63 59.25 69.06 58.54 73.7 57.94 78.55 57.47 83.58 57.12 88.13 56.92"/>
    <polyline class="Solid-gray-line" points="387.65 56.79 386.53 59.19 386.53 59.2 385.71 61.77 385.21 64.49 385.03 67.33 385.17 70.29 385.63 73.33 386.41 76.43 387.55 79.68 388.89 82.72 390.58 85.86 389.8 87.31 388.92 88.75 387.93 90.19 386.83 91.63 385.62 93.06 384.28 94.49 382.83 95.9 381.27 97.28 379.59 98.65 377.77 100 375.84 101.31 373.8 102.58 371.63 103.8 369.34 104.98 366.93 106.1 364.42 107.16 361.8 108.15 359.07 109.07 356.24 109.91 353.32 110.65 350.33 111.31 347.26 111.86 344.12 112.3 340.93 112.63 337.71 112.85 334.46 112.94 331.19 112.9 327.94 112.73 324.7 112.43 321.49 112 318.34 111.42 315.25 110.71 312.26 109.88 309.37 108.91 306.6 107.81 303.96 106.59 301.47 105.25 302.01 102.6 302.34 100.1 302.47 97.49 302.36 95.09 302.03 92.84 301.49 90.78 300.73 88.92 299.78 87.29 298.64 85.92 297.35 84.8 295.91 83.95 298.53 85.35 301.3 86.6 301.3 86.6 301.3 86.6 303.3 87.36 305.99 88.19 305.99 88.19 305.99 88.19 309.2 88.99 312.51 89.63 312.51 89.63 312.51 89.63 315.84 90.1 318.44 90.33 322.02 90.47 322.02 90.47 322.02 90.47 325.61 90.45 329.22 90.26 332.83 89.91 336.4 89.41 339.93 88.76 343.43 87.97 346.86 87.05 350.2 86 353.46 84.83 356.64 83.56 359.72 82.18 362.67 80.72 365.51 79.17 365.51 79.17 368.25 77.54 370.17 76.29 372.29 74.78 372.3 74.78 374.53 73.06 376.65 71.28 378.64 69.47 378.64 69.47 378.64 69.47 380.5 67.64 380.93 67.18 380.92 67.18 382.45 65.39 383.86 63.58 384.78 62.27 384.99 61.94 384.99 61.94 385.99 60.22 386.61 59.03"/>
  </g>
  <g id="surf-back">
    <polyline class="Surface-underlying" points="387.65 56.79 386.53 59.19 386.53 59.2 385.71 61.77 385.21 64.49 385.03 67.33 385.17 70.29 385.63 73.33 386.41 76.43 387.55 79.68 388.89 82.72 390.58 85.86 389.8 87.31 388.92 88.75 387.93 90.19 386.83 91.63 385.62 93.06 384.28 94.49 382.83 95.9 381.27 97.28 379.59 98.65 377.77 100 375.84 101.31 373.8 102.58 371.63 103.8 369.34 104.98 366.93 106.1 364.42 107.16 361.8 108.15 359.07 109.07 356.24 109.91 353.32 110.65 350.33 111.31 347.26 111.86 344.12 112.3 340.93 112.63 337.71 112.85 334.46 112.94 331.19 112.9 327.94 112.73 324.7 112.43 321.49 112 318.34 111.42 315.25 110.71 312.26 109.88 309.37 108.91 306.6 107.81 303.96 106.59 301.47 105.25 302.01 102.6 302.34 100.1 302.47 97.49 302.36 95.09 302.03 92.84 301.49 90.78 300.73 88.92 299.78 87.29 298.64 85.92 297.35 84.8 295.91 83.95 298.53 85.35 301.3 86.6 301.3 86.6 301.3 86.6 303.3 87.36 305.99 88.19 305.99 88.19 305.99 88.19 309.2 88.99 312.51 89.63 312.51 89.63 312.51 89.63 315.84 90.1 318.44 90.33 322.02 90.47 322.02 90.47 322.02 90.47 325.61 90.45 329.22 90.26 332.83 89.91 336.4 89.41 339.93 88.76 343.43 87.97 346.86 87.05 350.2 86 353.46 84.83 356.64 83.56 359.72 82.18 362.67 80.72 365.51 79.17 365.51 79.17 368.25 77.54 370.17 76.29 372.29 74.78 372.3 74.78 374.53 73.06 376.65 71.28 378.64 69.47 378.64 69.47 378.64 69.47 380.5 67.64 380.93 67.18 380.92 67.18 382.45 65.39 383.86 63.58 384.78 62.27 384.99 61.94 384.99 61.94 385.99 60.22 386.61 59.03"/>
    <polyline class="Surface-underlying" points="81.1 57.35 85.65 57.03 88.98 56.89 88.75 56.9 88.75 56.9 88.98 56.89 90.65 56.82 95.81 56.73 101.15 56.77 106.63 56.94 112.21 57.24 117.91 57.67 123.72 58.24 129.63 58.93 135.58 59.76 138.53 60.23 141.59 60.72 141.59 60.72 141.85 60.76 142.04 60.8 147.96 61.86 153.92 63.05 159.86 64.35 165.81 65.78 171.74 67.33 177.63 69 183.45 70.77 189.19 72.65 189.19 72.65 189.19 72.65 189.73 72.82 195.5 74.85 201.15 76.97 206.66 79.18 212.01 81.47 217.19 83.83 222.19 86.27 227 88.78 231.6 91.35 232.81 92.03 231.53 91.32 231.6 91.35 232.81 92.03 233.9 92.87 234.89 93.84 235.76 94.94 236.52 96.16 237.16 97.49 237.7 98.92 238.12 100.44 238.43 102.05 238.63 103.73 238.73 105.47 238.72 107.28 238.6 109.14 238.37 111.04 238.04 112.98 237.61 114.96 237.08 116.96 231.93 114.11 226.56 111.38 220.97 108.77 215.19 106.28 209.21 103.93 206.42 102.92 206.44 102.9 206.42 102.92 203.05 101.71 196.71 99.62 190.23 97.69 183.63 95.91 176.93 94.29 170.1 92.83 163.19 91.53 156.23 90.39 149.21 89.42 142.13 88.63 135.05 88 127.98 87.55 120.91 87.27 113.84 87.16 106.83 87.23 99.91 87.47 93.05 87.89 89.19 88.23 86.25 88.48 79.57 89.25 73.04 90.17 66.65 91.27 60.37 92.53 54.25 93.96 48.34 95.54 42.64 97.27 37.11 99.16 31.78 101.21 26.7 103.38 21.89 105.69 17.31 108.13 12.97 110.71 8.91 113.41 8.41 109.23 8.26 105.1 8.47 101.04 9.04 97.09 9.96 93.28 11.23 89.63 12.84 86.17 14.76 82.93 17 79.93 19.53 77.2 22.34 74.75 25.4 72.61 28.68 70.79 31.99 69.14 35.57 67.58 38.77 66.23 42.42 64.86 46.3 63.6 47.97 63.13 49.36 62.69 53.32 61.58 57.54 60.59 61.95 59.72 63.24 59.52 63.04 59.57 60.39 60.09 57.54 60.59 63.71 59.44 64.63 59.25 69.06 58.54 73.7 57.94 78.55 57.47 83.58 57.12 88.13 56.92"/>
  </g>
  <g id="surf-front">
    <polyline class="Surface-visible" points="380.92 67.18 382.45 65.39 383.86 63.58 384.78 62.27 384.99 61.94 384.99 61.94 385.99 60.22 386.61 59.03 386.88 58.5 386.53 59.19 387.65 56.79 389.08 54.58 390.8 52.56 392.8 50.77 395.06 49.2 397.57 47.88 400.31 46.82 403.25 46.01 406.38 45.47 409.66 45.21 413.09 45.22 416.62 45.5 420.24 46.06 423.91 46.88 427.62 47.97 431.32 49.3 435.09 50.93 438.61 52.7 442.15 54.73 445.58 56.96 448.87 59.38 452 61.96 454.95 64.69 457.69 67.55 460.2 70.51 462.47 73.56 464.48 76.66 466.2 79.8 467.64 82.96 468.78 86.1 469.6 89.21 470.11 92.26 470.3 95.23 470.17 98.09 469.72 100.83 466.08 104.42 462.19 107.91 458.09 111.28 453.77 114.52 449.23 117.66 444.45 120.67 439.5 123.55 434.39 126.26 429.09 128.84 423.61 131.26 417.98 133.53 412.25 135.62 406.39 137.54 400.41 139.3 394.31 140.88 388.17 142.26 381.97 143.47 375.69 144.48 369.35 145.31 363.02 145.94 356.68 146.38 350.33 146.62 343.99 146.66 337.7 146.51 331.46 146.17 325.27 145.62 319.15 144.88 313.14 143.95 307.23 142.83 301.42 141.52 295.74 140.02 290.22 138.34 284.86 136.48 279.68 134.45 274.67 132.25 269.86 129.89 265.25 127.36 264.77 126.13 264.38 124.8 264.08 123.4 263.88 121.93 263.77 120.39 263.76 118.78 263.85 117.12 264.03 115.4 264.31 113.64 264.69 111.84 265.17 110.01 265.75 108.15 266.43 106.27 267.21 104.38 268.09 102.49 269.07 100.61 270.16 98.74 271.31 96.95 272.62 95.11 273.98 93.38 275.44 91.72 276.98 90.15 278.6 88.69 280.27 87.35 282.01 86.16 283.78 85.13 285.59 84.28 287.4 83.63 289.2 83.2 290.98 83 292.7 83.06 294.35 83.37 295.91 83.95 298.53 85.35 301.3 86.6 301.3 86.6 301.3 86.6 303.3 87.36 302.89 87.23 303.3 87.36 305.99 88.19 305.99 88.19 305.99 88.19 309.2 88.99 312.51 89.63 312.51 89.63 312.51 89.63 315.84 90.1 318.44 90.33 322.02 90.47 322.02 90.47 322.02 90.47 325.61 90.45 329.22 90.26 332.83 89.91 336.4 89.41 339.93 88.76 343.43 87.97 346.86 87.05 350.2 86 353.46 84.83 356.64 83.56 359.72 82.18 362.67 80.72 365.51 79.17 365.51 79.17 368.25 77.54 370.17 76.29 372.29 74.78 372.3 74.78 374.53 73.06 376.65 71.28 378.64 69.47 378.64 69.47 378.64 69.47 380.5 67.64 380.93 67.18 382.22 65.79 381.8 66.23 385.92 60.54 386.27 60.01"/>
    <polyline class="Surface-visible" points="81.1 57.35 85.65 57.03 88.98 56.89 88.75 56.9 88.75 56.9 88.98 56.89 90.65 56.82 95.81 56.73 101.15 56.77 106.63 56.94 112.21 57.24 117.91 57.67 123.72 58.24 129.63 58.93 135.58 59.76 138.53 60.23 141.59 60.72 141.59 60.72 141.85 60.76 142.04 60.8 147.96 61.86 153.92 63.05 159.86 64.35 165.81 65.78 171.74 67.33 177.63 69 183.45 70.77 189.19 72.65 189.19 72.65 189.19 72.65 189.73 72.82 195.5 74.85 201.15 76.97 206.66 79.18 212.01 81.47 217.19 83.83 222.19 86.27 227 88.78 231.6 91.35 232.81 92.03 231.53 91.32 231.6 91.35 231.53 91.32 230.31 90.83 228.85 90.47 227.32 90.3 225.7 90.33 223.98 90.56 222.18 91.01 220.31 91.68 218.37 92.58 216.39 93.71 214.38 95.09 212.36 96.7 210.34 98.55 208.37 100.61 206.44 102.9 206.42 102.92 204.6 105.38 202.86 108.03 201.25 110.83 199.81 113.75 198.54 116.74 197.48 119.78 196.64 122.83 196.03 125.84 195.66 128.77 195.54 131.58 195.68 134.33 196.05 136.71 196.66 138.96 193.88 137.44 190.93 136.02 187.84 134.7 184.61 133.49 181.27 132.38 177.83 131.38 174.31 130.5 170.73 129.74 167.12 129.1 163.49 128.58 159.84 128.18 156.21 127.9 152.62 127.74 149.07 127.69 145.56 127.75 142.13 127.92 138.79 128.18 135.54 128.55 132.38 129 129.33 129.55 126.41 130.17 123.61 130.86 120.92 131.63 118.36 132.47 115.95 133.35 113.67 134.29 111.51 135.29 109.49 136.33 107.61 137.4 105.87 138.5 104.25 139.64 102.76 140.81 101.4 142 100.18 143.2 99.08 144.42 98.09 145.65 97.22 146.9 99.1 143.62 100.6 140.27 101.87 136.46 102.74 132.62 103.26 128.65 103.41 124.58 103.21 120.44 102.66 116.26 101.75 112.07 100.49 107.9 98.89 103.79 96.97 99.76 94.75 95.85 92.22 92.08 89.42 88.49 89.19 88.23 86.37 85.1 83.09 81.93 79.6 79.02 75.93 76.37 72.11 74.02 68.17 71.99 64.13 70.27 60.03 68.9 55.89 67.87 51.76 67.21 47.56 66.9 43.62 66.96 39.68 67.39 35.85 68.17 32.18 69.31 28.68 70.79 31.99 69.14 35.57 67.58 38.77 66.23 42.42 64.86 46.3 63.6 47.97 63.13 49.36 62.69 53.32 61.58 57.54 60.59 61.95 59.72 63.24 59.52 63.04 59.57 60.39 60.09 57.54 60.59 63.71 59.44 64.63 59.25 69.06 58.54 73.7 57.94 78.55 57.47 83.58 57.12 88.13 56.92"/>
  </g>
  <g id="pattern-visible">
    <path class="cls-3" d="M320.06,145c-1.29-.2-2.56-.53-3.83-.8s-2.56-.55-3.82-.88l-3.78-1-1.9-.53-1.87-.61-3.72-1.23c-1.23-.44-2.44-.93-3.67-1.39-2.46-.91-4.83-2-7.23-3.06a120.92,120.92,0,0,1-13.79-7.5,115.44,115.44,0,0,1-12.69-9.2c2.16,1.49,4.2,3.11,6.4,4.51l3.25,2.18,3.35,2c2.2,1.4,4.52,2.59,6.79,3.87s4.63,2.4,7,3.44a140.56,140.56,0,0,0,14.5,5.82l1.84.66,1.87.57L312.5,143C315,143.66,317.53,144.35,320.06,145Z"/>
    <path class="cls-3" d="M428.86,128.94a93.13,93.13,0,0,1-20.3.78,166.67,166.67,0,0,1-20.17-2.67c-6.68-1.24-13.28-2.81-19.86-4.46s-13.13-3.38-19.69-5.1c-13.09-3.52-26.23-6.85-39.47-9.74q-9.93-2.19-19.91-4.15c-6.64-1.34-13.3-2.6-20-3.67,6.72.95,13.4,2.09,20.07,3.31s13.31,2.6,19.94,4c13.27,2.82,26.45,6.06,39.56,9.51,6.55,1.75,13.09,3.54,19.65,5.22s13.15,3.29,19.8,4.57a168.26,168.26,0,0,0,20.11,2.8A92.85,92.85,0,0,0,428.86,128.94Z"/>
    <path class="cls-3" d="M469.58,101,469,99.22h0l-.84-1.88h0l-1.12-2h0a49.33,49.33,0,0,0-6.14-7.6c-1.1-1.2-2.32-2.3-3.49-3.42S455,82.19,453.7,81.2c-2.53-2.07-5.2-3.94-7.9-5.78s-5.51-3.48-8.41-5-5.84-2.9-8.82-4.22c-1.52-.59-3-1.26-4.55-1.78s-3.07-1.09-4.64-1.53a64.67,64.67,0,0,0-19.23-3h0l-3.17.2h0l-3,.44h0l-2.85.66h0l-2.67.9h0L386,63.25h0l-2.23,1.39h0l-2,1.6,2-1.66h0L386,63.12h0l2.42-1.21h0l2.65-1h0l2.83-.73h0l3-.49h0l3.17-.24h0a57.71,57.71,0,0,1,9.82.61,73.4,73.4,0,0,1,9.61,2.18,95.56,95.56,0,0,1,9.28,3.29c3,1.3,6,2.69,8.87,4.27a98.41,98.41,0,0,1,16.33,10.94c1.28,1,2.49,2.15,3.71,3.24s2.37,2.27,3.46,3.5a45.67,45.67,0,0,1,6,7.79h0l1.07,2h0l.79,1.9h0Z"/>
    <path class="cls-3" d="M459,110.51a75,75,0,0,0-7.63-7.18c-2.69-2.23-5.43-4.37-8.27-6.41a161.91,161.91,0,0,0-17.74-11.09q-4.61-2.47-9.4-4.58c-3.17-1.45-6.45-2.66-9.73-3.8a88.24,88.24,0,0,0-10.09-2.69,61,61,0,0,0-10.36-1.17h0l-3.23.07h0l-3.13.3h0c-1,.19-2,.36-3,.53h0l-2.88.77h0c-.91.35-1.84.67-2.76,1h0l-2.6,1.27,2.56-1.34h0c.91-.36,1.83-.71,2.73-1.09h0l2.86-.86h0l3-.61h0l3.12-.37h0l3.23-.12h0a62.4,62.4,0,0,1,10.47,1,87,87,0,0,1,10.18,2.66,116.8,116.8,0,0,1,19.25,8.41c3.09,1.66,6.09,3.48,9.06,5.33s5.83,3.9,8.65,6,5.55,4.27,8.17,6.6A75.22,75.22,0,0,1,459,110.51Z"/>
    <path class="cls-3" d="M464.6,105.75l-.83-1.51h0l-1.1-1.64h0c-4.05-5.32-9.13-9.7-14.38-13.78a128.21,128.21,0,0,0-16.78-10.76q-4.41-2.34-9-4.32c-1.51-.68-3.07-1.27-4.6-1.88s-3.13-1.16-4.72-1.62a78.41,78.41,0,0,0-9.66-2.42,59.79,59.79,0,0,0-9.91-.92h0l-3.19.14h0l-3.05.39h0l-2.9.61h0l-2.75.85h0L379.3,70h0l-2.4,1.34h0l-2.18,1.59,2.13-1.65h0l2.36-1.41h0l2.51-1.17h0l2.72-.93h0l2.88-.68h0l3-.44h0l3.19-.19h0a59,59,0,0,1,10,.79,76.14,76.14,0,0,1,9.75,2.38,102,102,0,0,1,18.44,7.86c1.5.79,2.92,1.64,4.37,2.47s2.87,1.72,4.25,2.66c2.82,1.79,5.52,3.78,8.17,5.82s5.14,4.27,7.56,6.58a58.29,58.29,0,0,1,6.56,7.57h0l1.05,1.67h0Z"/>
    <path class="cls-3" d="M357.34,83.24l3-1.19h0l3-1h0c1-.22,2.09-.49,3.13-.75h0c1.08-.17,2.16-.32,3.23-.51h0l3.3-.28h0a60.93,60.93,0,0,1,11.12.63,76.8,76.8,0,0,1,10.88,2.48c3.57,1,7.05,2.37,10.51,3.74s6.81,3,10.13,4.63,6.58,3.44,9.8,5.29,6.37,3.82,9.49,5.83c6.24,4,12.24,8.38,18.26,12.71-6.14-4.15-12.26-8.34-18.54-12.27-3.14-2-6.33-3.86-9.53-5.7s-6.49-3.56-9.8-5.22-6.68-3.16-10.1-4.6-6.87-2.71-10.42-3.76A69,69,0,0,0,373.12,80h0l-3.31.22h0c-1.08.15-2.17.28-3.25.42h0c-1.05.22-2.1.46-3.16.65h0l-3.08.89h0Z"/>
    <path class="cls-3" d="M447.27,118.89c-1.94-.78-3.84-1.66-5.7-2.6s-3.73-1.91-5.57-2.89l-11-6c-7.37-3.94-14.78-7.81-22.41-11.19-3.82-1.68-7.69-3.26-11.6-4.69A111.86,111.86,0,0,0,379,88a73.77,73.77,0,0,0-24.82-1.8h0l-3.75.47h0c-1.28.22-2.55.46-3.83.66h0l-2,.44c-.66.14-1.31.29-2,.4.66-.13,1.31-.3,2-.46l1.95-.48h0c1.27-.24,2.53-.51,3.8-.76h0c1.24-.18,2.49-.39,3.73-.58h0a71.51,71.51,0,0,1,25,1.47,129,129,0,0,1,23.71,8.25c7.63,3.45,15.08,7.3,22.37,11.39l10.93,6.14c1.82,1,3.64,2.06,5.49,3S445.36,118.06,447.27,118.89Z"/>
    <path class="cls-3" d="M441.89,122.16A85.35,85.35,0,0,1,426.34,117c-5-2.12-10-4.41-15-6.65-10-4.49-19.93-9-30.25-12.51a134.5,134.5,0,0,0-15.72-4.45,114.51,114.51,0,0,0-16.17-2.22c-5.44-.35-10.9-.39-16.37-.31-.69,0-1.37,0-2,0l-2.05,0c-1.37,0-2.73-.07-4.1-.12a67.58,67.58,0,0,1-8.17-.6c10.9,1,21.82-.23,32.77.47a106.21,106.21,0,0,1,16.28,2.12,134.81,134.81,0,0,1,15.82,4.41,325.91,325.91,0,0,1,30.25,12.7c5,2.31,9.88,4.65,14.89,6.83A85.38,85.38,0,0,0,441.89,122.16Z"/>
    <path class="cls-3" d="M315,90c-.93,0-1.84-.14-2.76-.21s-1.82-.28-2.74-.42a27.59,27.59,0,0,1-2.7-.58c-.91-.2-1.8-.47-2.67-.75s-1.77-.57-2.62-.93-1.73-.66-2.55-1.1-1.65-.79-2.47-1.25-1.58-.94-2.36-1.44c1.71.73,3.35,1.5,5.06,2.16.84.36,1.7.64,2.57,1s1.71.61,2.59.88,1.73.56,2.62.79,1.76.51,2.65.7C311.43,89.29,313.23,89.62,315,90Z"/>
    <path class="cls-3" d="M437,124.89a82.81,82.81,0,0,1-19.48-4c-6.34-2-12.56-4.34-18.77-6.69-12.41-4.71-24.81-9.52-37.62-12.94a186.56,186.56,0,0,0-19.43-4.17c-6.55-1.08-13.15-1.73-19.74-2.64A184.49,184.49,0,0,1,302.28,91c-3.23-.78-6.44-1.61-9.63-2.56s-6.33-2-9.5-3A204.21,204.21,0,0,0,322,93.94c6.57.86,13.2,1.48,19.76,2.51a183.46,183.46,0,0,1,19.53,4.07c12.85,3.52,25.23,8.41,37.61,13.19,6.19,2.39,12.4,4.76,18.7,6.81A82.62,82.62,0,0,0,437,124.89Z"/>
    <path class="cls-3" d="M432.76,127.05a84,84,0,0,1-20.19-1.56c-6.65-1.28-13.21-3-19.7-4.88-13-3.8-25.8-8.15-38.83-11.71q-9.75-2.73-19.66-4.89l-5-1.05-5-1c-3.32-.66-6.64-1.27-10-1.87l-19.94-3.73c-6.64-1.3-13.26-2.64-19.94-3.71,13.38,2,26.64,4.65,40,7,3.33.58,6.67,1.17,10,1.81l5,.95,5,1q9.93,2.11,19.73,4.78c13,3.65,25.82,8.08,38.77,11.95,6.47,2,13,3.67,19.63,5A84,84,0,0,0,432.76,127.05Z"/>
    <path class="cls-3" d="M426.34,130.06l-2.48.6c-.83.19-1.67.34-2.5.51-1.67.32-3.33.72-5,.92-3.36.5-6.74.89-10.14,1.13a158,158,0,0,1-20.41-.16,277.13,277.13,0,0,1-40.27-6.5c-13.25-3-26.38-6.62-39.52-10.12l-19.7-5.27-19.66-5.43,19.76,5.07L306.13,116c13.16,3.42,26.3,6.9,39.56,9.87a277.29,277.29,0,0,0,40.14,6.74C399.34,133.55,413.09,133.19,426.34,130.06Z"/>
    <path class="cls-3" d="M404.43,138.12a159.49,159.49,0,0,1-36.09,5.64l-4.58.13c-1.52.05-3.05,0-4.57,0-3.06,0-6.12-.21-9.16-.38a182.28,182.28,0,0,1-18.18-2.24A181.49,181.49,0,0,1,314,137.13a175.92,175.92,0,0,1-17.34-5.88,182.41,182.41,0,0,1-32.5-16.71q7.77,4.81,16,8.84a182.47,182.47,0,0,0,16.72,7.33,186.08,186.08,0,0,0,35.1,9.8,180.85,180.85,0,0,0,18.1,2.3c3,.18,6.07.41,9.11.41s6.09,0,9.13,0c1.52,0,3-.14,4.56-.2s3-.17,4.55-.33l4.55-.44,4.52-.6A160.37,160.37,0,0,0,404.43,138.12Z"/>
    <path class="cls-3" d="M467.28,82.16a74.55,74.55,0,0,0-12.92-11.93c-1.2-.86-2.37-1.74-3.61-2.53s-2.45-1.59-3.73-2.33l-1.89-1.13-1.93-1.06c-1.27-.73-2.59-1.36-3.91-2A90.15,90.15,0,0,0,422.85,55a63.8,63.8,0,0,0-17.39-2.18h0l-3.21.23h0l-3.05.46h0l-2.86.7h0l-2.66.93h0l-2.44,1.15h0l-2.19,1.38h0l-1.93,1.6h0l-1.66,1.81h0L385,62l.61-1h0l1.6-1.87h0l1.88-1.67h0L391.23,56h0l2.4-1.23h0l2.64-1h0l2.84-.75h0l3-.51h0l3.2-.28h0A62,62,0,0,1,423,54.31a84.14,84.14,0,0,1,16.56,6.24,91.27,91.27,0,0,1,15.05,9.3A69.19,69.19,0,0,1,467.28,82.16Z"/>
    <path class="cls-3" d="M422.36,131.77a140.48,140.48,0,0,1-39.87,6.57,195.88,195.88,0,0,1-20.27-.61c-6.74-.6-13.44-1.51-20.11-2.66a313.79,313.79,0,0,1-39.23-10.16,363.82,363.82,0,0,1-37.81-14.52c6.2,2.67,12.49,5.13,18.83,7.45s12.7,4.56,19.13,6.6a313.93,313.93,0,0,0,39.22,9.89c6.64,1.19,13.31,2.14,20,2.78a194.72,194.72,0,0,0,20.2.73l5.06-.18,5.05-.33c1.68-.09,3.34-.34,5-.52l2.52-.3,2.5-.37A133.55,133.55,0,0,0,422.36,131.77Z"/>
    <path class="cls-3" d="M380.5,67.64c.2.21.24.27.23.29s-.08,0-.31-.21-.24-.28-.24-.3S380.27,67.45,380.5,67.64Z"/>
    <polygon class="cls-3" points="32.42 68.95 36 67.39 36 67.38 39.95 66.07 39.95 66.07 43.99 65.13 44.01 65.12 48.13 64.55 48.14 64.55 52.2 64.36 52.22 64.36 56.52 64.54 56.54 64.54 60.72 65.09 60.74 65.1 64.92 66.02 64.94 66.02 69.05 67.29 69.08 67.3 73.09 68.93 73.12 68.94 77.01 70.89 77.03 70.9 80.79 73.17 80.81 73.18 84.4 75.74 84.42 75.75 87.82 78.59 87.84 78.61 91.02 81.69 91.04 81.71 94 85.04 94.01 85.06 96.7 88.6 96.71 88.62 99.13 92.33 99.14 92.35 101.26 96.2 101.27 96.23 103.08 100.2 103.09 100.23 104.58 104.28 104.59 104.31 105.74 108.43 105.75 108.45 106.55 112.6 106.55 112.62 107 116.76 107 116.78 107.11 120.88 107.11 120.89 106.86 124.92 106.86 124.94 106.25 128.87 106.25 128.88 105.28 132.67 105.28 132.69 103.92 136.45 103.92 136.46 102.33 139.77 102.33 139.77 100.37 143.01 102.26 139.73 102.26 139.73 103.76 136.39 103.76 136.4 105.04 132.6 105.03 132.61 105.91 128.8 105.91 128.82 106.45 124.88 106.45 124.9 106.65 120.87 106.65 120.89 106.49 116.79 106.5 116.82 105.99 112.68 105.99 112.71 105.14 108.57 105.15 108.6 103.97 104.48 103.97 104.51 102.47 100.46 102.48 100.48 100.65 96.51 100.66 96.53 98.53 92.69 98.54 92.71 96.11 89.01 96.13 89.03 93.43 85.51 93.44 85.53 90.49 82.21 90.5 82.23 87.33 79.13 87.35 79.14 83.97 76.3 83.99 76.31 80.41 73.74 80.44 73.76 76.69 71.48 76.71 71.49 72.82 69.52 72.85 69.53 68.84 67.89 68.86 67.9 64.77 66.58 64.79 66.58 60.63 65.61 60.65 65.62 56.47 65.01 56.49 65.02 52.2 64.78 52.22 64.78 48.16 64.91 48.17 64.91 44.04 65.39 44.05 65.39 39.99 66.25 40 66.24 36.03 67.47 36.03 67.47 32.42 68.95"/>
    <path class="cls-3" d="M11.63,88.75c.5-1,1-2,1.56-3h0l2.45-3.64h0l2.78-3.31,0,0h0c1-1,2.05-2,3.07-3l0,0c1.1-.88,2.2-1.76,3.33-2.61h0c1.18-.75,2.36-1.5,3.56-2.21h0c.51-.25,1-.49,1.53-.72l-1.43.89h0c-1.11.85-2.24,1.66-3.38,2.48l0,0c-1.05.94-2.14,1.83-3.22,2.73l0,0c-1,1-2,2-3,3l0,0-2.85,3.25,0,0L13.49,86h0C12.88,86.91,12.28,87.84,11.63,88.75Z"/>
    <path class="cls-3" d="M81.1,57.35l4,0h0l4.14.36h0l4.06.68h0l4,1h0a70.55,70.55,0,0,1,12.13,5,86.63,86.63,0,0,1,11,7.18A131.9,131.9,0,0,1,139.3,90c5.74,6.61,11.12,13.51,16.53,20.37,2.74,3.41,5.43,6.85,8.27,10.17.68.87,1.41,1.67,2.12,2.49s1.42,1.67,2.17,2.46c1.46,1.62,3,3.16,4.54,4.73-6.38-6-12-12.76-17.5-19.52S144.52,97,138.76,90.45a138.93,138.93,0,0,0-18.7-18.24c-1.76-1.29-3.45-2.63-5.31-3.79s-3.68-2.32-5.56-3.43a69.86,69.86,0,0,0-12-5.17h0l-4-1.1h0l-4-.78h0l-4.13-.46h0Z"/>
    <path class="cls-3" d="M88.05,56.93a1.92,1.92,0,0,1,0-.24h0c0-.13.11-.16.17-.14s.13.12.2.36-.11.33-.17.37-.12,0-.18-.12h0A1,1,0,0,1,88.05,56.93Z"/>
    <path class="cls-3" d="M92.28,56.79l4,.13h0l4.27.47h0A62.2,62.2,0,0,1,115,61.45a82.67,82.67,0,0,1,13.35,6.9,138.44,138.44,0,0,1,12.23,8.73c2,1.52,3.89,3.15,5.84,4.72s3.84,3.22,5.71,4.87l5.66,4.93,5.64,5c3.76,3.29,7.53,6.58,11.24,10,7.42,6.7,14.76,13.56,21.08,21.33A141.27,141.27,0,0,0,185.41,117c-3.61-3.46-7.32-6.81-11.08-10.1L151.69,87.23,146,82.37c-1.93-1.57-3.82-3.21-5.8-4.73A136.74,136.74,0,0,0,128,68.89a75.77,75.77,0,0,0-27.48-11.32h0L96.31,57h0Z"/>
    <path class="cls-3" d="M42.64,64.79l.06,0h0l3.91-1.25h0l4-.88h0l4.05-.53h0l4-.16h0l4.22.21h0l4.12.58h0l4.09.92h0l4,1.26h0l3.92,1.6h0L83,68.46h0l3.71,2.23,0,0,3.55,2.5,0,0L93.68,76l0,0,3.18,3,0,0,2.22,2.42c.77.79,1.42,1.67,2.11,2.53s1.39,1.7,2,2.63l1.86,2.7v0l1.64,2.75c.58.91,1,1.88,1.53,2.83s1,1.9,1.39,2.9l1.26,3v0l1.33,3.87,1.07,4v0l.75,3.85v0l.44,3.77v0l.15,3.66v0l-.15,3.52h0l-.44,3.33h0l-.74,3.23h0l-.94,2.76h0l-1.24,2.61,1.17-2.64h0l.88-2.78h0l.67-3.25h0l.36-3.34v0l.07-3.52h0l-.2-3.66v0l-.49-3.77v0l-.8-3.84h0l-1.12-3.91L110.31,101v0l-1.26-2.94c-.39-1-.92-1.91-1.4-2.86s-.94-1.9-1.52-2.79l-1.65-2.74v0L102.64,87c-.59-.9-1.31-1.72-2-2.58S99.33,82.73,98.57,82l-2.22-2.42,0,0-3.17-3,0,0-3.36-2.78,0,0-3.53-2.52h0L82.67,69l0,0-3.83-2h0L75,65.5h0l-4-1.32h0l-4.07-1h0l-4.12-.63h0l-4.21-.27h0l-4,.08h0l-4.06.43h0l-4,.79h0L42.7,64.77h0Z"/>
    <path class="cls-3" d="M54.39,61.33l4-.81h0l4-.47h0l3.92-.12h0l4.19.25h0l4.06.6h0l4,.93h0l4,1.27h0l3.91,1.6h0l3.79,1.91h0L94,68.72l0,0a67,67,0,0,1,12.4,10.41c1,.95,1.8,2,2.68,3,.43.53.87,1,1.3,1.58l1.22,1.61L112.81,87l1.12,1.69,1.13,1.69c.36.57.69,1.17,1,1.74a75.83,75.83,0,0,1,6.81,14.68,66.27,66.27,0,0,1,3.47,15.78h0l.15,2.67c0,.45,0,.9,0,1.35V128h0l-.19,2.24.13-2.25h0l0-1.34c0-.45,0-.9,0-1.34l-.23-2.67h0a60.74,60.74,0,0,0-1.44-7.93c-.16-.65-.3-1.31-.47-2l-.57-1.93c-.35-1.29-.83-2.55-1.27-3.82a68.81,68.81,0,0,0-3.11-7.42c-.52-1.24-1.18-2.4-1.8-3.59s-1.31-2.35-2-3.5c-.35-.57-.68-1.16-1-1.72l-1.12-1.66-1.12-1.67L111,85.8l-1.22-1.6c-.38-.5-.86-1-1.28-1.53-.88-1-1.71-2.07-2.68-3A66.49,66.49,0,0,0,93.6,69.29h0L90,67.09h0l-3.77-1.93h0l-3.89-1.64h0l-3.94-1.32h0l-4-1h0l-4-.67h0l-4.18-.35h0l-3.92,0h0l-4,.36h0Z"/>
    <path class="cls-3" d="M119.63,57.84l3.24.31,1.62.16,1.61.26,3.21.53c1.07.21,2.13.45,3.19.69A114.74,114.74,0,0,1,145,63.52c8.2,2.95,16,6.73,23.89,10.42l5.89,2.76c2,.94,3.91,1.86,5.89,2.74,3.94,1.8,7.94,3.48,11.95,5.11,8,3.29,16.25,6.07,24.5,8.75-4.14-1.28-8.33-2.41-12.45-3.8s-8.21-2.83-12.26-4.41c-8.13-3.08-16-6.84-23.85-10.47s-15.64-7.51-23.75-10.55A100.57,100.57,0,0,0,119.63,57.84Z"/>
    <path class="cls-3" d="M104.86,56.89c1.17.07,2.33.11,3.5.2s2.31.27,3.47.4l1.74.23c.58.1,1.15.22,1.72.33,1.14.25,2.3.44,3.43.74A92.65,92.65,0,0,1,132,63.32c8.59,3.77,16.59,8.62,24.52,13.55S172.2,87,180.25,91.68q6,3.58,12.15,6.95c4.08,2.25,8.21,4.42,12.4,6.47-4.25-1.94-8.43-4-12.58-6.15S184,94.51,180,92.18c-8.12-4.62-16-9.7-23.85-14.67a202,202,0,0,0-24.35-13.66,92.93,92.93,0,0,0-13.13-4.71c-1.11-.32-2.26-.54-3.39-.82-.57-.12-1.14-.26-1.71-.37l-1.72-.27c-1.16-.16-2.3-.42-3.46-.5S106,57,104.86,56.89Z"/>
    <path class="cls-3" d="M138.25,60.2a4.18,4.18,0,0,1,1.95-.08,4.49,4.49,0,0,1,1.84.68,4.82,4.82,0,0,1-2,.06A5,5,0,0,1,138.25,60.2Z"/>
    <path class="cls-3" d="M77.1,57.61a3.85,3.85,0,0,1,3.33-.22,3.58,3.58,0,0,1-1.65.48A3.45,3.45,0,0,1,77.1,57.61Z"/>
    <path class="cls-3" d="M144.44,61.23c3.56.72,7.13,1.48,10.63,2.47s7,2.12,10.43,3.21l10.28,3.67L186,74.45l20.39,7.76c6.81,2.54,13.63,5.11,20.26,8.1-1.69-.68-3.35-1.41-5-2l-5.1-1.94c-3.38-1.33-6.82-2.53-10.23-3.8L185.8,74.91,175.63,71l-10.24-3.74c-3.46-1.12-6.88-2.35-10.39-3.3S148,62,144.44,61.23Z"/>
    <path class="cls-3" d="M32.16,69.06,32,68.73s0,.06.18.32a3.56,3.56,0,0,1,.17.34Z"/>
    <path class="cls-3" d="M178.34,69.22q6.43,1.78,12.77,4c2.12.69,4.21,1.47,6.3,2.25s4.17,1.58,6.25,2.39c4.13,1.68,8.22,3.43,12.28,5.29,2,.95,4,1.91,6,2.94s4,2.06,5.88,3.18c-4-1.9-8-3.85-12.12-5.59L209.56,81c-2.06-.84-4.1-1.72-6.18-2.51-4.13-1.69-8.28-3.27-12.46-4.8S182.54,70.71,178.34,69.22Z"/>
    <path class="cls-3" d="M67.19,58.84l4-.4h0l3.92,0h0l4.14.29h0l4,.63h0l4,1h0l4,1.3h0l3.86,1.59h0a63.57,63.57,0,0,1,9.15,5.2c.73.49,1.46,1,2.18,1.48l2.08,1.61c1.43,1,2.7,2.26,4,3.39A90.6,90.6,0,0,1,126.4,90.72c2.06,2.83,3.89,5.85,5.69,8.84q1.31,2.3,2.56,4.59c.81,1.55,1.64,3.1,2.42,4.67,3.21,6.22,5.87,12.71,9.08,18.92-1.71-3-3.22-6.21-4.78-9.34s-3.08-6.28-4.72-9.37a151.26,151.26,0,0,0-10.81-17.91,94.75,94.75,0,0,0-13.73-15.71A72.64,72.64,0,0,0,94.88,63.72h0l-3.84-1.65h0l-3.93-1.35h0l-4-1h0l-4-.71h0l-4.13-.4h0l-3.92-.05h0Z"/>
  </g>
  <g id="initial-curve">
    <path class="cls-4" d="M320.06,145c3.09-4.61,5.76-9.49,8.57-14.27s5.72-9.52,8.85-14.11a140.84,140.84,0,0,1,10.07-13.28,132.29,132.29,0,0,1,11.67-11.89c8.31-7.4,17.27-14,25.39-21.54a230,230,0,0,0,22.51-24.49c-1.77,2.15-3.45,4.35-5.22,6.49s-3.58,4.25-5.41,6.33q-5.58,6.2-11.65,11.91c-8.1,7.62-17,14.26-25.28,21.67a131.5,131.5,0,0,0-11.7,11.79,142.17,142.17,0,0,0-10.11,13.19c-3.15,4.57-6.05,9.3-8.91,14.06S323.22,140.42,320.06,145Z"/>
    <path class="cls-4" d="M149,62.06c-.89-.09-1.79-.14-2.68-.21h0l-2.82,0h0l-3.14.35h0A92.13,92.13,0,0,0,125,66.33c-5,1.68-10,3.48-15.11,5.1s-10.19,3.09-15.39,4.24c-2.59.59-5.2,1.14-7.82,1.58s-5.27.76-7.9,1.17c5.25-.86,10.48-1.81,15.64-3.09s10.27-2.72,15.32-4.36l15.13-5A84.89,84.89,0,0,1,140.32,62h0l3.16-.26h0l2.82,0h0C147.2,61.87,148.09,62,149,62.06Z"/>
  </g>
  <g id="surf-frontborder">
    <polyline class="Solid-Black-Thick-Line" points="380.92 67.18 382.45 65.39 383.86 63.58 384.78 62.27 384.99 61.94 384.99 61.94 385.99 60.22 386.61 59.03 386.88 58.5 386.53 59.19 387.65 56.79 389.08 54.58 390.8 52.56 392.8 50.77 395.06 49.2 397.57 47.88 400.31 46.82 403.25 46.01 406.38 45.47 409.66 45.21 413.09 45.22 416.62 45.5 420.24 46.06 423.91 46.88 427.62 47.97 431.32 49.3 435.09 50.93 438.61 52.7 442.15 54.73 445.58 56.96 448.87 59.38 452 61.96 454.95 64.69 457.69 67.55 460.2 70.51 462.47 73.56 464.48 76.66 466.2 79.8 467.64 82.96 468.78 86.1 469.6 89.21 470.11 92.26 470.3 95.23 470.17 98.09 469.72 100.83 466.08 104.42 462.19 107.91 458.09 111.28 453.77 114.52 449.23 117.66 444.45 120.67 439.5 123.55 434.39 126.26 429.09 128.84 423.61 131.26 417.98 133.53 412.25 135.62 406.39 137.54 400.41 139.3 394.31 140.88 388.17 142.26 381.97 143.47 375.69 144.48 369.35 145.31 363.02 145.94 356.68 146.38 350.33 146.62 343.99 146.66 337.7 146.51 331.46 146.17 325.27 145.62 319.15 144.88 313.14 143.95 307.23 142.83 301.42 141.52 295.74 140.02 290.22 138.34 284.86 136.48 279.68 134.45 274.67 132.25 269.86 129.89 265.25 127.36 264.77 126.13 264.38 124.8 264.08 123.4 263.88 121.93 263.77 120.39 263.76 118.78 263.85 117.12 264.03 115.4 264.31 113.64 264.69 111.84 265.17 110.01 265.75 108.15 266.43 106.27 267.21 104.38 268.09 102.49 269.07 100.61 270.16 98.74 271.31 96.95 272.62 95.11 273.98 93.38 275.44 91.72 276.98 90.15 278.6 88.69 280.27 87.35 282.01 86.16 283.78 85.13 285.59 84.28 287.4 83.63 289.2 83.2 290.98 83 292.7 83.06 294.35 83.37 295.91 83.95 298.53 85.35 301.3 86.6 301.3 86.6 301.3 86.6 303.3 87.36 302.89 87.23 303.3 87.36 305.99 88.19 305.99 88.19 305.99 88.19 309.2 88.99 312.51 89.63 312.51 89.63 312.51 89.63 315.84 90.1 318.44 90.33 322.02 90.47 322.02 90.47 322.02 90.47 325.61 90.45 329.22 90.26 332.83 89.91 336.4 89.41 339.93 88.76 343.43 87.97 346.86 87.05 350.2 86 353.46 84.83 356.64 83.56 359.72 82.18 362.67 80.72 365.51 79.17 365.51 79.17 368.25 77.54 370.17 76.29 372.29 74.78 372.3 74.78 374.53 73.06 376.65 71.28 378.64 69.47 378.64 69.47 378.64 69.47 380.5 67.64 380.93 67.18 382.22 65.79 381.8 66.23 385.92 60.54 386.27 60.01"/>
    <polyline class="Solid-Black-Thick-Line" points="31.99 69.14 28.68 70.79 25.4 72.61 22.34 74.75 19.53 77.2 17 79.93 14.76 82.93 12.84 86.17 11.23 89.63 9.96 93.28 9.04 97.09 8.47 101.04 8.26 105.1 8.41 109.23 8.91 113.41 12.97 110.71 17.31 108.13 21.89 105.69 26.7 103.38 31.78 101.21 37.11 99.16 42.64 97.27 48.34 95.54 54.25 93.96 60.37 92.53 66.65 91.27 73.04 90.17 79.57 89.25 86.25 88.48 89.19 88.23"/>
    <polyline class="Solid-Black-Thick-Line" points="206.42 102.92 209.21 103.93 215.19 106.28 220.97 108.77 226.56 111.38 231.93 114.11 237.08 116.96 237.61 114.96 238.04 112.98 238.37 111.04 238.6 109.14 238.72 107.28 238.73 105.47 238.63 103.73 238.43 102.05 238.12 100.44 237.7 98.92 237.16 97.49 236.52 96.16 235.76 94.94 234.89 93.84 233.9 92.87 232.81 92.03"/>
    <polyline class="Solid-Black-Thick-Line" points="81.1 57.35 85.65 57.03 88.98 56.89 88.75 56.9 88.75 56.9 88.98 56.89 90.65 56.82 95.81 56.73 101.15 56.77 106.63 56.94 112.21 57.24 117.91 57.67 123.72 58.24 129.63 58.93 135.58 59.76 138.53 60.23 141.59 60.72 141.59 60.72 141.85 60.76 142.04 60.8 147.96 61.86 153.92 63.05 159.86 64.35 165.81 65.78 171.74 67.33 177.63 69 183.45 70.77 189.19 72.65 189.19 72.65 189.19 72.65 189.73 72.82 195.5 74.85 201.15 76.97 206.66 79.18 212.01 81.47 217.19 83.83 222.19 86.27 227 88.78 231.6 91.35 232.81 92.03 231.53 91.32 231.6 91.35 231.53 91.32 230.31 90.83 228.85 90.47 227.32 90.3 225.7 90.33 223.98 90.56 222.18 91.01 220.31 91.68 218.37 92.58 216.39 93.71 214.38 95.09 212.36 96.7 210.34 98.55 208.37 100.61 206.44 102.9 206.42 102.92 204.6 105.38 202.86 108.03 201.25 110.83 199.81 113.75 198.54 116.74 197.48 119.78 196.64 122.83 196.03 125.84 195.66 128.77 195.54 131.58 195.68 134.33 196.05 136.71 196.66 138.96 193.88 137.44 190.93 136.02 187.84 134.7 184.61 133.49 181.27 132.38 177.83 131.38 174.31 130.5 170.73 129.74 167.12 129.1 163.49 128.58 159.84 128.18 156.21 127.9 152.62 127.74 149.07 127.69 145.56 127.75 142.13 127.92 138.79 128.18 135.54 128.55 132.38 129 129.33 129.55 126.41 130.17 123.61 130.86 120.92 131.63 118.36 132.47 115.95 133.35 113.67 134.29 111.51 135.29 109.49 136.33 107.61 137.4 105.87 138.5 104.25 139.64 102.76 140.81 101.4 142 100.18 143.2 99.08 144.42 98.09 145.65 97.22 146.9 99.1 143.62 100.6 140.27 101.87 136.46 102.74 132.62 103.26 128.65 103.41 124.58 103.21 120.44 102.66 116.26 101.75 112.07 100.49 107.9 98.89 103.79 96.97 99.76 94.75 95.85 92.22 92.08 89.42 88.49 89.19 88.23 86.37 85.1 83.09 81.93 79.6 79.02 75.93 76.37 72.11 74.02 68.17 71.99 64.13 70.27 60.03 68.9 55.89 67.87 51.76 67.21 47.56 66.9 43.62 66.96 39.68 67.39 35.85 68.17 32.18 69.31 28.68 70.79 31.99 69.14 35.57 67.58 38.77 66.23 42.42 64.86 46.3 63.6 47.97 63.13 49.36 62.69 53.32 61.58 57.54 60.59 61.95 59.72 63.24 59.52 63.04 59.57 60.39 60.09 57.54 60.59 63.71 59.44 64.63 59.25 69.06 58.54 73.7 57.94 78.55 57.47 83.58 57.12 88.13 56.92"/>
  </g>
</svg>
