<svg xmlns="http://www.w3.org/2000/svg" viewBox="0 0 481.89 198.43">
  <defs>
    <style>
      .Solid-Black-Thick-Line, .Solid-gray-line {
        fill: none;
      }

      .Solid-gray-line {
        stroke: #b2b2b2;
        stroke-linecap: round;
        stroke-linejoin: round;
        stroke-width: 0.25px;
      }

      .Surface-underlying {
        fill: #e66526;
        opacity: 0.15;
      }

      .Surface-visible {
        fill: #3f82c4;
        opacity: 0.5;
      }

      .cls-1 {
        fill: #fff;
      }

      .cls-2 {
        fill: #c91517;
      }

      .Solid-Black-Thick-Line {
        stroke: #1d1d1b;
        stroke-miterlimit: 10;
        stroke-width: 0.93px;
      }
    </style>
  </defs>
  <title>ParallelTransport-Double</title>
  <g id="Parallel_Transport_Results_-_Positive" data-name="Parallel Transport Results - Positive">
    <g id="pattern-hidden-2" data-name="pattern-hidden">
      <polyline class="Solid-gray-line" points="207.75 60.18 205.57 59.17 205.17 58.99 203.24 58.4 202.39 58.14 200.81 57.87 199.44 57.64 198.3 57.6 196.34 57.52 195.73 57.56 193.23 57.76 193.13 57.77 193.11 57.77 190.46 58.31 189.73 58.45 187.8 59.05 186.28 59.53 185.16 60 182.79 60.99 181.89 61.46"/>
      <polyline class="Solid-gray-line" points="55.14 73.54 55.17 73.53 55.4 73.42 55.46 73.43 55.77 73.49 55.87 73.55 56.24 73.76 56.4 73.88 56.83 74.23 57.05 74.44 57.54 74.91 57.85 75.25 58.36 75.81"/>
      <polyline class="Solid-gray-line" points="118.14 50.06 117.97 50.16 117.46 50.47 117.21 50.73 116.83 51.15 116.52 51.69 116.27 52.1 115.91 53.04 115.79 53.34 115.4 54.84 115.4 54.87 115.38 55.01 115.1 56.71"/>
      <polyline class="Solid-gray-line" points="40.17 82.46 40.33 82.37 40.59 82.23 40.8 82.2 41.12 82.17 41.4 82.22 41.78 82.29 42.12 82.43 42.55 82.6 42.97 82.84 43.45 83.11 43.96 83.46 44.47 83.82"/>
      <polyline class="Solid-gray-line" points="118.78 49.93 118.78 49.93 118.21 50.05"/>
      <polyline class="Solid-gray-line" points="165.33 47.19 165.32 47.19 164.04 47.06 163.2 47.13 162.24 47.21 160.98 47.54 160.4 47.69 158.66 48.46 158.55 48.51 158.16 48.75 156.69 49.7 156.18 50.12 154.84 51.25 153.61 52.53 153.02 53.15 151.81 54.7 151.26 55.41 150.94 55.93 149.57 58.06"/>
      <polyline class="Solid-gray-line" points="150.22 46.5 149.27 46.54 148.81 46.56 147.59 46.87 147.39 46.93 146.4 47.4 145.98 47.61 145.87 47.69 144.57 48.65 144.09 49.12 143.19 50.01 142.32 51.12 141.87 51.69 140.73 53.53 140.62 53.71 140.57 53.8 139.44 56.1"/>
      <polyline class="Solid-gray-line" points="194.77 54.06 194.77 54.06 193.64 53.67 192.42 53.24 191.58 53.09 189.92 52.77 189.45 52.75 187.31 52.65 187.27 52.65 187.07 52.67 185.03 52.88 184.57 52.93 182.76 53.34 181.74 53.58 180.5 54.02 178.86 54.61 178.25 54.91 176.29 55.85 176.02 55.98 175.94 56.02 175.76 56.14 172.97 57.87 171.05 59.32 170.02 60.1 168.56 61.41 167.1 62.74 165.71 64.21 164.22 65.78"/>
      <polyline class="Solid-gray-line" points="178.58 49.23 178.57 49.23 178.44 49.22 176.4 49.11 175.91 49.16 174.13 49.34 173.04 49.61 171.82 49.91 170 50.64 169.46 50.85 167.87 51.72 167.09 52.16 166.75 52.4 164.69 53.88 163.22 55.16 162.32 55.96 160.75 57.62 159.99 58.42 159.42 59.15 157.72 61.29"/>
      <polyline class="Solid-gray-line" points="102.39 53.93 102.21 54.05 101.99 54.2 101.8 54.48 101.65 54.71 101.47 55.23 101.39 55.48 101.25 56.33 101.22 56.51 101.14 57.78 101.14 57.81 101.14 57.97 101.18 59.39"/>
      <polyline class="Solid-gray-line" points="86.3 59.26 86.2 59.35 86.14 59.4 86.08 59.66 86.05 59.76 86.06 60.24 86.06 60.35 86.15 61.11 86.16 61.19 86.33 62.07 86.37 62.26 86.38 62.3 86.7 63.6"/>
      <polyline class="Solid-gray-line" points="134.16 47.48 133.2 47.7 133.1 47.72 133.09 47.73 132.06 48.28 131.86 48.45 131.06 49.14 130.67 49.61 130.11 50.3 129.53 51.25 129.22 51.76 128.47 53.41 128.41 53.53 128.25 53.99 127.69 55.64"/>
      <polyline class="Solid-gray-line" points="26.57 91.94 27 91.68 27.19 91.56 27.72 91.41 27.93 91.34 28.57 91.3 28.8 91.28 29.55 91.38 29.81 91.41 30.68 91.64 30.95 91.71 31.94 92.1 32.21 92.21"/>
      <polyline class="Solid-gray-line" points="70.55 65.81 70.61 65.8 70.62 65.8 70.79 66 70.79 66.01 70.98 66.29 71.07 66.42 71.08 66.44 71.45 67.07 71.5 67.17 71.94 67.94 72.07 68.17 72.55 69.04"/>
      <polyline class="Solid-gray-line" points="421.25 54.09 421.37 54.05 422.06 53.81 422.07 53.81 422.8 53.72 422.82 53.72 423.38 53.79"/>
      <polyline class="Solid-gray-line" points="332.16 61.92 331.82 61.39 331.08 60.2 330.71 59.67 330.06 58.73 329.69 58.25 329.12 57.52 328.75 57.12 328.25 56.57 327.91 56.27 327.49 55.9 327.15 55.69 326.74 55.44 326.45 55.36 326.1 55.26 325.86 55.3 325.58 55.34"/>
      <polyline class="Solid-gray-line" points="359.01 54.59 358.89 53.79 358.76 52.92 358.64 52.17 358.54 51.48 358.43 50.82 358.34 50.29 358.24 49.73 358.17 49.33 358.09 48.91 358.03 48.63 357.96 48.31 357.92 48.12 357.86 47.95 357.83 47.85 357.8 47.84 357.78 47.83"/>
      <polyline class="Solid-gray-line" points="345.23 57.55 344.64 55.94 344.6 55.82 344.02 54.37 344.01 54.34 343.72 53.68 343.47 53.11 343.46 53.09 342.98 52.13 342.96 52.1 342.56 51.43 342.53 51.41 342.15 50.93 342.13 50.91 341.8 50.69 341.78 50.69 341.52 50.7"/>
      <polyline class="Solid-gray-line" points="320.66 67.18 319.23 65.72 319.06 65.54 317.67 64.28 317.54 64.16 316.21 63.12 316.11 63.05 314.87 62.25 314.79 62.2 313.7 61.66 313.63 61.63 312.56 61.31 312.48 61.29 311.56 61.24 311.47 61.23 310.73 61.41 310.65 61.44"/>
      <polyline class="Solid-gray-line" points="309.14 74.11 308.75 73.8 307.13 72.55 306.67 72.23 305.22 71.25 304.72 70.96 303.42 70.22 302.92 70 301.74 69.47 301.28 69.32 300.26 69 299.8 68.93 298.8 68.78 298.4 68.8 297.51 68.84 297.19 68.94 296.44 69.17"/>
      <polyline class="Solid-gray-line" points="291.14 89.78 288.77 88.87 288.17 88.64 285.96 87.97 285.33 87.78 283.27 87.33 282.64 87.19 280.7 86.95 280.13 86.88 278.38 86.84 277.89 86.83 276.1 87.03 275.65 87.08 274.01 87.52 273.68 87.61 272.24 88.28 272.04 88.38 270.7 89.34 270.59 89.42"/>
      <polyline class="Solid-gray-line" points="299.7 81.41 297.82 80.4 297.17 80.06 295.31 79.22 294.75 78.97 292.97 78.34 292.47 78.16 292.02 78.04 290.34 77.61 289.93 77.56 288.45 77.35 288.03 77.35 286.57 77.35 286.17 77.42 284.93 77.64 284.55 77.79 283.56 78.18 283.19 78.43 282.36 78.98"/>
      <polyline class="Solid-gray-line" points="258.85 102.76 259.4 102.13 260.23 101.19 260.98 100.6 261.87 99.9 262.81 99.38 263.75 98.87 264.98 98.43 266.01 98.06 267.49 97.75 268.58 97.52 270.12 97.38 271.16 97.28 272.93 97.3 274.06 97.31 275.96 97.48 277.16 97.6 279.13 97.94 280.43 98.16 282.42 98.64 283.84 98.98"/>
      <polyline class="Solid-gray-line" points="443.95 70.1 444.3 69.87 445.33 69.21 445.69 69.01 446.65 68.48 447 68.32 447.89 67.92 448.24 67.8 449.06 67.52 449.38 67.44 450.11 67.28 450.44 67.25 451.16 67.17 451.47 67.19 452.12 67.22 452.39 67.28 452.93 67.41 453.19 67.52 453.68 67.73"/>
      <polyline class="Solid-gray-line" points="431.06 63.42 431.75 62.79 432.23 62.37 432.92 61.83 433.35 61.5 434.02 61.05 434.41 60.8 435.06 60.46 435.41 60.27 436.01 60.04 436.31 59.93 436.93 59.79 437.22 59.72 437.79 59.69 438.05 59.68 438.54 59.76 438.76 59.8 439.22 59.98 439.42 60.06 439.43 60.06"/>
      <polyline class="Solid-gray-line" points="402.4 54.83 402.58 54.51 403.15 53.49 403.36 53.18 403.88 52.36 404.1 52.07 404.57 51.43 404.8 51.17 405.23 50.69 405.45 50.5 405.82 50.17 406.07 50.03 406.44 49.8 406.67 49.73 407 49.63 407.22 49.64 407.5 49.65 407.5 49.65"/>
      <polyline class="Solid-gray-line" points="416.7 58.16 417.58 57.11 417.7 56.96 418.58 56.05 418.66 55.96 419.53 55.2 419.58 55.15 420.43 54.54 420.46 54.52 421.25 54.09"/>
      <polyline class="Solid-gray-line" points="388.1 53.16 388.39 52.13 388.52 51.69 388.82 50.76 388.93 50.43 389.24 49.63 389.33 49.38 389.64 48.72 389.72 48.54 390.01 48.06 390.08 47.94 390.39 47.57 390.46 47.49 390.75 47.3 390.81 47.27 391.08 47.25 391.13 47.25"/>
      <polyline class="Solid-gray-line" points="372.81 53.09 372.91 52.12 372.98 51.49 372.99 51.46 373.16 50.13 373.18 50.05 373.34 49 373.36 48.9 373.53 48.09 373.56 47.99 373.71 47.43 373.74 47.34 373.91 46.94 373.94 46.89 374.1 46.68 374.14 46.67 374.29 46.65"/>
    </g>
    <g id="surf-backborder-2" data-name="surf-backborder">
      <polyline class="Solid-gray-line" points="14.02 102.14 18.53 98.27 23.22 94.47 28.08 90.77 33.09 87.16 38.26 83.65 43.56 80.26 48.98 76.99 54.5 73.85 60.09 70.87 65.73 68.04 71.45 65.36 77.19 62.84 82.94 60.5 88.69 58.33 94.45 56.34 100.17 54.53 105.83 52.92 111.44 51.49 117 50.25 118.14 50.03 118.21 50.02 118.31 49.99 123.92 48.92 129.41 48.05 134.79 47.37 140.09 46.88 146.44 46.58 141.99 46.82 140.09 46.88 145.24 46.6 146.44 46.58 147.29 46.53 152.43 46.44 157.42 46.54 162.28 46.84 164.73 47.09 169.56 47.6 174.2 48.31 178.58 49.2 181.42 49.85 185.82 50.98 190.03 52.31 192.97 53.35 197.07 54.91 200.92 56.65 203.94 58.13 207.7 60.12 211.24 62.3 214.26 64.23 217.64 66.67 217.64 66.7 214.51 64.69 211.13 63.02 207.53 61.68 203.74 60.69 199.78 60.06 195.69 59.79 191.51 59.88 187.27 60.34 183 61.16 178.73 62.34 174.5 63.85 170.35 65.7 166.31 67.87 164.69 66.19 162.88 64.61 160.88 63.15 158.7 61.81 156.33 60.57 153.75 59.46 151 58.48 148.08 57.63 144.97 56.93 141.68 56.37 138.21 55.95 134.59 55.69 130.82 55.59 126.87 55.65 122.77 55.87 118.55 56.27 114.21 56.83 109.74 57.56 105.14 58.47 100.47 59.55 95.72 60.8 90.89 62.23 85.99 63.83 81.07 65.6 76.13 67.53 71.17 69.63 66.2 71.89 61.28 74.29 56.39 76.84 51.55 79.53 46.78 82.36 42.11 85.31 37.56 88.36 33.14 91.51 28.86 94.75 24.73 98.08 20.77 101.47 19.3 101.16 17.97 101.03 16.77 101.07 15.72 101.28 14.8 101.65 14.02 102.17"/>
      <polyline class="Solid-gray-line" points="467.43 77.17 462.68 73.48 457.71 70 457.53 69.88 457.04 69.54 451.91 66.3 446.6 63.29 441.1 60.51 435.43 57.95 429.61 55.64 429.56 55.63 429.56 55.63 429.05 55.42 423.13 53.38 417.11 51.59 410.99 50.05 404.76 48.78 398.46 47.76 392.13 47.01 385.74 46.52 379.31 46.3 372.87 46.34 366.46 46.65 360.06 47.22 353.66 48.05 347.33 49.14 341.08 50.48 334.91 52.07 328.79 53.91 322.8 55.99 316.94 58.3 311.22 60.84 305.62 63.61 300.17 66.6 294.91 69.79 294.49 70.07 294.09 70.31 288.95 73.74 283.96 77.39 279.16 81.24 274.6 85.25 270.27 89.41 266.17 93.75 265.64 94.36 265.11 94.92 261.15 99.51 257.45 104.24 257.45 104.55 258.64 103.21 260.14 102.11 261.93 101.22 264.14 100.5 266.69 100.01 269.29 99.78 272.26 99.76 275.45 99.97 278.84 100.4 282.4 101.06 284.92 97.41 287.66 93.83 290.6 90.36 293.73 86.99 297.09 83.72 300.66 80.55 304.42 77.52 308.35 74.64 312.47 71.89 316.78 69.29 321.27 66.85 325.89 64.59 330.66 62.5 335.59 60.6 340.66 58.88 345.82 57.38 351.09 56.08 356.46 54.99 361.93 54.12 367.44 53.48 373 53.08 378.61 52.9 384.26 52.96 389.88 53.26 395.5 53.8 401.09 54.59 406.65 55.62 412.13 56.88 417.53 58.39 422.85 60.13 428.06 62.12 433.13 64.32 438.05 66.75 442.8 69.38 447.37 72.22 451.76 75.27 455.95 78.51 457.49 77.75 458.95 77.15 460.34 76.7 461.63 76.41 462.79 76.25 463.95 76.24 465 76.36 465.89 76.61 466.7 76.98 467.43 77.48"/>
    </g>
    <g id="surf-back-2" data-name="surf-back">
      <polyline class="Surface-underlying" points="14.02 102.14 18.53 98.27 23.22 94.47 28.08 90.77 33.09 87.16 38.26 83.65 43.56 80.26 48.98 76.99 54.5 73.85 60.09 70.87 65.73 68.04 71.45 65.36 77.19 62.84 82.94 60.5 88.69 58.33 94.45 56.34 100.17 54.53 105.83 52.92 111.44 51.49 117 50.25 118.14 50.03 118.21 50.02 118.31 49.99 123.92 48.92 129.41 48.05 134.79 47.37 140.09 46.88 146.44 46.58 141.99 46.82 140.09 46.88 145.24 46.6 146.44 46.58 147.29 46.53 152.43 46.44 157.42 46.54 162.28 46.84 164.73 47.09 169.56 47.6 174.2 48.31 178.58 49.2 181.42 49.85 185.82 50.98 190.03 52.31 192.97 53.35 197.07 54.91 200.92 56.65 203.94 58.13 207.7 60.12 211.24 62.3 214.26 64.23 217.64 66.67 217.64 66.7 214.51 64.69 211.13 63.02 207.53 61.68 203.74 60.69 199.78 60.06 195.69 59.79 191.51 59.88 187.27 60.34 183 61.16 178.73 62.34 174.5 63.85 170.35 65.7 166.31 67.87 164.69 66.19 162.88 64.61 160.88 63.15 158.7 61.81 156.33 60.57 153.75 59.46 151 58.48 148.08 57.63 144.97 56.93 141.68 56.37 138.21 55.95 134.59 55.69 130.82 55.59 126.87 55.65 122.77 55.87 118.55 56.27 114.21 56.83 109.74 57.56 105.14 58.47 100.47 59.55 95.72 60.8 90.89 62.23 85.99 63.83 81.07 65.6 76.13 67.53 71.17 69.63 66.2 71.89 61.28 74.29 56.39 76.84 51.55 79.53 46.78 82.36 42.11 85.31 37.56 88.36 33.14 91.51 28.86 94.75 24.73 98.08 20.77 101.47 19.3 101.16 17.97 101.03 16.77 101.07 15.72 101.28 14.8 101.65 14.02 102.17"/>
      <polyline class="Surface-underlying" points="467.43 77.17 462.68 73.48 457.71 70 457.53 69.88 457.04 69.54 451.91 66.3 446.6 63.29 441.1 60.51 435.43 57.95 429.61 55.64 429.56 55.63 429.56 55.63 429.05 55.42 423.13 53.38 417.11 51.59 410.99 50.05 404.76 48.78 398.46 47.76 392.13 47.01 385.74 46.52 379.31 46.3 372.87 46.34 366.46 46.65 360.06 47.22 353.66 48.05 347.33 49.14 341.08 50.48 334.91 52.07 328.79 53.91 322.8 55.99 316.94 58.3 311.22 60.84 305.62 63.61 300.17 66.6 294.91 69.79 294.49 70.07 294.09 70.31 288.95 73.74 283.96 77.39 279.16 81.24 274.6 85.25 270.27 89.41 266.17 93.75 265.64 94.36 265.11 94.92 261.15 99.51 257.45 104.24 257.45 104.55 258.64 103.21 260.14 102.11 261.93 101.22 264.14 100.5 266.69 100.01 269.29 99.78 272.26 99.76 275.45 99.97 278.84 100.4 282.4 101.06 284.92 97.41 287.66 93.83 290.6 90.36 293.73 86.99 297.09 83.72 300.66 80.55 304.42 77.52 308.35 74.64 312.47 71.89 316.78 69.29 321.27 66.85 325.89 64.59 330.66 62.5 335.59 60.6 340.66 58.88 345.82 57.38 351.09 56.08 356.46 54.99 361.93 54.12 367.44 53.48 373 53.08 378.61 52.9 384.26 52.96 389.88 53.26 395.5 53.8 401.09 54.59 406.65 55.62 412.13 56.88 417.53 58.39 422.85 60.13 428.06 62.12 433.13 64.32 438.05 66.75 442.8 69.38 447.37 72.22 451.76 75.27 455.95 78.51 457.49 77.75 458.95 77.15 460.34 76.7 461.63 76.41 462.79 76.25 463.95 76.24 465 76.36 465.89 76.61 466.7 76.98 467.43 77.48"/>
    </g>
    <g id="surf-front-2" data-name="surf-front">
      <polyline class="Surface-visible" points="146.44 46.6 141.99 46.85 140.09 46.91 145.24 46.63 146.44 46.6 147.29 46.56 152.43 46.46 157.42 46.57 162.28 46.87 164.73 47.12 169.56 47.63 174.2 48.34 178.58 49.23 181.42 49.88 185.82 51.01 190.03 52.34 192.97 53.38 197.07 54.94 200.92 56.68 203.94 58.15 207.7 60.15 211.24 62.33 214.26 64.26 217.64 66.7 220.4 68.92 223.06 71.61 225.3 74.47 227.2 77.59 228.76 80.92 229.95 84.45 230.76 88.14 231.2 91.97 231.25 95.89 230.91 99.94 230.2 103.94 229.15 107.87 227.65 112.01 225.75 116.15 223.69 119.84 221.21 123.6 218.43 127.19 215.37 130.61 212.05 133.82 209.46 130.84 206.64 127.98 203.62 125.24 200.4 122.64 196.95 120.16 193.27 117.81 189.41 115.61 185.37 113.58 181.13 111.7 176.69 109.99 172.07 108.46 167.32 107.11 162.41 105.95 157.33 104.98 152.11 104.21 146.79 103.65 141.37 103.3 135.83 103.16 130.19 103.24 124.52 103.53 118.79 104.04 113.01 104.78 107.2 105.75 101.4 106.92 95.62 108.33 89.85 109.95 84.12 111.79 78.47 113.84 72.9 116.1 67.42 118.56 62.05 121.23 56.82 124.08 51.75 127.11 46.85 130.31 42.13 133.67 37.6 137.19 33.28 140.85 31.5 139.29 29.76 137.66 28.07 135.97 26.45 134.24 24.96 132.56 23.4 130.69 21.95 128.84 20.66 127.1 19.43 125.32 18.25 123.52 17.19 121.76 16.21 120.02 15.34 118.32 14.56 116.66 13.89 115.04 13.32 113.47 12.85 111.96 12.49 110.47 12.26 109.14 12.14 107.85 12.14 106.64 12.26 105.53 12.5 104.51 12.88 103.61 13.38 102.83 14.02 102.17 18.53 98.3 23.22 94.5 28.08 90.79 33.09 87.19 38.26 83.68 43.56 80.29 48.98 77.02 54.5 73.88 60.09 70.9 65.73 68.07 71.45 65.38 77.19 62.87 82.94 60.53 88.69 58.36 94.45 56.37 100.17 54.56 105.83 52.95 111.44 51.52 117 50.28 118.14 50.06 118.21 50.05 118.31 50.02 123.92 48.95 129.41 48.07 134.79 47.4 140.09 46.91"/>
      <polyline class="Surface-visible" points="429.56 55.94 429.05 55.73 423.13 53.69 417.11 51.9 410.99 50.37 404.76 49.09 398.46 48.07 392.13 47.32 385.74 46.84 379.31 46.61 372.87 46.66 366.46 46.96 360.06 47.53 353.66 48.36 347.33 49.45 341.08 50.79 334.91 52.38 328.79 54.22 322.8 56.3 316.94 58.61 311.22 61.15 305.62 63.92 300.17 66.92 294.91 70.1 294.49 70.38 294.09 70.62 288.95 74.05 283.96 77.7 279.16 81.55 274.6 85.56 270.27 89.72 266.17 94.06 265.64 94.67 265.11 95.23 261.15 99.82 257.45 104.55 256.61 106.06 256.13 107.75 256 109.6 256.23 111.6 256.82 113.73 257.76 115.98 259.04 118.32 260.71 120.83 262.58 123.22 264.82 125.74 267.34 128.28 270.13 130.81 273.16 133.32 276.41 135.79 279.86 138.19 283.47 140.51 287.21 142.73 291.06 144.82 294.98 146.78 298.94 148.59 302.92 150.23 306.86 151.69 308.71 147.84 310.76 144.03 312.98 140.29 315.38 136.62 317.98 133 320.78 129.45 323.75 126 326.88 122.66 330.2 119.42 333.71 116.29 337.38 113.3 341.2 110.46 345.16 107.77 349.29 105.23 353.57 102.86 357.96 100.69 362.46 98.71 367.08 96.93 371.82 95.36 376.61 94.02 381.48 92.91 386.42 92.03 391.4 91.4 396.4 91.03 401.41 90.91 406.43 91.04 411.43 91.45 416.38 92.11 421.27 93.05 426.1 94.25 430.85 95.72 435.48 97.46 439.98 99.44 444.33 101.67 448.53 104.15 452.56 106.87 456.4 109.82 458.03 107.94 459.56 106.03 461 104.12 462.33 102.2 463.55 100.3 464.66 98.42 465.66 96.58 466.55 94.78 467.32 93.03 467.98 91.34 468.53 89.72 468.96 88.17 469.29 86.69 469.5 85.34 469.62 83.98 469.62 82.76 469.52 81.62 469.31 80.59 468.99 79.65 468.57 78.82 468.06 78.09 467.43 77.48 462.68 73.79 457.71 70.31 457.53 70.19 457.04 69.85 451.91 66.61 446.6 63.6 441.1 60.82 435.43 58.27 429.61 55.95 429.56 55.94"/>
    </g>
    <g id="pattern-visible-2" data-name="pattern-visible">
      <path class="cls-1" d="M15.34,118.32a2.17,2.17,0,0,1,.34-.15,1.64,1.64,0,0,1-.32.2c-.27.12-.33.15-.34.14A1.46,1.46,0,0,1,15.34,118.32Z"/>
      <path class="cls-1" d="M227.86,79l.73,1.74h0L229.5,84h0l.57,3.42v0h0l.21,3.59v0h0l-.12,3.71v0h0l-.5,3.85v0l-.83,3.84v0l-1.14,3.8v0l-1.56,4v0c-1,2-1.88,4.07-3,6a61.13,61.13,0,0,1-3.62,5.67c-1.36,1.78-2.68,3.6-4.2,5.24s-3.07,3.25-4.65,4.83c1.47-1.69,3-3.26,4.39-5s2.72-3.53,4-5.34c.62-.92,1.19-1.87,1.79-2.81s1.16-1.9,1.69-2.87c1.14-1.91,2-4,3-6v0l1.56-4v0l1.17-3.79v0l.87-3.82v0l.56-3.84v0l.23-3.71v0l-.12-3.6v0L229.24,84h0l-.76-3.27h0Z"/>
      <path class="cls-1" d="M119.61,50c-.17.28-.31.32-.44.32s-.23-.12-.31-.43c.17-.28.3-.32.43-.31S119.53,49.72,119.61,50Z"/>
      <path class="cls-1" d="M203.07,124.79c.94-1.25,1.92-2.49,2.83-3.76s1.79-2.59,2.6-3.93a75,75,0,0,0,4.51-8.25l1-2.13c.31-.72.58-1.46.87-2.18l.86-2.18.72-2.24A64.68,64.68,0,0,0,218.61,91v0l.44-3.76v0l.13-3.6v0L219,80.25v0L218.54,77v0l-.74-3.14v0l-1-2.93v0l-1.31-2.7v0l-1.57-2.45h0l-1.89-2.27h0l-2-1.83h0L208,60.34l2.11,1.35h0l2.07,1.75h0l2,2.19v0h0l1.65,2.41v0h0l1.37,2.67v0h0l1.1,2.91v0h0l.81,3.12v0l.5,3.31v0l.2,3.46v0l-.11,3.61v0l-.41,3.77h0a58.61,58.61,0,0,1-2.24,9.21l-.74,2.24-.88,2.21c-.3.73-.58,1.46-.9,2.19l-1,2.13a77.42,77.42,0,0,1-4.72,8.2c-.87,1.31-1.85,2.55-2.76,3.83S204.06,123.58,203.07,124.79Z"/>
      <path class="cls-1" d="M45.66,131.15a76.76,76.76,0,0,1-6.77-7.42A89,89,0,0,1,33,115.54a70,70,0,0,1-4.83-8.84,39.46,39.46,0,0,1-1.84-4.7,24.46,24.46,0,0,1-1.12-4.93h0l-.06-1.14h0l.05-1h0l.15-.92h0l.27-.79h0l.4-.66h0l.51-.52-.47.55h0l-.34.68h0l-.22.81h0l-.1.92h0v1L25.59,97h0a36.67,36.67,0,0,0,3.21,9.4,86.57,86.57,0,0,0,4.84,8.74c1.75,2.84,3.68,5.56,5.66,8.24S43.43,128.66,45.66,131.15Z"/>
      <path class="cls-1" d="M133.21,103.19c-.08-4.32-.32-8.64-.72-12.93s-1-8.58-1.76-12.82a112.63,112.63,0,0,0-3-12.58,47,47,0,0,0-5-11.85h0l-.8-1.09h0l-.8-.86h0l-.79-.64h0l-.77-.4.79.35h0l.82.6h0l.84.83h0l.86,1h0a28.49,28.49,0,0,1,3.16,5.69,57.35,57.35,0,0,1,2.29,6.1,98.14,98.14,0,0,1,3.05,12.64A124.47,124.47,0,0,1,133,90.21,112.45,112.45,0,0,1,133.21,103.19Z"/>
      <path class="cls-1" d="M172.69,108.66a92.58,92.58,0,0,0,3.81-12.09c.52-2,.92-4.13,1.28-6.21l.49-3.12.35-3.15a76.11,76.11,0,0,0,.15-12.63,49.61,49.61,0,0,0-2.43-12.35v0l-.93-2.36v0l-1.06-2.15v0l-1.23-2v0l-1.25-1.61,0,0-1.4-1.42h0l-1.49-1.13h0l-1.59-.83h0l-1.68-.52,1.7.45h0c.54.25,1.09.5,1.62.77h0l1.54,1.07h0l1.45,1.35h0l1.31,1.56h0l1.28,1.94h0l1.11,2.11v0h0l1,2.34v0a48,48,0,0,1,2.6,12.49,68.75,68.75,0,0,1-.19,12.75A76.28,76.28,0,0,1,177,96.69,79.29,79.29,0,0,1,172.69,108.66Z"/>
      <path class="cls-1" d="M119,104q-1.08-6.18-2.41-12.31c-.91-4.08-1.84-8.15-2.94-12.18s-2.25-8-3.62-12a62.57,62.57,0,0,0-4.93-11.47h0l-.61-.87h0l-.59-.66h0l-.55-.45h0l-.51-.22h-.47l.47,0h0l.52.18h0l.58.41h0l.62.63h0l.65.83h0a35.21,35.21,0,0,1,3,5.54c.86,1.9,1.64,3.86,2.36,5.83,1.39,4,2.66,8,3.71,12s2,8.13,2.78,12.25S118.55,99.86,119,104Z"/>
      <path class="cls-1" d="M147.4,103.72a123.79,123.79,0,0,0,.73-12.9c0-4.3-.16-8.6-.56-12.88a105.31,105.31,0,0,0-2-12.73,47.22,47.22,0,0,0-4.33-12.06h0l-.91-1.48v0l-1-1.32h0l-1-1.09h0l-1-.85h0l-1.06-.59h0l-1.06-.34h0l-1.07-.06h1.08l1.09.28h0l1.09.55h0l1.08.8h0l1.06,1h0l1,1.28h0l1,1.45v0a39.86,39.86,0,0,1,2.77,5.87c.34,1,.74,2,1,3.1l.45,1.56.39,1.58a86.29,86.29,0,0,1,2,12.81,105.81,105.81,0,0,1,.37,13A91.31,91.31,0,0,1,147.4,103.72Z"/>
      <path class="cls-1" d="M160.86,105.66a105.52,105.52,0,0,0,2.91-26.11,86.65,86.65,0,0,0-1.2-13.07c-.19-1.08-.44-2.14-.66-3.22s-.52-2.12-.87-3.16A38,38,0,0,0,158.69,54h0l-1.06-1.89h0l-1.05-1.53h0l-1.17-1.35h0l-1.24-1.1h0l-1.29-.83h0l-1.35-.56h0l-1.39-.28,1.4.21h0l1.37.49h0l1.34.78h0l1.28,1h0l1.23,1.3v0l1.1,1.51h0l1.11,1.87h0a44.29,44.29,0,0,1,4.13,12.57,73.91,73.91,0,0,1,1.23,13.19,88.32,88.32,0,0,1-.84,13.2A83.71,83.71,0,0,1,160.86,105.66Z"/>
      <path class="cls-1" d="M194.26,118.44a84.26,84.26,0,0,0,5.36-9.42c.84-1.59,1.49-3.27,2.23-4.92.35-.83.63-1.68,1-2.52s.64-1.69.89-2.55l.82-2.58c.26-.86.45-1.73.68-2.61.49-1.74.76-3.51,1.12-5.28a65.41,65.41,0,0,0,.75-10.75v0l-.24-3.37v0l-.48-3.21v0l-.7-3v0l-.92-2.82v0l-1.15-2.6v0l-1.36-2.35v0l-1.63-2.16,0,0-1.74-1.73h0l-2-1.51h0l-2.17-1.2L197,55.17h0l2,1.42h0l1.8,1.66h0c.58.7,1.14,1.4,1.71,2.11v0L204,62.72h0l1.21,2.57v0h0l1,2.8v0h0l.75,3v0l.5,3.2v0l.26,3.37h0v0A58.27,58.27,0,0,1,207,88.68c-.37,1.77-.66,3.58-1.16,5.32-.24.88-.44,1.77-.71,2.64l-.85,2.58c-.26.88-.59,1.72-.93,2.56s-.66,1.7-1,2.53c-.77,1.63-1.47,3.32-2.36,4.9A75.46,75.46,0,0,1,194.26,118.44Z"/>
      <path class="cls-1" d="M184.55,113.22a98.86,98.86,0,0,0,4.63-11,95.75,95.75,0,0,0,3.08-11.51,71.14,71.14,0,0,0,1.3-11.81,53,53,0,0,0-.86-11.85v0l-.68-2.9v0l-.85-2.69v0l-1-2.47v0L189,56.86v0l-1.44-2.05,0,0L186,53.19l0,0-1.69-1.46h0l-1.82-1.16h0l-2-.85h0l-2-.53,2.07.45h0l2,.77h0l1.87,1.09h0l1.74,1.39h0l1.54,1.62h0l1.48,2v0h0l1.27,2.21v0h0l1.09,2.44v0h0l.9,2.67v0h0l.7,2.89v0a53.77,53.77,0,0,1,.95,12,72.23,72.23,0,0,1-1.41,11.92,82.08,82.08,0,0,1-3.31,11.53A86.26,86.26,0,0,1,184.55,113.22Z"/>
      <path class="cls-1" d="M88.49,110.38c-1.69-3.61-3.29-7.27-4.87-10.93s-3.08-7.36-4.61-11S76,81,74.58,77.28s-2.93-7.43-4-11.27h0v-.19l0,.19h0c.64,1.89,1.46,3.71,2.23,5.55l2.31,5.52L79.7,88.12l4.45,11.11C85.62,102.94,87.08,106.65,88.49,110.38Z"/>
      <path class="cls-1" d="M59,122.92c-2.21-2.72-4.24-5.58-6.17-8.51s-3.71-6-5.43-9S44.14,99.17,42.72,96C42,94.35,41.41,92.7,40.84,91a28.36,28.36,0,0,1-1.26-5.12h0l-.08-1h0V84.1h0l.12-.69h0l.22-.54h0l.32-.38-.29.41h0l-.17.56h0l-.07.7h0l0,.83h0l.14,1h0a48.7,48.7,0,0,0,3.5,9.82c1.42,3.18,3,6.28,4.68,9.35s3.45,6.08,5.25,9.07S57,120,59,122.92Z"/>
      <path class="cls-1" d="M73.76,115.75c-2-3.16-3.94-6.41-5.78-9.69s-3.56-6.63-5.24-10-3.2-6.82-4.61-10.3c-.7-1.76-1.37-3.52-2-5.31a25.31,25.31,0,0,1-1.3-5.5h0v-.64h0l.08-.47h0l.17-.29-.15.31h0l-.05.47h0l.05.63h0a28.24,28.24,0,0,0,1.58,5.37c.64,1.76,1.37,3.49,2.12,5.21,1.47,3.46,3.08,6.84,4.72,10.22s3.35,6.72,5.07,10.05S72,112.44,73.76,115.75Z"/>
      <path class="cls-1" d="M103.24,106.55c-1.15-3.94-2.29-7.88-3.47-11.8S97.39,86.9,96.08,83s-2.58-7.78-4-11.61c-.7-1.93-1.43-3.84-2.22-5.73a41.88,41.88,0,0,0-2.65-5.53h0l-.36-.51h0l-.3-.3h0l-.24-.09.25.08h0l.33.28h0l.4.48h0a36.4,36.4,0,0,1,2.94,5.42c.86,1.87,1.65,3.76,2.42,5.67,1.5,3.82,2.86,7.7,4.15,11.6s2.45,7.84,3.52,11.8S102.38,102.54,103.24,106.55Z"/>
      <path class="cls-1" d="M207.79,60.2a1.54,1.54,0,0,1-.21.3s0,0,.09-.18c0,0,0,0,0,0l0,0,0-.08,0-.08,0,0s0,0,0,0,.13-.17.13-.16S207.92,60,207.79,60.2Z"/>
      <path class="cls-1" d="M357.78,47.83V48h0c.15,2.13.44,4.25.69,6.37l.72,6.37c.47,4.24.87,8.5,1.26,12.75s.65,8.53.85,12.8.34,8.54.24,12.82c-.21-4.27-.49-8.53-.81-12.79s-.65-8.51-1-12.76L358.61,60.8c-.33-4.25-.78-8.51-.86-12.79h0Z"/>
      <path class="cls-1" d="M341.52,50.7l-.22.24h0l-.17.48h0l-.11.71h0a37.92,37.92,0,0,0,.35,6.73c.26,2.25.59,4.48.94,6.71.67,4.46,1.43,8.91,2.18,13.37s1.48,8.91,2.16,13.38,1.32,9,1.78,13.45l-4.67-26.71c-.73-4.46-1.45-8.92-2.05-13.41-.29-2.24-.55-4.49-.74-6.75a34.91,34.91,0,0,1-.05-6.78h0l.16-.7h0l.2-.47h0Z"/>
      <path class="cls-1" d="M310.65,61.43l-.71.47h0l-.59.73h0l-.44,1h0l-.3,1.21h0l-.17,1.44h0l0,1.66h0A69.55,69.55,0,0,0,311,82.37c1.22,4.77,2.75,9.46,4.3,14.14s3.28,9.3,4.95,13.94l5.09,13.91c-1.89-4.56-3.79-9.12-5.59-13.72s-3.51-9.23-5.13-13.9-3-9.41-4.26-14.21c-.59-2.4-1.14-4.81-1.52-7.26a42.69,42.69,0,0,1-.67-7.4h0l.1-1.66h0l.23-1.43v0l.36-1.19h0l.49-.95h0l.62-.7h0Z"/>
      <path class="cls-1" d="M296.44,69.17l-.92.61h0l-.77.88h0l-.59,1.13v0l-.42,1.38v0l-.25,1.61h0l-.07,1.84h0l.1,2.07h0a66.14,66.14,0,0,0,3.61,14.82c1.66,4.82,3.63,9.53,5.7,14.2s4.34,9.26,6.61,13.83l7,13.66c-2.54-4.44-5.07-8.89-7.46-13.42s-4.67-9.12-6.8-13.77a146.54,146.54,0,0,1-5.69-14.29c-.84-2.42-1.55-4.89-2.16-7.39a51.18,51.18,0,0,1-1.21-7.6v0l0-2.08h0l.15-1.84h0l.31-1.6v0l.47-1.35h0l.63-1.1h0l.81-.85h0Z"/>
      <path class="cls-1" d="M325.58,55.34l-.43.33h0l-.35.59h0l-.25.81h0l-.15,1.05h0a38.17,38.17,0,0,0,.38,7.16c.31,2.37.71,4.74,1.18,7.09.89,4.71,2,9.38,3.16,14s2.36,9.32,3.53,14,2.37,9.31,3.42,14l-4-13.87c-1.31-4.62-2.51-9.28-3.7-13.94s-2.21-9.37-3.07-14.1c-.42-2.38-.76-4.76-1-7.16a33.52,33.52,0,0,1-.11-7.22h0l.2-1h0l.29-.79h0l.38-.56h0Z"/>
      <path class="cls-1" d="M282.36,79l-1,1.11h0l-.76,1.35h0L280.08,83h0l-.31,1.82v0l-.09,2v0l.12,2.27v0l.33,2.47v0a68.48,68.48,0,0,0,4.84,14.9c2.13,4.79,4.56,9.43,7.16,14,5.23,9.09,11.11,17.8,17.12,26.43-3.18-4.19-6.31-8.41-9.27-12.76s-5.81-8.77-8.46-13.32a131.21,131.21,0,0,1-7.18-14.08,63.21,63.21,0,0,1-4.66-15.08v0l-.27-2.47v0l0-2.26h0l.17-2v0l.39-1.81h0l.6-1.56h0l.81-1.32h0Z"/>
      <path class="cls-1" d="M256.57,112.84c-.13-.51-.21-1-.31-1.53v0c0-.82,0-1.65,0-2.47v0c.13-.75.27-1.5.43-2.25h0v0c.27-.68.55-1.34.85-2l0,0h0c.41-.57.83-1.13,1.29-1.67-.26.66-.54,1.3-.85,1.93l0,0c-.2.7-.42,1.38-.65,2.07v-.06c-.13.75-.28,1.5-.44,2.25v0c-.07.82-.15,1.63-.27,2.45v0C256.65,111.8,256.63,112.32,256.57,112.84Z"/>
      <path class="cls-1" d="M453.68,67.73l.7.43h0l.61.56h0l.51.69h0l.43.81h0l.34.93h0l.25,1h0l.15,1.16h0l.06,1.26v0a28.35,28.35,0,0,1-1.12,7.49,45.39,45.39,0,0,1-2.59,7.11,57.65,57.65,0,0,1-3.51,6.7,61.63,61.63,0,0,1-4.31,6.19c1.37-2.11,2.66-4.25,3.88-6.44s2.31-4.43,3.31-6.72A65.41,65.41,0,0,0,455,82a33.24,33.24,0,0,0,1.29-7.33V73.46h0l-.1-1.15h0l-.19-1v0l-.28-1h0l-.37-.84v0l-.46-.73h0l-.55-.6h0Z"/>
      <path class="cls-1" d="M439.42,60.06l.62.39h0l.54.53h0l.47.67h0l.4.81h0l.33.94h0l.25,1.06v0A26.91,26.91,0,0,1,442,73a52.7,52.7,0,0,1-1.92,8.24,67,67,0,0,1-3,7.89,64.57,64.57,0,0,1-3.92,7.46q1.86-3.78,3.44-7.66c1-2.6,2-5.22,2.8-7.9a67.18,67.18,0,0,0,1.94-8.13,29.64,29.64,0,0,0,.38-8.3h0l-.19-1.08v0l-.27-1h0l-.35-.83h0l-.43-.7h0l-.5-.58h0Z"/>
      <path class="cls-1" d="M407.5,49.65l.48.17h0l.45.35h0l.41.52h0l.37.68h0l.33.85h0a21.63,21.63,0,0,1,.86,4.86c.11,1.65.18,3.3.13,4.94a87.27,87.27,0,0,1-.84,9.83c-.49,3.25-1.06,6.49-1.86,9.68A88.27,88.27,0,0,1,405,91q1.29-4.76,2.29-9.56c.64-3.2,1.25-6.42,1.66-9.66s.81-6.49.92-9.75a36.36,36.36,0,0,0-.58-9.72h0l-.27-.87v0l-.32-.71h0l-.37-.55h0l-.42-.38h0Z"/>
      <path class="cls-1" d="M423.38,53.79h.06l.6.21h0l.56.37h0l.5.53h0l.43.68h0l.38.82h0l.32,1h0l.25,1.1v0a32.17,32.17,0,0,1,.09,8.82,68.81,68.81,0,0,1-1.52,8.7,83,83,0,0,1-5.8,16.61q1.54-4.11,2.84-8.3c.84-2.81,1.63-5.62,2.27-8.47s1.19-5.72,1.54-8.6a36.8,36.8,0,0,0,.19-8.71h0l-.2-1.11v0l-.26-1h0l-.33-.84h0L425,55h0l-.46-.56h0l-.53-.42h0l-.58-.25h-.06Z"/>
      <path class="cls-1" d="M270.59,89.42l-1.19,1.36h0l-.92,1.6v0l-.64,1.84v0l-.36,2v0l-.1,2.27v0l.16,2.47v0l.45,2.66v0l.72,2.83v0c2.15,7.32,5.83,14.06,9.88,20.5,1,1.6,2.08,3.19,3.17,4.76s2.19,3.12,3.31,4.67,2.31,3,3.45,4.57,2.35,3,3.56,4.49c-2.56-2.84-5-5.76-7.38-8.79s-4.6-6.12-6.67-9.34a94.53,94.53,0,0,1-5.74-10,63.4,63.4,0,0,1-4.18-10.71v0h0l-.65-2.85h0v0l-.38-2.67h0v0l-.1-2.47h0v0l.17-2.26h0v0l.45-2h0v0l.72-1.8v0l1-1.56h0Z"/>
      <path class="cls-1" d="M374.29,46.65l.21.14h0l.23.35h0l.24.55h0a16.48,16.48,0,0,1,.79,3.24c.19,1.09.31,2.2.4,3.3s.15,2.2.16,3.31,0,2.22-.09,3.32c-.37-2.19-.59-4.38-.8-6.56l-.32-3.28c-.11-1.1-.21-2.18-.4-3.27h0l-.14-.58h0l-.15-.39h0Z"/>
      <path class="cls-1" d="M391.13,47.25l.32.15h0l.31.35h0l.3.52h0l.28.71h0a26.82,26.82,0,0,1,1,5.26c.19,1.78.31,3.56.38,5.35.1,3.56.06,7.14-.13,10.7s-.51,7.12-1,10.65-1.08,7.06-1.9,10.53c.54-3.53,1-7,1.35-10.59s.66-7.08.81-10.63.31-7.1.24-10.65c0-1.77-.06-3.55-.18-5.32a31,31,0,0,0-.72-5.26h0l-.24-.72h0l-.26-.55h0l-.29-.37h0Z"/>
      <path class="cls-1" d="M376.25,60.9c.29,2.76.46,5.54.58,8.32s.14,5.57.16,8.35-.11,5.56-.28,8.34-.43,5.56-.82,8.31c.08-2.78.2-5.55.24-8.33s.12-5.55.11-8.33,0-5.55,0-8.33Z"/>
    </g>
    <g id="initial-curve-2" data-name="initial-curve">
      <path class="cls-2" d="M15.08,117.76a218.21,218.21,0,0,1,22.11-19.2,222.55,222.55,0,0,1,24.51-16A214.93,214.93,0,0,1,116.07,61a178.55,178.55,0,0,1,29-4.45,153.21,153.21,0,0,1,29.28.63c2.42.35,4.86.61,7.25,1.1l3.61.67,3.57.83,1.79.42,1.76.5,3.53,1,3.47,1.17,1.74.59c.57.21,1.13.45,1.7.68l3.4,1.37,3.32,1.55,1.66.79,1.61.88c1.07.59,2.15,1.15,3.2,1.78A90.83,90.83,0,0,1,227.86,79a90.44,90.44,0,0,0-12-8.39c-1.05-.61-2.14-1.16-3.21-1.75L211,68l-1.65-.77-3.33-1.52-3.41-1.34c-.57-.22-1.13-.46-1.7-.67l-1.74-.58L195.75,62l-3.53-1-1.76-.49-1.78-.41-3.56-.82-3.6-.65c-2.39-.49-4.82-.74-7.24-1.08A152.44,152.44,0,0,0,145.07,57a178.34,178.34,0,0,0-28.88,4.51A214.88,214.88,0,0,0,61.86,82.8a222.79,222.79,0,0,0-24.52,16A217.88,217.88,0,0,0,15.08,117.76Z"/>
      <path class="cls-2" d="M469.1,80C453.51,67.85,434.87,60,415.59,56.25a162.26,162.26,0,0,0-58.71-.58A169.79,169.79,0,0,0,301.39,75a147.17,147.17,0,0,0-44.82,37.87,139.09,139.09,0,0,1,20.35-21.38,154.78,154.78,0,0,1,24.31-16.78,170.07,170.07,0,0,1,55.56-19.5,162.86,162.86,0,0,1,58.86.74,136.36,136.36,0,0,1,28.18,8.83A120.37,120.37,0,0,1,469.1,80Z"/>
    </g>
    <g id="surf-frontborder-2" data-name="surf-frontborder">
      <polyline class="Solid-Black-Thick-Line" points="146.44 46.74 141.99 46.99 140.09 47.05 145.24 46.76 146.44 46.74 147.29 46.7 152.43 46.6 157.42 46.71 162.28 47.01 164.73 47.26 169.56 47.77 174.2 48.48 178.58 49.37 181.42 50.01 185.82 51.14 190.03 52.47 192.97 53.52 197.07 55.08 200.92 56.81 203.94 58.29 207.7 60.28 211.24 62.47 214.26 64.4 217.64 66.83 220.4 69.06 223.06 71.74 225.3 74.61 227.2 77.73 228.76 81.06 229.95 84.59 230.76 88.28 231.2 92.1 231.25 96.03 230.91 100.08 230.2 104.08 229.15 108.01 227.65 112.15 225.75 116.28 223.69 119.98 221.21 123.73 218.43 127.33 215.37 130.75 212.05 133.95 209.46 130.98 206.64 128.12 203.62 125.38 200.4 122.78 196.95 120.3 193.27 117.94 189.41 115.75 185.37 113.72 181.13 111.84 176.69 110.13 172.07 108.59 167.32 107.25 162.41 106.09 157.33 105.12 152.11 104.35 146.79 103.79 141.37 103.44 135.83 103.3 130.19 103.37 124.52 103.67 118.79 104.18 113.01 104.92 107.2 105.88 101.4 107.06 95.62 108.46 89.85 110.09 84.12 111.93 78.47 113.98 72.9 116.24 67.42 118.7 62.05 121.37 56.82 124.22 51.75 127.25 46.85 130.44 42.13 133.8 37.6 137.32 33.28 140.99 31.5 139.43 29.76 137.79 28.07 136.11 26.45 134.38 24.96 132.69 23.4 130.83 21.95 128.98 20.66 127.24 19.43 125.46 18.25 123.66 17.19 121.9 16.21 120.16 15.34 118.46 14.56 116.79 13.89 115.17 13.32 113.61 12.85 112.1 12.49 110.6 12.26 109.28 12.14 107.99 12.14 106.78 12.26 105.67 12.5 104.65 12.88 103.75 13.38 102.97 14.02 102.31 18.53 98.44 23.22 94.64 28.08 90.93 33.09 87.33 38.26 83.82 43.56 80.43 48.98 77.16 54.5 74.02 60.09 71.04 65.73 68.2 71.45 65.52 77.19 63.01 82.94 60.67 88.69 58.5 94.45 56.51 100.17 54.7 105.83 53.08 111.44 51.66 117 50.41 118.14 50.2 118.21 50.18 118.31 50.16 123.92 49.09 129.41 48.21 134.79 47.53 140.09 47.05"/>
      <polyline class="Solid-Black-Thick-Line" points="429.56 56.08 429.05 55.87 423.13 53.83 417.11 52.04 410.99 50.5 404.76 49.23 398.46 48.21 392.13 47.46 385.74 46.97 379.31 46.75 372.87 46.79 366.46 47.1 360.06 47.67 353.66 48.5 347.33 49.59 341.08 50.93 334.91 52.52 328.79 54.36 322.8 56.44 316.94 58.75 311.22 61.29 305.62 64.06 300.17 67.05 294.91 70.24 294.49 70.52 294.09 70.76 288.95 74.19 283.96 77.84 279.16 81.69 274.6 85.7 270.27 89.86 266.17 94.2 265.64 94.81 265.11 95.36 261.15 99.96 257.45 104.69 256.61 106.2 256.13 107.89 256 109.74 256.23 111.74 256.82 113.87 257.76 116.12 259.04 118.46 260.71 120.97 262.58 123.36 264.82 125.88 267.34 128.41 270.13 130.95 273.16 133.46 276.41 135.92 279.86 138.33 283.47 140.65 287.21 142.86 291.06 144.96 294.98 146.92 298.94 148.73 302.92 150.37 306.86 151.82 308.71 147.98 310.76 144.16 312.98 140.43 315.38 136.76 317.98 133.14 320.78 129.59 323.75 126.13 326.88 122.8 330.2 119.56 333.71 116.43 337.38 113.43 341.2 110.59 345.16 107.9 349.29 105.37 353.57 103 357.96 100.83 362.46 98.85 367.08 97.07 371.82 95.5 376.61 94.16 381.48 93.05 386.42 92.17 391.4 91.54 396.4 91.17 401.41 91.04 406.43 91.18 411.43 91.58 416.38 92.25 421.27 93.19 426.1 94.39 430.85 95.86 435.48 97.59 439.98 99.58 444.33 101.81 448.53 104.28 452.56 107 456.4 109.96 458.03 108.08 459.56 106.17 461 104.25 462.33 102.34 463.55 100.44 464.66 98.56 465.66 96.72 466.55 94.92 467.32 93.17 467.98 91.48 468.53 89.86 468.96 88.31 469.29 86.83 469.5 85.48 469.62 84.12 469.62 82.89 469.52 81.76 469.31 80.72 468.99 79.79 468.57 78.95 468.06 78.23 467.43 77.62 462.68 73.92 457.71 70.44 457.53 70.33 457.04 69.99 451.91 66.75 446.6 63.74 441.1 60.96 435.43 58.4 429.61 56.09 429.56 56.07"/>
    </g>
  </g>
</svg>
